<svg width="608" height="581" viewBox="0 0 608 581" fill="none" xmlns="http://www.w3.org/2000/svg">
<rect width="608" height="581" fill="#171F24"/>
<g opacity="0.4">
<g opacity="0.6" filter="url(#filter0_f_2001_1464)">
<path d="M531.42 265.812C560.119 292.14 547.988 341.791 505.85 365.048C463.561 388.087 391.114 384.515 343.881 413.221C296.648 441.928 274.478 502.695 251.465 512.117C228.167 521.735 204.16 479.593 177.405 455.472C150.937 431.154 121.871 425.076 114.866 406.362C107.425 387.627 121.474 356.651 133.197 331.471C144.769 306.073 153.881 286.888 151.925 249.211C149.969 211.534 137.097 155.583 155.326 134.947C173.119 114.29 221.863 128.728 251.355 151.928C280.847 175.128 291.659 206.697 306.996 221.599C322.333 236.501 342.346 234.954 387.401 235.487C432.457 236.019 502.286 239.463 531.42 265.812Z" fill="url(#paint0_linear_2001_1464)"/>
</g>
<g filter="url(#filter1_f_2001_1464)">
<path d="M409.033 167.354C438.447 162.197 464.776 184.888 461.074 213.354C457.166 241.821 423.02 276.063 420.552 308.861C418.084 341.659 447.087 373.014 442.973 387.453C438.859 402.099 401.422 399.624 374.271 404.574C347.119 409.319 330.457 421.489 315.442 418.601C300.22 415.92 286.644 398.592 275.742 384.359C264.635 370.126 256.407 359.193 231.518 347.435C206.629 335.677 165.284 323.094 160.142 307.211C154.794 291.534 185.442 272.556 213.211 265.955C240.98 259.354 265.869 264.717 282.119 262.242C298.369 259.767 306.185 249.453 326.344 227.587C346.502 205.722 379.413 172.717 409.033 167.354Z" fill="#0C43C4"/>
</g>
<g style="mix-blend-mode:color-dodge" opacity="0.9" filter="url(#filter2_f_2001_1464)">
<path d="M77.7407 241.33C60.6831 204.657 81.1385 162.258 119.677 157.123C158.288 152.257 215.055 184.925 258.828 176.657C302.602 168.389 333.454 119.454 353.787 119.775C374.389 120.023 384.274 169.867 400.268 203.652C415.993 237.51 437.755 255.041 439.241 275.698C441.068 296.551 423.159 320.386 408.36 339.637C393.633 359.158 382.215 373.754 375.557 410.437C368.9 447.12 366.931 505.619 347.954 517.915C329.32 530.407 293.749 496.964 275.379 462.949C257.009 428.935 255.301 394.493 246.366 374.102C237.431 353.711 221.198 347.101 185.527 328.394C149.855 309.687 95.1402 278.201 77.7407 241.33Z" fill="url(#paint1_linear_2001_1464)"/>
</g>
</g>
<defs>
<filter id="filter0_f_2001_1464" x="52.7878" y="65.0117" width="554.267" height="508.508" filterUnits="userSpaceOnUse" color-interpolation-filters="sRGB">
<feFlood flood-opacity="0" result="BackgroundImageFix"/>
<feBlend mode="normal" in="SourceGraphic" in2="BackgroundImageFix" result="shape"/>
<feGaussianBlur stdDeviation="30" result="effect1_foregroundBlur_2001_1464"/>
</filter>
<filter id="filter1_f_2001_1464" x="99.5291" y="106.619" width="421.894" height="372.42" filterUnits="userSpaceOnUse" color-interpolation-filters="sRGB">
<feFlood flood-opacity="0" result="BackgroundImageFix"/>
<feBlend mode="normal" in="SourceGraphic" in2="BackgroundImageFix" result="shape"/>
<feGaussianBlur stdDeviation="30" result="effect1_foregroundBlur_2001_1464"/>
</filter>
<filter id="filter2_f_2001_1464" x="11.6722" y="59.7734" width="487.698" height="520.816" filterUnits="userSpaceOnUse" color-interpolation-filters="sRGB">
<feFlood flood-opacity="0" result="BackgroundImageFix"/>
<feBlend mode="normal" in="SourceGraphic" in2="BackgroundImageFix" result="shape"/>
<feGaussianBlur stdDeviation="30" result="effect1_foregroundBlur_2001_1464"/>
</filter>
<linearGradient id="paint0_linear_2001_1464" x1="10.5231" y1="233.858" x2="250.419" y2="557.639" gradientUnits="userSpaceOnUse">
<stop stop-color="#99E1D9"/>
<stop offset="1" stop-color="#3B736D"/>
</linearGradient>
<linearGradient id="paint1_linear_2001_1464" x1="484.527" y1="482.18" x2="357.222" y2="79.1427" gradientUnits="userSpaceOnUse">
<stop stop-color="#99E1D9"/>
<stop offset="1" stop-color="#3B736D"/>
</linearGradient>
</defs>
</svg>
