<svg width="1920" height="187" viewBox="0 0 1920 187" fill="none" xmlns="http://www.w3.org/2000/svg">
<g clip-path="url(#clip0_603_1284)">
<g filter="url(#filter0_f_603_1284)">
<path d="M632.055 28.4306C978.445 5.44416 1256.36 -56.7129 1252.8 -110.401C1249.24 -164.089 965.543 -188.978 619.153 -165.992C272.763 -143.005 -5.15339 -80.8479 -1.59064 -27.1598C1.9721 26.5284 285.665 51.417 632.055 28.4306Z" fill="#0C43C4"/>
</g>
<g filter="url(#filter1_f_603_1284)">
<path d="M-49.5 20C161.197 20 332 -56.7832 332 -151.5C332 -246.217 161.197 -323 -49.5 -323C-260.197 -323 -431 -246.217 -431 -151.5C-431 -56.7832 -260.197 20 -49.5 20Z" fill="#99E1D9"/>
</g>
<g filter="url(#filter2_f_603_1284)">
<path d="M1906.5 16C2003.98 16 2083 -39.2928 2083 -107.5C2083 -175.707 2003.98 -231 1906.5 -231C1809.02 -231 1730 -175.707 1730 -107.5C1730 -39.2928 1809.02 16 1906.5 16Z" fill="#F8333C"/>
</g>
</g>
<defs>
<filter id="filter0_f_603_1284" x="-151.625" y="-324.554" width="1554.46" height="511.547" filterUnits="userSpaceOnUse" color-interpolation-filters="sRGB">
<feFlood flood-opacity="0" result="BackgroundImageFix"/>
<feBlend mode="normal" in="SourceGraphic" in2="BackgroundImageFix" result="shape"/>
<feGaussianBlur stdDeviation="75" result="effect1_foregroundBlur_603_1284"/>
</filter>
<filter id="filter1_f_603_1284" x="-531" y="-423" width="963" height="543" filterUnits="userSpaceOnUse" color-interpolation-filters="sRGB">
<feFlood flood-opacity="0" result="BackgroundImageFix"/>
<feBlend mode="normal" in="SourceGraphic" in2="BackgroundImageFix" result="shape"/>
<feGaussianBlur stdDeviation="50" result="effect1_foregroundBlur_603_1284"/>
</filter>
<filter id="filter2_f_603_1284" x="1630" y="-331" width="553" height="447" filterUnits="userSpaceOnUse" color-interpolation-filters="sRGB">
<feFlood flood-opacity="0" result="BackgroundImageFix"/>
<feBlend mode="normal" in="SourceGraphic" in2="BackgroundImageFix" result="shape"/>
<feGaussianBlur stdDeviation="50" result="effect1_foregroundBlur_603_1284"/>
</filter>
<clipPath id="clip0_603_1284">
<rect width="1920" height="187" fill="white"/>
</clipPath>
</defs>
</svg>
