<svg width="24" height="25" viewBox="0 0 24 25" fill="none" xmlns="http://www.w3.org/2000/svg">
<path d="M17.92 12.3839C17.8724 12.2611 17.801 12.149 17.71 12.0539L12.71 7.05386C12.6168 6.96062 12.5061 6.88666 12.3842 6.8362C12.2624 6.78574 12.1319 6.75977 12 6.75977C11.7337 6.75977 11.4783 6.86555 11.29 7.05386C11.1968 7.1471 11.1228 7.25779 11.0723 7.37961C11.0219 7.50143 10.9959 7.632 10.9959 7.76386C10.9959 8.03016 11.1017 8.28555 11.29 8.47386L14.59 11.7639H7C6.73478 11.7639 6.48043 11.8692 6.29289 12.0568C6.10536 12.2443 6 12.4986 6 12.7639C6 13.0291 6.10536 13.2834 6.29289 13.471C6.48043 13.6585 6.73478 13.7639 7 13.7639H14.59L11.29 17.0539C11.1963 17.1468 11.1219 17.2574 11.0711 17.3793C11.0203 17.5011 10.9942 17.6318 10.9942 17.7639C10.9942 17.8959 11.0203 18.0266 11.0711 18.1484C11.1219 18.2703 11.1963 18.3809 11.29 18.4739C11.383 18.5676 11.4936 18.642 11.6154 18.6927C11.7373 18.7435 11.868 18.7697 12 18.7697C12.132 18.7697 12.2627 18.7435 12.3846 18.6927C12.5064 18.642 12.617 18.5676 12.71 18.4739L17.71 13.4739C17.801 13.3788 17.8724 13.2666 17.92 13.1439C18.02 12.9004 18.02 12.6273 17.92 12.3839Z" fill="#99E1D9"/>
</svg>
