<svg width="24" height="25" viewBox="0 0 24 25" fill="none" xmlns="http://www.w3.org/2000/svg">
<path d="M6.08 12.3839C6.12759 12.2611 6.19896 12.149 6.29 12.0539L11.29 7.05386C11.3832 6.96062 11.4939 6.88666 11.6158 6.8362C11.7376 6.78574 11.8681 6.75977 12 6.75977C12.2663 6.75977 12.5217 6.86555 12.71 7.05386C12.8032 7.1471 12.8772 7.25779 12.9277 7.37961C12.9781 7.50143 13.0041 7.632 13.0041 7.76386C13.0041 8.03016 12.8983 8.28555 12.71 8.47386L9.41 11.7639H17C17.2652 11.7639 17.5196 11.8692 17.7071 12.0568C17.8946 12.2443 18 12.4986 18 12.7639C18 13.0291 17.8946 13.2834 17.7071 13.471C17.5196 13.6585 17.2652 13.7639 17 13.7639H9.41L12.71 17.0539C12.8037 17.1468 12.8781 17.2574 12.9289 17.3793C12.9797 17.5011 13.0058 17.6318 13.0058 17.7639C13.0058 17.8959 12.9797 18.0266 12.9289 18.1484C12.8781 18.2703 12.8037 18.3809 12.71 18.4739C12.617 18.5676 12.5064 18.642 12.3846 18.6927C12.2627 18.7435 12.132 18.7697 12 18.7697C11.868 18.7697 11.7373 18.7435 11.6154 18.6927C11.4936 18.642 11.383 18.5676 11.29 18.4739L6.29 13.4739C6.19896 13.3788 6.12759 13.2666 6.08 13.1439C5.97998 12.9004 5.97998 12.6273 6.08 12.3839Z" fill="#5D6F7A"/>
</svg>
