<svg width="46" height="37" viewBox="0 0 46 37" fill="none" xmlns="http://www.w3.org/2000/svg">
<path d="M0 37V26.9561C0 23.8543 0.538871 20.654 1.61661 17.3553C2.74334 14.0073 4.28648 10.8317 6.24601 7.82834C8.25453 4.77578 10.5325 2.16633 13.0799 0L21.8978 5.53892C19.9382 8.64072 18.3216 11.9148 17.0479 15.3613C15.8232 18.7585 15.2109 22.5988 15.2109 26.8822V37H0ZM24.1022 37V26.9561C24.1022 23.8543 24.6411 20.654 25.7189 17.3553C26.8456 14.0073 28.3887 10.8317 30.3482 7.82834C32.3568 4.77578 34.6347 2.16633 37.1821 0L46 5.53892C44.0405 8.64072 42.4239 11.9148 41.1502 15.3613C39.9255 18.7585 39.3131 22.5988 39.3131 26.8822V37H24.1022Z" fill="#2F3C45"/>
</svg>
