<svg width="426" height="551" viewBox="0 0 426 551" fill="none" xmlns="http://www.w3.org/2000/svg">
<rect width="426" height="551" fill="#171F24"/>
<g opacity="0.4">
<g opacity="0.6" filter="url(#filter0_f_2001_1487)">
<path d="M125.703 263.768C130.214 255.426 135.749 249.24 140.245 235.049C144.767 221.102 148.224 198.904 156.557 187.067C165.108 175.402 178.369 174.416 197.588 169.374C216.807 164.331 241.818 155.552 265.939 161.115C290.278 166.85 313.727 186.929 301.357 209.727C289.204 232.696 241.04 258.459 222.302 285.214C203.565 311.969 214.254 339.718 212.797 373.374C211.365 407.275 197.761 446.839 181.585 450.465C165.409 454.092 146.469 421.853 133.377 397.823C120.285 373.792 112.849 358.043 110.554 341.859C108.45 325.603 111.27 308.741 114.449 295.306C117.628 281.871 121.166 271.864 125.703 263.768Z" fill="url(#paint0_linear_2001_1487)"/>
</g>
<g filter="url(#filter1_f_2001_1487)">
<path d="M148.978 326.688C147.807 316.242 148.921 306.408 144.047 291.664C139.351 277.076 128.49 257.421 128.577 240.756C128.969 224.01 140.361 210.646 154.593 188.616C168.824 166.586 185.947 136.282 211.305 117.397C236.969 98.4318 270.869 90.8858 274.035 119.476C277.506 147.987 250.115 212.87 250.007 250.445C249.9 288.02 277.076 298.286 296.972 324.481C317.047 350.832 329.664 392.956 317.297 411.043C304.929 429.13 267.448 423.416 240.439 418.18C213.431 412.944 196.766 408.422 184.484 398.681C172.33 388.704 164.255 373.589 158.665 360.658C153.076 347.726 149.973 336.979 148.978 326.688Z" fill="#0C43C4"/>
</g>
<g style="mix-blend-mode:color-dodge" opacity="0.9" filter="url(#filter2_f_2001_1487)">
<path d="M255.39 329.69C250.727 337.212 245.478 342.397 240.143 355.766C234.816 368.886 229.395 390.439 221.197 400.766C212.842 410.882 201.883 409.483 185.578 411.065C169.274 412.647 147.797 416.922 128.723 407.028C109.492 396.924 92.6639 372.65 105.444 352.099C118.065 331.338 160.46 314.26 178.908 290.9C197.356 267.541 191.859 237.899 196.984 204.54C202.116 170.931 217.864 133.852 231.515 133.138C245.166 132.423 256.885 168.033 264.782 194.393C272.679 220.752 276.919 237.822 276.904 254.402C276.725 271.02 272.448 287.358 268.279 300.207C264.109 313.057 260.046 322.417 255.39 329.69Z" fill="url(#paint1_linear_2001_1487)"/>
</g>
</g>
<defs>
<filter id="filter0_f_2001_1487" x="9.82666" y="59.332" width="394.941" height="491.414" filterUnits="userSpaceOnUse" color-interpolation-filters="sRGB">
<feFlood flood-opacity="0" result="BackgroundImageFix"/>
<feBlend mode="normal" in="SourceGraphic" in2="BackgroundImageFix" result="shape"/>
<feGaussianBlur stdDeviation="50" result="effect1_foregroundBlur_2001_1487"/>
</filter>
<filter id="filter1_f_2001_1487" x="28.5767" y="0.544922" width="393.62" height="522.821" filterUnits="userSpaceOnUse" color-interpolation-filters="sRGB">
<feFlood flood-opacity="0" result="BackgroundImageFix"/>
<feBlend mode="normal" in="SourceGraphic" in2="BackgroundImageFix" result="shape"/>
<feGaussianBlur stdDeviation="50" result="effect1_foregroundBlur_2001_1487"/>
</filter>
<filter id="filter2_f_2001_1487" x="0.981934" y="33.127" width="375.922" height="480.223" filterUnits="userSpaceOnUse" color-interpolation-filters="sRGB">
<feFlood flood-opacity="0" result="BackgroundImageFix"/>
<feBlend mode="normal" in="SourceGraphic" in2="BackgroundImageFix" result="shape"/>
<feGaussianBlur stdDeviation="50" result="effect1_foregroundBlur_2001_1487"/>
</filter>
<linearGradient id="paint0_linear_2001_1487" x1="319.649" y1="397.916" x2="214.191" y2="154.274" gradientUnits="userSpaceOnUse">
<stop stop-color="#99E1D9"/>
<stop offset="1" stop-color="#3B736D"/>
</linearGradient>
<linearGradient id="paint1_linear_2001_1487" x1="112.48" y1="160.814" x2="187.362" y2="418.183" gradientUnits="userSpaceOnUse">
<stop stop-color="#99E1D9"/>
<stop offset="1" stop-color="#3B736D"/>
</linearGradient>
</defs>
</svg>
