<svg width="152" height="34" viewBox="0 0 152 34" fill="none" xmlns="http://www.w3.org/2000/svg">
<path d="M36.5537 0C38.9012 -1.02611e-07 40.8047 1.90281 40.8047 4.25V17C40.8046 26.3887 33.1925 34 23.8027 34H4.25C1.90283 33.9997 0.000139351 32.0969 0 29.75V17C-4.10396e-07 7.61124 7.61206 4.10445e-07 17.002 0H36.5537ZM20.4932 26.8076H30.2979C30.2978 25.5204 30.0434 24.2459 29.5508 23.0566C29.0581 21.8673 28.3362 20.7863 27.4258 19.876C26.5154 18.9657 25.4345 18.2436 24.2451 17.751C23.0557 17.2583 21.7806 17.0049 20.4932 17.0049V26.8076ZM18.5361 7.2002C17.2487 7.2002 15.9736 7.4537 14.7842 7.94629C13.5948 8.43889 12.5139 9.16113 11.6035 10.0713C10.6931 10.9816 9.97026 12.0626 9.47754 13.252C8.98483 14.4413 8.73145 15.7165 8.73145 17.0039C8.73149 18.2911 8.98494 19.5657 9.47754 20.7549C9.97026 21.9443 10.6931 23.0252 11.6035 23.9355C12.5139 24.8458 13.5947 25.5679 14.7842 26.0605C15.9737 26.5532 17.2487 26.8066 18.5361 26.8066V7.2002ZM20.4932 7.20117C20.4932 8.48856 20.7475 9.76374 21.2402 10.9531C21.7329 12.1423 22.455 13.2226 23.3652 14.1328C24.2756 15.0431 25.3564 15.7652 26.5459 16.2578C27.7354 16.7505 29.0104 17.0049 30.2979 17.0049V7.20117H20.4932Z" fill="#99E1D9"/>
<path d="M143.415 26.5711C139.354 26.5711 136.655 23.8212 136.655 19.5551C136.655 15.2118 139.38 12.5391 143.415 12.5391C146.191 12.5391 148.119 13.6442 148.941 15.2889H149.07L149.173 12.7447H152V26.3398H149.018V23.667H148.89C148.042 25.4403 145.908 26.5711 143.415 26.5711ZM144.238 24.2581C147.245 24.2581 149.018 22.2793 149.018 19.992V18.964C149.018 16.7538 147.245 14.852 144.238 14.852C141.513 14.852 139.663 16.5482 139.663 19.5551C139.663 22.4591 141.488 24.2581 144.238 24.2581Z" fill="white"/>
<path d="M132.17 10.6894V7.60547H135.152V10.6894H132.17ZM132.17 26.3406V12.7454H135.152V26.3406H132.17Z" fill="white"/>
<path d="M124.049 26.5984C119.654 26.5984 117.161 24.8251 117.058 22.0752H119.988C120.04 23.72 121.531 24.6966 124.127 24.6966C126.414 24.6966 127.879 24.0798 127.879 22.6663C127.879 21.1244 126.902 20.816 123.844 20.5076C119.372 20.0707 117.547 19.1969 117.547 16.6269C117.547 14.0826 120.014 12.4893 124.024 12.4893C127.905 12.4893 130.192 14.1083 130.449 16.8068H127.596C127.442 15.1363 126.003 14.4167 124.024 14.4167C121.916 14.4167 120.425 15.0078 120.425 16.3956C120.425 17.732 121.608 18.0918 124.435 18.3745C128.984 18.8114 130.835 19.5567 130.835 22.4607C130.835 24.9536 128.625 26.5984 124.049 26.5984Z" fill="white"/>
<path d="M96.1817 26.3406L104.715 7.60547H108.699L117.258 26.3406H113.917L111.963 22.0487H101.451L99.523 26.3406H96.1817ZM102.376 19.6843H111.064L107.748 12.437L106.771 10.1754H106.668L105.692 12.4627L102.376 19.6843Z" fill="white"/>
<path d="M82.7809 26.5714C76.7921 26.5714 74.1704 24.0528 74.0162 20.4549H77.2548C77.3833 23.0248 79.3367 24.3612 82.8837 24.3612C86.2764 24.3612 87.9471 23.2047 87.9471 21.2516C87.9471 18.8101 85.9423 18.476 82.3439 18.0134C77.5889 17.4223 74.556 16.4971 74.556 12.7707C74.556 9.32689 77.666 7.39941 82.5238 7.39941C87.3817 7.39941 90.209 9.45539 90.4146 12.8992H87.2788C87.1246 10.6376 85.2997 9.58389 82.3953 9.58389C79.4138 9.58389 77.7174 10.689 77.7174 12.4366C77.7174 14.6467 79.4395 14.9551 83.1664 15.4177C88.0242 16.0088 91.1343 16.8569 91.1343 21.0203C91.1343 24.464 88.2299 26.5714 82.7809 26.5714Z" fill="white"/>
<path d="M63.6237 26.5714C57.2494 26.5714 53.3426 22.7421 53.3426 16.9854C53.3426 11.203 57.2751 7.39941 63.6237 7.39941C68.8928 7.39941 72.4912 9.96938 73.1337 13.9014H70.0237C69.4582 11.46 66.9393 9.89229 63.6237 9.89229C59.2028 9.89229 56.4783 12.5137 56.4783 16.9854C56.4783 21.4315 59.2028 24.0528 63.6237 24.0528C67.0165 24.0528 69.5353 22.4594 70.0494 19.9923L73.1337 20.018C72.5683 24.0014 68.7385 26.5714 63.6237 26.5714Z" fill="white"/>
</svg>
