<svg width="360" height="400" viewBox="0 0 360 400" fill="none" xmlns="http://www.w3.org/2000/svg">
<g clip-path="url(#clip0_2048_1508)">
<g filter="url(#filter0_f_2048_1508)">
<path d="M351.782 5.09182C573.369 -32.3719 750.693 -151.358 747.846 -260.67C744.998 -369.983 563.059 -428.228 341.472 -390.765C119.885 -353.301 -57.4387 -234.315 -54.5915 -125.002C-51.7443 -15.6897 130.195 42.5555 351.782 5.09182Z" fill="#0C43C4"/>
</g>
<g filter="url(#filter1_f_2048_1508)">
<path d="M-59.008 7.17645C44.8171 7.17645 128.984 -89.2222 128.984 -208.136C128.984 -327.05 44.8171 -423.448 -59.008 -423.448C-162.833 -423.448 -247 -327.05 -247 -208.136C-247 -89.2222 -162.833 7.17645 -59.008 7.17645Z" fill="#99E1D9"/>
</g>
</g>
<defs>
<filter id="filter0_f_2048_1508" x="-204.625" y="-552.123" width="1102.5" height="718.573" filterUnits="userSpaceOnUse" color-interpolation-filters="sRGB">
<feFlood flood-opacity="0" result="BackgroundImageFix"/>
<feBlend mode="normal" in="SourceGraphic" in2="BackgroundImageFix" result="shape"/>
<feGaussianBlur stdDeviation="75" result="effect1_foregroundBlur_2048_1508"/>
</filter>
<filter id="filter1_f_2048_1508" x="-347" y="-523.448" width="575.984" height="630.625" filterUnits="userSpaceOnUse" color-interpolation-filters="sRGB">
<feFlood flood-opacity="0" result="BackgroundImageFix"/>
<feBlend mode="normal" in="SourceGraphic" in2="BackgroundImageFix" result="shape"/>
<feGaussianBlur stdDeviation="50" result="effect1_foregroundBlur_2048_1508"/>
</filter>
<clipPath id="clip0_2048_1508">
<rect width="360" height="400" fill="white"/>
</clipPath>
</defs>
</svg>
