<svg aria-hidden="true" xmlns="http://www.w3.org/2000/svg" xmlns:xlink="http://www.w3.org/1999/xlink"><symbol viewBox="0 0 24 25" fill="none" id="arrow-left" xmlns="http://www.w3.org/2000/svg">
<path d="M6.08 12.3839C6.12759 12.2611 6.19896 12.149 6.29 12.0539L11.29 7.05386C11.3832 6.96062 11.4939 6.88666 11.6158 6.8362C11.7376 6.78574 11.8681 6.75977 12 6.75977C12.2663 6.75977 12.5217 6.86555 12.71 7.05386C12.8032 7.1471 12.8772 7.25779 12.9277 7.37961C12.9781 7.50143 13.0041 7.632 13.0041 7.76386C13.0041 8.03016 12.8983 8.28555 12.71 8.47386L9.41 11.7639H17C17.2652 11.7639 17.5196 11.8692 17.7071 12.0568C17.8946 12.2443 18 12.4986 18 12.7639C18 13.0291 17.8946 13.2834 17.7071 13.471C17.5196 13.6585 17.2652 13.7639 17 13.7639H9.41L12.71 17.0539C12.8037 17.1468 12.8781 17.2574 12.9289 17.3793C12.9797 17.5011 13.0058 17.6318 13.0058 17.7639C13.0058 17.8959 12.9797 18.0266 12.9289 18.1484C12.8781 18.2703 12.8037 18.3809 12.71 18.4739C12.617 18.5676 12.5064 18.642 12.3846 18.6927C12.2627 18.7435 12.132 18.7697 12 18.7697C11.868 18.7697 11.7373 18.7435 11.6154 18.6927C11.4936 18.642 11.383 18.5676 11.29 18.4739L6.29 13.4739C6.19896 13.3788 6.12759 13.2666 6.08 13.1439C5.97998 12.9004 5.97998 12.6273 6.08 12.3839Z" fill="currentColor"/>
</symbol><symbol viewBox="0 0 24 25" fill="none" id="arrow-right" xmlns="http://www.w3.org/2000/svg">
<path d="M17.92 12.3839C17.8724 12.2611 17.801 12.149 17.71 12.0539L12.71 7.05386C12.6168 6.96062 12.5061 6.88666 12.3842 6.8362C12.2624 6.78574 12.1319 6.75977 12 6.75977C11.7337 6.75977 11.4783 6.86555 11.29 7.05386C11.1968 7.1471 11.1228 7.25779 11.0723 7.37961C11.0219 7.50143 10.9959 7.632 10.9959 7.76386C10.9959 8.03016 11.1017 8.28555 11.29 8.47386L14.59 11.7639H7C6.73478 11.7639 6.48043 11.8692 6.29289 12.0568C6.10536 12.2443 6 12.4986 6 12.7639C6 13.0291 6.10536 13.2834 6.29289 13.471C6.48043 13.6585 6.73478 13.7639 7 13.7639H14.59L11.29 17.0539C11.1963 17.1468 11.1219 17.2574 11.0711 17.3793C11.0203 17.5011 10.9942 17.6318 10.9942 17.7639C10.9942 17.8959 11.0203 18.0266 11.0711 18.1484C11.1219 18.2703 11.1963 18.3809 11.29 18.4739C11.383 18.5676 11.4936 18.642 11.6154 18.6927C11.7373 18.7435 11.868 18.7697 12 18.7697C12.132 18.7697 12.2627 18.7435 12.3846 18.6927C12.5064 18.642 12.617 18.5676 12.71 18.4739L17.71 13.4739C17.801 13.3788 17.8724 13.2666 17.92 13.1439C18.02 12.9004 18.02 12.6273 17.92 12.3839Z" fill="currentColor"/>
</symbol><symbol viewBox="0 0 16 16" fill="none" id="link" xmlns="http://www.w3.org/2000/svg">
<path fill-rule="evenodd" clip-rule="evenodd" d="M7.70421 9.70711L13.9971 3.41421V7H15.9971V0H8.9971V2H12.5829L6.28999 8.29289L7.70421 9.70711ZM15 14V10H13V14H2V3H6V1H2C0.89543 1 0 1.89543 0 3V14C0 15.1046 0.89543 16 2 16H13C14.1046 16 15 15.1046 15 14Z" fill="currentColor"/>
</symbol><symbol viewBox="0 0 46 37" fill="none" id="quotes" xmlns="http://www.w3.org/2000/svg">
<path d="M0 37V26.9561C0 23.8543 0.538871 20.654 1.61661 17.3553C2.74334 14.0073 4.28648 10.8317 6.24601 7.82834C8.25453 4.77578 10.5325 2.16633 13.0799 0L21.8978 5.53892C19.9382 8.64072 18.3216 11.9148 17.0479 15.3613C15.8232 18.7585 15.2109 22.5988 15.2109 26.8822V37H0ZM24.1022 37V26.9561C24.1022 23.8543 24.6411 20.654 25.7189 17.3553C26.8456 14.0073 28.3887 10.8317 30.3482 7.82834C32.3568 4.77578 34.6347 2.16633 37.1821 0L46 5.53892C44.0405 8.64072 42.4239 11.9148 41.1502 15.3613C39.9255 18.7585 39.3131 22.5988 39.3131 26.8822V37H24.1022Z" fill="currentColor"/>
</symbol></svg>