<svg width="1920" height="250" viewBox="0 0 1920 250" fill="none" xmlns="http://www.w3.org/2000/svg">
<g clip-path="url(#clip0_2049_1666)">
<g opacity="0.4">
<g opacity="0.6" filter="url(#filter0_f_2049_1666)">
<path d="M649.601 197.208C753.567 166.616 922.183 209.023 986.065 283.968C1049.12 359.035 1006.61 466.762 1087.44 552.048C1168.27 637.334 1371.61 700.3 1395.02 739.639C1419.01 779.505 1261.68 795.339 1166.24 824.064C1070.23 852.262 1036.93 893.23 968.579 894.738C899.975 896.894 797.461 860.646 714.258 830.722C630.228 800.921 566.905 777.85 434.327 762.532C301.749 747.215 100.742 739.53 36.1235 701.98C-28.7512 665.078 41.9351 598.434 135.291 565.125C228.648 531.817 343.532 530.791 402.002 514.846C460.471 498.9 463.353 467.914 483.881 400.098C504.409 332.282 545.379 228.449 649.601 197.208Z" fill="url(#paint0_linear_2049_1666)"/>
</g>
<g filter="url(#filter1_f_2049_1666)">
<path d="M222.856 776.84C93.9407 759.711 -4.59414 674.49 28.8062 605.451C63.0857 536.624 230.18 484.191 260.979 402.792C291.778 321.394 187.162 211.242 213.661 178.528C240.287 145.285 398.781 190.22 517.898 205.545C636.887 221.397 715.619 207.427 778.021 230.301C841.429 252.858 888.762 311.203 926.575 358.872C965.267 406.753 993.688 443.217 1092.82 498.973C1191.95 554.728 1360.91 629.562 1373.08 675.516C1386.26 721.154 1243.54 738.124 1120.77 726.387C997.995 714.65 894.917 675.261 823.929 664.841C752.94 654.422 713.162 672.76 613.497 707.938C513.833 743.116 352.778 793.654 222.856 776.84Z" fill="#0C43C4"/>
</g>
<g style="mix-blend-mode:color-dodge" opacity="0.9" filter="url(#filter2_f_2049_1666)">
<path d="M1085.25 902.965C1035.08 967.592 855.32 982.947 724.274 931.525C593.756 879.708 512.476 760.717 356.865 704.929C201.254 649.141 -28.1592 656.161 -88.8824 625.775C-150.624 595.068 -42.1288 526.881 3.24831 466.929C49.644 407.298 32.3925 356.299 85.2676 331.898C137.653 306.78 258.128 307.62 356.447 308.79C455.296 309.564 530.441 310.744 652.506 281.147C774.572 251.55 943.03 191.571 1034.69 206.392C1125.85 220.497 1140.75 309.005 1101.93 372.712C1063.12 436.419 972.631 475.967 943.066 511.089C913.5 546.21 944.33 577.301 1000.46 650.116C1056.6 722.932 1134.94 837.622 1085.25 902.965Z" fill="url(#paint1_linear_2049_1666)"/>
</g>
</g>
<g filter="url(#filter3_f_2049_1666)">
<path d="M1798.57 251.331C1742.67 251.331 1651.6 222.013 1650.03 239.604C1648.08 257.195 1736.03 321.303 1775.9 362.739C1815.37 404.175 1807.17 422.939 1803.65 449.13C1800.13 475.711 1801.69 510.111 1817.72 549.984C1833.74 589.856 1864.23 635.201 1886.12 619.956C1907.62 605.101 1920.91 529.266 1953.74 499.166C1986.58 469.066 2038.95 484.311 2044.43 472.975C2049.51 461.639 2007.29 423.721 1990.49 395.576C1973.29 367.821 1981.1 349.449 1985.4 321.694C1989.7 294.331 1990.09 257.195 1974.46 233.74C1958.43 210.286 1926.77 200.904 1900.58 211.068C1874.4 221.231 1854.46 250.94 1798.57 251.331Z" fill="#F8333C"/>
</g>
</g>
<defs>
<filter id="filter0_f_2049_1666" x="-89" y="87.1836" width="1586.48" height="907.646" filterUnits="userSpaceOnUse" color-interpolation-filters="sRGB">
<feFlood flood-opacity="0" result="BackgroundImageFix"/>
<feBlend mode="normal" in="SourceGraphic" in2="BackgroundImageFix" result="shape"/>
<feGaussianBlur stdDeviation="50" result="effect1_foregroundBlur_2049_1666"/>
</filter>
<filter id="filter1_f_2049_1666" x="-77.7578" y="66.5586" width="1551.69" height="813.612" filterUnits="userSpaceOnUse" color-interpolation-filters="sRGB">
<feFlood flood-opacity="0" result="BackgroundImageFix"/>
<feBlend mode="normal" in="SourceGraphic" in2="BackgroundImageFix" result="shape"/>
<feGaussianBlur stdDeviation="50" result="effect1_foregroundBlur_2049_1666"/>
</filter>
<filter id="filter2_f_2049_1666" x="-207.42" y="104.075" width="1429.43" height="958.231" filterUnits="userSpaceOnUse" color-interpolation-filters="sRGB">
<feFlood flood-opacity="0" result="BackgroundImageFix"/>
<feBlend mode="normal" in="SourceGraphic" in2="BackgroundImageFix" result="shape"/>
<feGaussianBlur stdDeviation="50" result="effect1_foregroundBlur_2049_1666"/>
</filter>
<filter id="filter3_f_2049_1666" x="1550" y="107.002" width="594.846" height="615.979" filterUnits="userSpaceOnUse" color-interpolation-filters="sRGB">
<feFlood flood-opacity="0" result="BackgroundImageFix"/>
<feBlend mode="normal" in="SourceGraphic" in2="BackgroundImageFix" result="shape"/>
<feGaussianBlur stdDeviation="50" result="effect1_foregroundBlur_2049_1666"/>
</filter>
<linearGradient id="paint0_linear_2049_1666" x1="322.056" y1="968.73" x2="946.647" y2="241.699" gradientUnits="userSpaceOnUse">
<stop stop-color="#99E1D9"/>
<stop offset="1" stop-color="#3B736D"/>
</linearGradient>
<linearGradient id="paint1_linear_2049_1666" x1="521.573" y1="43.0187" x2="297.409" y2="812.771" gradientUnits="userSpaceOnUse">
<stop stop-color="#99E1D9"/>
<stop offset="1" stop-color="#3B736D"/>
</linearGradient>
<clipPath id="clip0_2049_1666">
<rect width="1920" height="250" fill="white"/>
</clipPath>
</defs>
</svg>
