<svg width="700" height="286" viewBox="0 0 700 286" fill="none" xmlns="http://www.w3.org/2000/svg">
<mask id="mask0_232_2612" style="mask-type:alpha" maskUnits="userSpaceOnUse" x="0" y="0" width="700" height="286">
<path d="M699.575 175.2V227.2H669.975V280.8H614.775V227.2H497.575L484.375 182.4L609.575 4.7998H669.975V175.2H699.575ZM544.375 175.2H614.775V74.3998L544.375 175.2Z" fill="black"/>
<path d="M351.984 285.6C288.384 285.6 243.584 227.2 243.584 142.8C243.584 58.4 288.384 0 351.984 0C415.984 0 460.384 58.4 460.384 142.8C460.384 227.2 415.984 285.6 351.984 285.6ZM351.984 232.4C382.384 232.4 403.584 195.6 403.584 142.8C403.584 90 382.384 53.2 351.984 53.2C321.984 53.2 300.384 90 300.384 142.8C300.384 195.6 321.984 232.4 351.984 232.4Z" fill="black"/>
<path d="M215.2 175.2V227.2H185.6V280.8H130.4V227.2H13.2L0 182.4L125.2 4.7998H185.6V175.2H215.2ZM60 175.2H130.4V74.3998L60 175.2Z" fill="black"/>
</mask>
<g mask="url(#mask0_232_2612)">
<path d="M866.009 1.00008C837.494 0.453079 809.981 -10.6419 783.708 -20.7279C757.77 -30.6849 731.66 -41.9809 704.191 -47.0009C684.355 -50.6259 664.608 -48.7889 645.627 -42.1009C630.548 -36.7879 616.511 -29.0129 601.665 -23.1369C587.359 -17.4739 572.347 -13.9339 556.897 -13.9899C539.002 -14.0549 521.957 -20.7609 506.174 -28.6539C474.807 -44.3399 444.147 -69.2339 408.142 -72.6559C373.856 -75.9149 342.056 -55.5659 312.783 -40.7059C297.629 -33.0129 281.979 -25.6059 265.264 -22.0429C249.07 -18.5909 232.632 -20.0409 216.636 -23.8469C182.485 -31.9709 151.295 -49.4219 116.954 -56.8849C102.077 -60.1179 85.0384 -62.1889 70.2864 -57.2449C60.6404 -54.0119 54.1284 -47.3169 47.9294 -39.5839C41.4694 -31.5249 34.6714 -24.5619 24.5054 -21.4419C8.33636 -16.4789 -10.3796 -19.1099 -26.4966 -22.9729C-63.2896 -31.7929 -96.3156 -51.5179 -135.016 -51.9879C-135.003 -52.3879 -135 -52.5879 -135 -52.9879C-96.3006 -52.5139 -63.2636 -32.7949 -26.4706 -23.9749C-10.3176 -20.1029 8.41237 -17.4889 24.6164 -22.4579C34.7664 -25.5709 41.5214 -32.5049 47.9304 -40.5819C54.0784 -48.3309 60.5494 -54.9989 70.1784 -58.2249C84.9704 -63.1789 102.032 -61.1149 116.95 -57.8719C151.282 -50.4089 182.469 -32.9779 216.611 -24.8559C232.59 -21.0539 249.005 -19.5879 265.182 -23.0439C281.907 -26.6169 297.574 -34.0259 312.747 -41.7069C342.022 -56.5259 373.885 -76.9069 408.149 -73.6589C444.156 -70.2459 474.822 -45.3379 506.188 -29.6499C521.965 -21.7589 539.016 -15.0419 556.908 -14.9899C572.378 -14.9449 587.422 -18.4709 601.745 -24.1499C616.53 -30.0119 630.5 -37.7809 645.519 -43.0779C664.5 -49.7729 684.301 -51.6289 704.14 -48.0069C731.624 -42.9899 757.75 -31.6789 783.701 -21.7159C809.965 -11.6329 837.488 -0.510925 865.998 0.0100784C865.998 0.41008 866 0.607079 866.007 0.996078L866.009 1.00008Z" fill="url(#paint0_linear_232_2612)"/>
<path d="M867.63 11.4425C839.48 10.7135 812.455 0.126526 786.477 -9.82147C760.568 -19.7435 734.496 -30.9935 707.033 -35.8615C687.43 -39.3365 668.357 -37.3995 649.564 -31.0585C632.434 -25.2785 616.341 -16.9065 599.419 -10.5955C584.816 -5.14948 569.583 -1.41547 553.906 -1.75347C536.104 -2.13747 519.192 -8.90947 503.492 -16.8045C472.417 -32.4315 441.92 -56.8855 406.188 -60.1515C372.391 -63.2405 342.476 -43.5525 314.099 -28.1755C299.685 -20.3645 284.731 -13.0125 268.607 -9.52547C252.413 -6.02248 235.876 -7.33147 219.859 -11.1235C185.616 -19.2315 154.444 -36.8935 120.094 -44.6355C105.293 -47.9715 88.501 -50.0765 73.718 -45.5185C63.034 -42.2245 55.165 -35.0195 47.549 -27.1745C39.861 -19.2545 31.996 -11.8785 21.218 -8.49347C5.34604 -3.50947 -13.083 -6.05947 -28.947 -9.80447C-46.861 -14.0335 -63.804 -21.3055 -81.076 -27.5115C-99.471 -34.1205 -118.147 -38.8725 -137.793 -39.0915C-137.634 -39.5085 -137.557 -39.7175 -137.409 -40.1345C-117.758 -39.9145 -99.075 -35.1625 -80.673 -28.5585C-63.389 -22.3555 -46.433 -15.0875 -28.509 -10.8595C-12.656 -7.12048 5.78703 -4.55547 21.647 -9.54747C32.335 -12.9115 40.064 -20.2485 47.615 -28.1655C55.096 -36.0095 62.833 -43.1745 73.428 -46.4485C88.198 -51.0135 105 -48.8955 119.79 -45.5665C154.115 -37.8395 185.271 -20.2115 219.49 -12.1195C235.509 -8.33147 252.038 -7.02747 268.234 -10.5245C284.422 -14.0195 299.452 -21.3735 313.947 -29.1725C342.433 -44.4995 372.544 -64.2385 406.405 -61.1455C442.148 -57.8795 472.658 -33.4045 503.74 -17.7685C519.441 -9.87048 536.357 -3.08947 554.162 -2.70847C569.787 -2.37447 584.97 -6.07147 599.519 -11.5205C616.283 -17.7995 632.211 -26.1465 649.184 -31.8925C667.928 -38.2385 686.989 -40.1445 706.544 -36.6755C734.059 -31.7945 760.183 -20.5145 786.141 -10.5725C812.15 -0.610474 839.219 10.0155 867.405 10.7375C867.492 11.0235 867.537 11.1635 867.629 11.4405L867.63 11.4425Z" fill="url(#paint1_linear_232_2612)"/>
<path d="M871.52 18.576C844.285 17.867 818.228 7.99899 793.063 -1.59401C768.105 -11.109 743.062 -21.839 716.655 -26.66C695.442 -30.533 675.189 -27.948 654.823 -21.319C635.477 -15.022 617.014 -6.35401 597.826 0.377987C582.339 5.81199 566.173 10.048 549.64 9.71799C532.076 9.36799 515.374 2.85999 499.836 -4.85901C468.454 -20.449 437.704 -45.177 401.625 -48.084C369.342 -50.685 342.86 -31.965 316.662 -16.023C303.698 -8.13501 290.132 -0.851013 275.24 2.59999C258.554 6.46599 241.36 4.81899 224.891 0.696987C190.641 -7.87501 159.452 -25.765 124.986 -33.616C109.916 -37.049 93.3441 -38.832 78.2901 -34.385C65.8911 -30.722 55.8431 -22.823 46.0191 -14.741C36.3051 -6.75001 26.3451 1.03699 14.1001 4.68899C-2.01289 9.49499 -20.1659 7.31199 -36.2519 3.48699C-53.4189 -0.595013 -69.6599 -7.57501 -86.1549 -13.694C-105.05 -20.703 -124.192 -25.842 -144.463 -26.065C-144.192 -26.498 -144.058 -26.715 -143.794 -27.148C-123.513 -26.925 -104.357 -21.787 -85.4479 -14.785C-68.9359 -8.67001 -52.6769 -1.69501 -35.4949 2.38499C-19.4529 6.19399 -1.29291 8.41199 14.7771 3.59999C26.8651 -0.0200119 36.6281 -7.76201 46.1431 -15.735C55.7671 -23.799 65.6141 -31.651 77.8551 -35.282C92.8601 -39.733 109.428 -37.923 124.45 -34.509C158.879 -26.685 190.043 -8.83801 224.257 -0.29401C240.745 3.82299 257.94 5.44599 274.644 1.59599C289.641 -1.86101 303.328 -9.14701 316.421 -17.023C342.816 -32.9 369.6 -51.69 402.005 -49.076C438.103 -46.164 468.87 -21.407 500.265 -5.80201C515.808 1.92399 532.515 8.43999 550.086 8.79199C566.512 9.12099 582.562 4.93899 597.942 -0.486012C616.899 -7.17301 635.125 -15.8 654.243 -22.051C674.524 -28.682 694.705 -31.198 715.831 -27.332C742.32 -22.484 767.442 -11.714 792.478 -2.16701C817.701 7.45199 843.83 17.369 871.13 18.085C871.284 18.285 871.362 18.383 871.521 18.577L871.52 18.576Z" fill="url(#paint2_linear_232_2612)"/>
<path d="M876.938 23.484C824.218 22.339 778.591 -10.602 727.397 -19.389C682.158 -27.155 639.51 -3.95695 597.807 9.94904C580.263 15.799 561.821 21.043 543.159 20.66C525.993 20.307 509.613 14.045 494.382 6.57504C462.934 -8.84596 432.231 -33.503 396.142 -36.237C381.438 -37.351 367.01 -33.963 353.977 -27.199C341.515 -20.732 330.667 -11.715 319.292 -3.59095C308.248 4.29805 296.498 11.364 283.201 14.658C267.082 18.651 250.194 16.718 234.287 12.675C199.266 3.77605 167.523 -14.899 132.304 -23.15C116.042 -26.96 98.896 -28.277 82.715 -23.401C69.073 -19.29 57.095 -11.449 45.366 -3.58895C32.64 4.94005 19.734 13.664 4.82401 17.874C-12.062 22.641 -30.361 20.882 -47.195 16.751C-64.28 12.558 -80.386 5.41705 -96.795 -0.775955C-115.223 -7.73195 -133.94 -12.728 -153.75 -12.953C-153.403 -13.401 -153.231 -13.625 -152.888 -14.073C-133.019 -13.848 -114.257 -8.83195 -95.769 -1.86295C-79.305 4.34405 -63.139 11.491 -45.989 15.664C-29.176 19.755 -10.861 21.514 5.97701 16.663C20.344 12.523 32.778 4.08505 44.997 -4.24395C56.793 -12.2859 68.843 -20.341 82.671 -24.431C98.866 -29.221 116.089 -27.727 132.316 -23.861C167.513 -15.476 199.273 3.20605 234.375 11.903C249.67 15.692 265.811 17.451 281.328 13.908C295.497 10.673 308.012 3.16404 319.75 -5.14796C330.78 -12.958 341.389 -21.492 353.403 -27.792C367.141 -34.996 382.422 -38.573 397.946 -37.13C433.282 -33.846 463.353 -9.98295 494.215 5.27805C509.852 13.01 526.617 19.465 544.276 19.74C562.405 20.023 580.292 14.997 597.343 9.30904C638.824 -4.52896 681.007 -27.689 726.029 -20.032C777.539 -11.272 823.418 21.946 876.436 23.124C876.636 23.269 876.736 23.341 876.939 23.482L876.938 23.484Z" fill="url(#paint3_linear_232_2612)"/>
<path d="M883.139 27.2488C832.531 26.4888 788.999 -5.07924 739.792 -12.9032C716.846 -16.5512 694.529 -12.0812 672.482 -5.66524C646.386 1.92876 621.052 11.8738 595.114 19.9628C576.087 25.8968 555.916 31.7418 535.79 31.3318C518.19 30.9738 501.409 24.3928 485.835 16.6818C455.495 1.66076 425.787 -21.5032 390.996 -24.4342C377.156 -25.6002 363.508 -22.8692 351.596 -15.6332C341.211 -9.32424 332.802 -0.461239 323.834 7.61076C314.563 15.9558 304.435 23.2818 292.237 26.6028C276.797 30.8058 260.159 28.4468 244.924 24.5028C209.077 15.2228 176.739 -4.28724 140.715 -12.9982C123.771 -17.0952 106.568 -17.9762 89.6572 -13.2652C72.9852 -8.62024 57.8152 0.0587578 42.8692 8.55776C27.3922 17.3588 11.6972 26.4298 -5.62276 31.0848C-23.3718 35.8538 -41.9488 34.5998 -59.6258 30.1058C-76.5918 25.7928 -92.5318 18.4798 -108.817 12.2108C-126.78 5.29576 -145.033 0.436762 -164.385 0.203762C-164.004 -0.257238 -163.813 -0.488237 -163.432 -0.949238C-144.023 -0.717237 -125.718 4.16276 -107.7 11.0888C-91.3578 17.3708 -75.3558 24.6898 -58.3248 28.9828C-40.6598 33.4358 -22.0628 34.6808 -4.35077 29.8348C12.7492 25.1558 28.1942 16.0828 43.4422 7.29876C58.1592 -1.17824 73.1263 -9.79524 89.6212 -14.3112C106.53 -18.9412 123.759 -17.8652 140.65 -13.7152C175.878 -5.05924 207.612 13.7728 242.624 23.1138C258.009 27.2188 274.708 29.7158 290.4 25.8238C302.854 22.7348 313.334 15.4678 322.867 7.13776C332.081 -0.91424 340.671 -9.82724 351.172 -16.2562C363.412 -23.7502 377.46 -26.6862 391.725 -25.4502C427.039 -22.3902 457.063 1.40376 487.956 16.4688C503.62 24.1078 520.488 30.4268 538.143 30.4158C557.848 30.4038 577.439 24.7328 596.075 18.8638C621.249 10.9358 645.85 1.25776 671.182 -6.17824C693.664 -12.7772 716.293 -17.1992 739.677 -13.2892C788.64 -5.10224 832.138 26.1468 882.582 26.9368C882.804 27.0618 882.916 27.1238 883.139 27.2488Z" fill="url(#paint4_linear_232_2612)"/>
<path d="M889.385 30.9532C841.825 30.5732 800.992 1.57515 754.891 -6.03885C730.142 -10.1269 705.837 -4.85085 682 1.79315C652.856 9.91615 624.407 20.3061 595.44 29.0131C574.294 35.3691 551.844 42.1171 529.553 41.9981C511.941 41.9041 495.113 35.5141 479.49 27.8871C449.393 13.1941 420.128 -9.49285 385.78 -12.6509C372.318 -13.8889 358.796 -11.6358 347.93 -3.19885C339.666 3.21715 333.787 11.9751 327.125 19.9081C320.127 28.2401 311.984 35.3691 301.366 38.5401C286.616 42.9441 270.18 40.1632 255.629 36.3282C218.952 26.6632 186.023 6.31415 149.192 -2.86585C131.638 -7.24085 114.348 -7.74885 96.7761 -3.16185C77.3201 1.91615 59.2111 11.1571 41.3191 20.1131C22.7771 29.3941 4.0461 39.0972 -16.1409 44.2992C-34.3289 48.9862 -52.8469 48.3701 -70.9819 43.7521C-87.4709 39.5531 -102.927 32.3661 -118.673 26.0751C-136.879 18.8021 -155.361 13.6151 -175.088 13.3641C-174.717 12.8911 -174.53 12.6551 -174.155 12.1811C-154.371 12.4321 -135.837 17.6402 -117.576 24.9242C-101.774 31.2272 -86.2599 38.4201 -69.7059 42.5991C-51.5599 47.1801 -33.0169 47.7711 -14.8459 43.0131C4.68211 37.9002 22.8081 28.5001 40.7271 19.4361C58.4331 10.4801 76.3271 1.21815 95.5921 -3.92385C113.549 -8.71685 131.201 -8.15285 149.141 -3.61185C185.178 5.51015 217.514 25.1702 253.355 34.9021C268.083 38.9011 284.623 41.8461 299.651 37.7251C311.043 34.6011 319.718 27.1041 327.25 18.3101C334.084 10.3311 340.243 1.57315 348.786 -4.72885C359.424 -12.5768 372.434 -14.8349 385.417 -13.7849C420.286 -10.9649 449.988 12.2571 480.484 27.0871C496.142 34.7011 513.052 41.0771 530.7 41.0451C552.426 41.0061 574.206 34.5631 594.831 28.3631C623.564 19.7261 651.764 9.36415 680.657 1.25115C704.456 -5.43085 728.746 -10.7419 753.475 -6.68985C799.888 0.915146 840.983 30.1832 888.844 30.5942C889.063 30.7361 889.172 30.8082 889.388 30.9532H889.385Z" fill="url(#paint5_linear_232_2612)"/>
<path d="M894.929 35.6779C849.151 35.5399 810.123 7.77089 765.671 1.07689C740.133 -2.76911 714.695 3.30588 690.128 9.95788C657.04 18.9169 624.645 30.2179 591.702 39.6709C569.78 45.9609 546.469 52.8859 523.45 52.9139C505.809 52.9349 488.87 46.5509 473.211 38.9539C443.097 24.3439 413.715 1.70288 379.277 -0.903116C367.549 -1.79012 355.181 -0.262115 346.22 8.01288C339.139 14.5509 335.372 23.6149 330.589 31.7809C325.59 40.3149 319.152 47.4689 309.49 50.6019C294.959 55.3129 278.12 51.8679 263.821 47.9249C227.153 37.8119 194.225 17.3099 157.383 7.72788C138.515 2.82088 120.326 2.74888 101.444 7.69288C80.3552 13.2139 60.4002 22.5059 40.6342 31.5209C19.2312 41.2829 -2.3268 51.6039 -25.2258 57.3929C-44.1448 62.1759 -63.0438 62.0189 -81.9128 57.0909C-98.3498 52.7979 -113.684 45.4389 -129.36 39.0559C-147.156 31.8089 -165.261 26.7409 -184.592 26.4869C-184.279 26.0039 -184.12 25.7619 -183.799 25.2789C-164.456 25.5329 -146.336 30.5999 -128.523 37.8379C-112.826 44.2169 -97.4718 51.5699 -81.0168 55.8599C-62.1888 60.7689 -43.3088 60.9619 -24.4308 56.1789C-1.7478 50.4319 19.5832 40.1519 40.7582 30.4229C60.3142 21.4379 80.0612 12.1839 100.95 6.70089C119.773 1.75989 137.937 1.86189 156.748 6.74389C193.547 16.2939 226.445 36.7469 263.071 46.8259C277.405 50.7699 294.219 54.1709 308.786 49.4879C318.534 46.3539 325.122 39.1989 330.302 30.6709C335.264 22.5009 339.232 13.4359 346.446 6.90889C355.535 -1.31411 367.917 -2.90011 379.728 -2.00411C414.188 0.608886 443.591 23.2829 473.719 37.9099C489.384 45.5149 506.33 51.9099 523.98 51.8919C546.871 51.8679 570.04 44.9959 591.836 38.7239C624.504 29.3239 656.622 18.0729 689.436 9.16688C713.918 2.52288 739.248 -3.49311 764.697 0.356886C809.318 7.10689 848.515 35.0189 894.468 35.1709C894.656 35.3709 894.748 35.4719 894.931 35.6789L894.929 35.6779Z" fill="url(#paint6_linear_232_2612)"/>
<path d="M899.03 42.505C854.468 42.39 816.689 15.601 773.325 9.66903C747.14 6.08703 720.968 12.737 695.805 19.442C660.519 28.845 625.871 40.465 590.717 50.33C567.534 56.835 542.734 64.388 518.418 64.299C501.419 64.237 485.098 58.328 469.927 51.116C439.501 36.653 410.091 13.866 375.445 11.206C364.151 10.339 351.261 11.389 343.532 20.72C338.052 27.336 336.231 36.047 333.23 43.888C330.002 52.323 325.109 59.479 316.3 62.68C302.01 67.873 284.7 64.004 270.6 60.052C233.134 49.549 199.612 28.189 161.886 18.469C142.713 13.529 124.602 13.948 105.455 18.931C82.7619 24.836 61.104 34.361 39.604 43.562C16.321 53.526 -7.09105 64.096 -31.72 70.328C-51.181 75.252 -70.433 75.488 -89.863 70.345C-106.32 65.989 -121.618 58.442 -137.288 51.963C-154.784 44.73 -172.581 39.772 -191.623 39.523C-191.42 39.031 -191.315 38.785 -191.098 38.293C-172.05 38.543 -154.242 43.501 -136.736 50.727C-121.05 57.202 -105.736 64.744 -89.266 69.099C-69.85 74.233 -50.601 74.014 -31.155 69.087C-6.68304 62.887 16.565 52.347 39.683 42.405C61.0309 33.224 82.5389 23.727 105.087 17.851C124.213 12.867 142.317 12.464 161.47 17.392C199.163 27.09 232.664 48.41 270.098 58.89C284.215 62.842 301.497 66.687 315.805 61.512C324.658 58.31 329.661 51.156 333.027 42.723C336.16 34.874 338.134 26.164 343.706 19.559C351.537 10.276 364.389 9.17403 375.741 10.046C410.402 12.707 439.828 35.521 470.264 49.997C485.437 57.214 501.763 63.132 518.767 63.192C543.01 63.278 567.726 55.764 590.838 49.266C625.786 39.441 660.226 27.858 695.306 18.496C720.414 11.795 746.534 5.17304 772.663 8.75604C816.144 14.719 854.038 41.635 898.722 41.739C898.848 42.04 898.91 42.193 899.028 42.505H899.03Z" fill="url(#paint7_linear_232_2612)"/>
<path d="M900.946 52.5181C857.373 52.1241 820.516 26.6821 778.139 20.7381C751.254 16.9671 724.58 23.8351 698.729 30.6731C662.675 40.2111 627.2 51.7901 591.278 61.7991C567.237 68.4981 541.503 76.6141 516.295 76.4541C499.015 76.3441 482.444 70.3101 467.033 62.9521C436.867 48.5491 407.631 26.2011 373.241 23.6651C362.374 22.8631 348.927 23.5321 341.987 33.2601C337.211 39.9541 336.627 48.6331 334.67 56.3731C332.53 64.8361 328.467 71.9471 319.914 75.1561C305.789 80.4551 288.238 76.6301 274.282 72.7331C236.688 62.2331 203.159 40.6741 165.413 30.6311C146.585 25.6221 128.607 25.7181 109.723 30.4481C84.9897 36.6441 61.3416 46.8521 37.8336 56.5531C13.4827 66.6011 -11.0043 77.2941 -36.6543 83.6181C-55.8693 88.3551 -74.9253 88.4191 -94.0553 83.2531C-110.33 78.8581 -125.419 71.2851 -140.917 64.8231C-158.303 57.5731 -175.954 52.6661 -194.902 52.4351C-194.864 51.9371 -194.84 51.6871 -194.783 51.1891C-175.836 51.4231 -158.183 56.3321 -140.796 63.5771C-125.291 70.0371 -110.193 77.6071 -93.9123 82.0021C-74.7523 87.1741 -55.6743 87.0971 -36.4303 82.3531C-10.8453 76.0461 13.5717 65.3671 37.8517 55.3241C61.2917 45.6281 84.8717 35.4331 109.543 29.2541C128.462 24.5151 146.467 24.4121 165.329 29.4301C203.059 39.4681 236.582 61.0001 274.16 71.4941C288.098 75.3861 305.629 79.2271 319.735 73.9251C328.286 70.7111 332.386 63.5911 334.595 55.1431C336.62 47.3991 337.291 38.7211 342.103 32.0331C349.076 22.3411 362.426 21.6361 373.307 22.4351C407.702 24.9631 436.947 47.3301 467.114 61.7371C482.521 69.0951 499.098 75.1401 516.375 75.2381C541.596 75.3821 567.33 67.2861 591.384 60.5781C627.203 50.5901 662.573 39.0271 698.525 29.5111C724.368 22.6711 751.08 15.7891 777.961 19.5531C820.373 25.4931 857.267 51.0271 900.878 51.3781C900.911 51.8271 900.925 52.0551 900.947 52.5191L900.946 52.5181Z" fill="url(#paint8_linear_232_2612)"/>
<path d="M901 65.2407C857.122 64.7387 819.52 39.5517 776.786 33.5157C750.026 29.7357 723.316 36.6207 697.582 43.4237C662.557 52.6827 628.11 63.9747 593.217 73.7017C569.298 80.3697 543.674 88.3607 518.598 88.2707C501.364 88.2087 484.672 81.9957 469.27 74.7707C438.835 60.4937 409.103 38.2897 374.589 35.6427C363.492 34.7917 350.874 35.8837 343.451 45.2187C338.172 51.8577 336.588 60.5487 333.81 68.3547C330.834 76.7147 326.224 83.9027 317.574 87.1517C303.524 92.4287 286.156 88.4757 272.275 84.6267C235.082 74.3137 201.788 53.3007 164.449 43.4267C145.487 38.4127 127.249 38.2887 108.214 43.0837C84.109 49.1557 61.199 59.4857 38.458 69.3287C14.903 79.5247 -8.81599 90.3487 -33.816 96.5397C-53.065 101.307 -72.165 101.213 -91.324 96.1257C-126.57 86.7687 -157.512 65.6727 -195 65.2407V63.9677C-157.634 64.4007 -126.977 85.4857 -91.875 94.8417C-72.73 99.9447 -53.639 100.005 -34.403 95.2547C-9.269 89.0477 14.602 78.2377 38.313 68.0597C61.204 58.2337 84.26 47.9177 108.494 41.8307C127.528 37.0497 145.747 37.1477 164.706 42.1717C202.116 52.0837 235.457 73.1837 272.721 83.5367C286.598 87.3917 304.002 91.3517 318.049 86.0607C326.664 82.8157 331.159 75.6347 333.98 67.2657C336.608 59.4707 338.013 50.7827 343.191 44.1327C350.508 34.7347 363.223 33.7107 374.264 34.5557C408.744 37.1947 438.395 59.4157 468.777 73.7097C484.168 80.9507 500.838 87.1477 518.068 87.2147C543.193 87.3127 568.871 79.2847 592.837 72.6057C627.925 62.8277 662.567 51.4847 697.787 42.1737C723.557 35.3607 750.293 28.4557 777.092 32.2427C819.739 38.2687 857.202 63.4667 900.999 63.9677L901 65.2407Z" fill="url(#paint9_linear_232_2612)"/>
<path d="M901 78.0441C855.819 77.5231 816.291 52.4451 772.177 46.3191C746.128 42.7021 720.229 49.0001 695.153 55.6321C662.708 64.2131 630.847 74.8281 598.534 83.8741C575.578 90.3011 551.087 97.6801 527.028 97.6261C509.611 97.5871 492.623 91.3071 476.954 84.2391C445.723 70.1511 414.926 48.1651 379.841 45.4791C367.879 44.5641 355.664 46.4181 346.767 55.0681C340.046 61.6031 336.196 70.3321 331.428 78.2481C326.424 86.5561 320.159 93.7911 310.747 97.0791C296.448 102.075 279.532 98.5161 265.389 94.7301C229.15 85.0291 196.538 65.0811 160.165 55.7951C141.496 51.0291 123.315 50.6271 104.635 55.6181C82.348 61.5731 61.473 72.0471 40.809 82.0791C19.406 92.4701 -2.196 103.449 -25.316 109.514C-44.651 114.586 -63.87 113.921 -83.167 109.101C-120.775 99.7081 -155.399 78.4961 -195 78.0441V76.7411C-155.681 77.1901 -121.49 98.3901 -84.19 107.779C-64.905 112.633 -45.703 113.223 -26.373 108.193C-3.02299 102.117 18.839 91.1551 40.504 80.7851C61.422 70.7731 82.546 60.3141 105.055 54.3501C123.799 49.3831 142.003 49.7551 160.726 54.5581C197.215 63.9191 229.913 83.9901 266.266 93.7681C280.367 97.5611 297.332 101.183 311.591 96.1491C320.891 92.8661 326.954 85.6361 331.718 77.3221C336.249 69.4151 339.835 60.6921 346.376 54.1471C355.094 45.4231 367.308 43.6521 379.158 44.5601C414.167 47.2441 444.838 69.2571 475.969 83.3651C491.599 90.4481 508.551 96.7291 525.939 96.7681C550.14 96.8221 574.789 89.3631 597.88 82.9021C630.501 73.7741 662.672 63.0791 695.425 54.4161C720.591 47.7601 746.612 41.3751 772.758 45.0151C816.694 51.1321 855.987 76.2211 900.999 76.7401V78.0431L901 78.0441Z" fill="url(#paint10_linear_232_2612)"/>
<path d="M901 90.8467C853.806 90.3087 811.642 65.3327 765.435 59.1217C740.581 55.7807 716.196 60.9907 692.221 67.3367C663.224 75.0117 634.817 84.7207 605.954 92.8587C584.655 98.8637 562.113 105.288 539.796 105.205C522 105.139 504.607 98.9307 488.444 92.0117C456.053 78.1447 423.861 56.4397 387.87 53.7767C374.63 52.7967 361.869 55.4677 351.065 63.4017C342.227 69.8917 335.503 78.6647 328.106 86.6417C320.493 94.8517 311.94 102.159 301.055 105.523C286.282 110.088 269.783 107.289 255.134 103.604C220.185 94.8127 188.554 76.1957 153.487 67.7847C135.577 63.4887 117.767 62.7557 99.98 68.0447C80.197 73.9277 62.162 84.5707 44.387 94.8067C25.978 105.408 7.32901 116.566 -13.204 122.554C-32.492 128.179 -52.018 126.603 -71.373 122.157C-112.635 112.68 -151.978 91.3457 -195 90.8467V89.5137C-152.381 90.0077 -113.561 111.329 -72.724 120.796C-53.368 125.283 -33.889 126.751 -14.587 121.195C6.237 115.201 25.223 104.062 43.974 93.4837C62.079 83.2697 80.438 72.6457 100.503 66.7557C118.403 61.5017 136.26 62.1987 154.266 66.5497C189.48 75.0607 221.223 93.8287 256.318 102.722C270.91 106.42 287.442 109.306 302.163 104.694C312.865 101.341 321.16 94.0417 328.485 85.8187C335.587 77.8457 341.994 69.0757 350.585 62.5857C361.183 54.5807 373.846 51.9917 386.94 52.9657C422.825 55.6337 454.86 77.3697 487.118 91.2607C503.221 98.1947 520.569 104.416 538.319 104.477C560.842 104.555 583.615 98.0197 605.11 91.9637C634.362 83.7227 663.159 73.9117 692.544 66.1347C716.651 59.7547 741.214 54.4147 766.21 57.7877C812.174 63.9897 854.041 88.9757 901 89.5127V90.8457V90.8467Z" fill="url(#paint11_linear_232_2612)"/>
<path d="M901 103.65C851.368 103.094 806.198 78.2161 757.478 71.9251C734.149 68.9131 711.567 72.7761 689.004 78.7551C663.949 85.3941 639.494 94.0671 614.573 101.167C595.33 106.649 575.192 111.921 555.036 111.773C536.741 111.638 518.891 105.596 502.104 98.8191C468.345 85.1901 434.584 63.8021 397.482 61.1971C382.765 60.1641 368.7 63.5491 355.924 70.8701C344.511 77.4111 334.617 86.1651 324.25 94.1771C313.803 102.251 302.619 109.639 289.732 113.115C274.46 117.235 258.156 115.28 242.961 111.773C209.498 104.05 179.014 86.9251 145.448 79.5541C128.59 75.8521 111.26 74.7231 94.714 80.4071C77.747 86.2361 63.042 97.0821 48.666 107.517C33.773 118.328 18.597 129.686 0.970001 135.625C-18.044 142.032 -38.273 139.29 -57.502 135.254C-103.195 125.664 -147.744 104.215 -195 103.65V102.286C-148.218 102.844 -104.232 124.281 -59.031 133.859C-39.776 137.939 -19.647 140.547 -0.591003 134.233C17.348 128.29 32.91 116.954 48.193 106.165C62.95 95.7471 78.02 84.9361 95.29 79.0931C111.971 73.4491 129.367 74.5361 146.338 78.3071C180.067 85.8021 210.678 103.083 244.305 110.921C259.444 114.45 275.756 116.493 290.978 112.328C303.633 108.865 314.532 101.485 324.673 93.3961C334.715 85.3861 344.268 76.6301 355.391 70.0961C367.957 62.7151 381.863 59.4001 396.417 60.4281C433.395 63.0401 466.985 84.4631 500.593 98.1171C517.312 104.91 535.109 110.969 553.349 111.098C573.745 111.241 594.152 105.838 613.623 100.299C638.976 93.0851 663.865 84.2991 689.352 77.5461C712.076 71.5251 734.851 67.5131 758.354 70.5621C806.796 76.8451 851.638 101.733 900.998 102.287V103.651L901 103.65Z" fill="url(#paint12_linear_232_2612)"/>
<path d="M901 116.453C848.801 115.88 800.575 91.0949 749.221 84.7279C705.095 79.2569 664.954 97.3219 623.486 109.307C606.395 114.247 588.772 118.282 570.883 118.089C552.061 117.886 533.73 112.021 516.296 105.386C497.44 98.2089 479.139 89.6719 460.351 82.3229C443.435 75.7069 425.74 69.6079 407.481 68.3989C374.386 66.2069 347.317 85.3109 320.261 101.501C306.998 109.437 293.151 116.892 278.007 120.5C262.32 124.237 245.976 123.032 230.315 119.77C198.393 113.122 169.083 97.5919 137.072 91.2709C121.415 88.1789 104.405 86.5749 89.296 92.7549C75.066 98.5759 63.906 109.632 53.117 120.225C41.943 131.196 30.46 142.789 15.65 148.706C-2.79601 156.075 -24.273 152 -43.123 148.363C-69.111 143.349 -94.558 135.866 -120.172 129.282C-144.613 123 -169.626 116.765 -195 116.453V115.059C-169.841 115.368 -145.057 121.583 -120.839 127.875C-95.517 134.454 -70.365 141.935 -44.663 146.937C-25.757 150.616 -4.448 154.54 14.077 147.283C29.178 141.367 41.063 129.798 52.642 118.842C63.823 108.263 75.368 97.2299 89.881 91.4099C105.15 85.2869 122.181 86.8369 137.971 89.9929C170.149 96.4259 199.585 112.129 231.673 118.892C247.288 122.183 263.621 123.461 279.268 119.687C294.164 116.094 307.727 108.645 320.692 100.695C347.257 84.4039 373.656 65.4229 406.412 67.6059C424.615 68.8189 442.247 74.9259 459.097 81.5579C477.797 88.9189 496.007 97.4719 514.777 104.661C532.142 111.312 550.421 117.195 569.187 117.391C587.318 117.58 605.209 113.411 622.53 108.414C664.493 96.3069 705.465 77.7759 750.107 83.3349C801.178 89.6939 849.078 114.489 901 115.06V116.454V116.453Z" fill="url(#paint13_linear_232_2612)"/>
<path d="M901 129.256C846.41 128.666 795.382 103.972 741.582 97.5308C721.563 95.1348 702.05 96.4148 682.574 101.594C665.388 106.165 648.84 112.775 631.791 117.792C616.668 122.242 601.285 125.134 585.476 124.922C566.18 124.663 547.398 118.942 529.388 112.446C509.776 105.373 490.676 96.9738 471.128 89.7338C453.645 83.2588 435.415 77.2298 416.68 76.0488C380.52 73.7698 347.758 93.8388 316.547 109.262C300.733 117.077 284.443 124.57 267.114 128.316C251.133 131.771 234.648 131.105 218.647 128.125C188.171 122.449 159.943 108.474 129.392 103.099C114.901 100.55 97.868 98.4088 84.192 105.135C72.261 111.003 64.532 122.297 57.214 132.941C49.635 143.965 41.739 155.806 29.285 161.77C21.337 165.576 12.8 166.074 4.116 165.668C-7.269 165.136 -18.589 163.465 -29.795 161.449C-58.283 156.326 -86.294 148.832 -114.451 142.206C-140.813 136.004 -167.786 129.598 -195 129.256V127.832C-167.974 128.171 -141.202 134.56 -115.035 140.772C-87.144 147.394 -59.401 154.887 -31.176 159.998C-20.04 162.015 -8.78799 163.682 2.52901 164.212C11.273 164.622 19.846 164.088 27.869 160.32C40.551 154.364 48.831 142.554 56.793 131.527C64.48 120.88 72.576 109.615 84.731 103.756C98.559 97.0908 115.568 99.1698 130.181 101.774C160.885 107.245 189.225 121.388 219.853 127.163C235.823 130.174 252.293 130.889 268.247 127.407C285.347 123.675 301.383 116.186 316.935 108.359C347.721 92.8628 379.9 72.8888 415.734 75.1578C434.42 76.3408 452.596 82.3768 470.021 88.8668C489.489 96.1178 508.505 104.532 528.038 111.616C545.99 118.127 564.725 123.861 583.973 124.115C599.996 124.326 615.601 121.317 630.926 116.818C648.375 111.695 665.325 104.98 682.91 100.304C702.546 95.0828 722.184 93.6838 742.373 96.1088C795.919 102.541 846.658 127.246 901 127.834V129.258V129.256Z" fill="url(#paint14_linear_232_2612)"/>
<path d="M901 142.059C844.502 141.452 791.226 116.85 735.478 110.334C716.762 108.147 698.054 108.581 679.793 113.45C665.787 117.184 652.449 122.958 638.583 127.132C624.976 131.229 611.16 133.236 596.947 133.032C577.312 132.75 558.165 127.087 539.741 120.726C519.496 113.736 499.725 105.46 479.539 98.3082C461.62 91.9592 442.978 85.9802 423.879 84.8072C385.193 82.4312 347.92 103.259 313.507 118.103C295.658 125.802 277.405 133.325 258.28 137.202C242.136 140.475 225.596 140.089 209.401 137.365C180.126 132.44 152.77 119.852 123.432 115.2C109.844 113.046 92.38 110.369 79.861 117.593C69.507 123.567 64.788 135.153 60.427 145.675C55.911 156.571 51.169 168.715 40.32 174.79C32.946 178.919 24.531 179.112 16.291 178.731C4.422 178.182 -7.38501 176.48 -19.085 174.481C-49.654 169.259 -79.796 161.763 -110.07 155.104C-137.897 148.983 -166.379 142.421 -195 142.059V140.604C-166.509 140.965 -138.167 147.51 -110.476 153.641C-80.413 160.297 -50.484 167.794 -20.122 173.005C-8.46399 175.006 3.30101 176.705 15.128 177.252C23.408 177.635 31.818 177.411 39.244 173.314C50.231 167.253 55.298 155.146 60.121 144.227C64.778 133.684 69.806 122.133 80.297 116.173C92.921 109 110.319 111.618 123.987 113.807C153.446 118.526 180.887 131.259 210.281 136.254C226.463 139.004 243.005 139.407 259.138 136.119C278.089 132.256 296.151 124.737 313.803 117.024C347.916 102.12 384.75 81.3712 423.197 83.7352C442.263 84.9072 460.866 90.8912 478.745 97.2532C498.867 104.414 518.57 112.703 538.752 119.7C557.141 126.076 576.252 131.74 595.858 132.022C610.218 132.229 624.167 130.139 637.914 126.012C652.099 121.753 665.758 115.896 680.082 112.078C698.457 107.18 717.226 106.674 736.064 108.88C791.626 115.387 844.684 139.999 900.999 140.605V142.06L901 142.059Z" fill="url(#paint15_linear_232_2612)"/>
<path d="M901 154.862C872.291 154.55 843.931 147.393 816.171 140.716C788.302 134.012 760.36 126.446 731.825 123.137C713.758 121.042 695.25 121.164 677.588 125.884C665.762 129.045 654.64 134.245 642.957 137.838C610.194 147.914 577.497 141.617 545.718 130.955C525.036 124.016 504.798 115.837 484.171 108.741C466.019 102.497 447.165 96.5351 427.885 95.3351C408.989 94.1591 390.277 99.2071 372.511 105.137C351.841 112.036 331.788 120.646 311.544 128.671C292.431 136.248 272.966 143.786 252.734 147.798C236.591 150.999 220.225 150.588 204.021 148.022C175.552 143.513 148.738 132.006 120.216 127.742C106.952 125.759 88.81 122.628 76.76 130.179C67.103 136.231 64.559 148.094 62.223 158.439C59.804 169.151 57.35 181.585 47.195 187.739C40.054 192.067 31.401 192.06 23.331 191.685C11.292 191.126 -0.686996 189.397 -12.564 187.425C-44.541 182.113 -76.127 174.634 -107.833 167.956C-136.395 161.939 -165.68 155.227 -195 154.862V153.377C-165.716 153.743 -136.48 160.438 -107.956 166.468C-76.372 173.144 -44.911 180.627 -13.054 185.929C-1.17799 187.906 10.802 189.631 22.841 190.189C30.911 190.563 39.52 190.556 46.662 186.242C56.847 180.089 59.505 167.682 62.106 156.957C64.618 146.599 67.353 134.761 77.043 128.711C89.096 121.186 107.156 124.271 120.416 126.259C149.008 130.547 175.864 142.159 204.401 146.695C220.615 149.273 237.017 149.664 253.169 146.46C273.317 142.464 292.689 134.927 311.703 127.335C331.806 119.309 351.713 110.692 372.249 103.804C390.014 97.845 408.721 92.8291 427.622 94.0001C446.892 95.1951 465.735 101.157 483.872 107.412C504.46 114.512 524.657 122.701 545.3 129.644C577.128 140.348 609.791 146.579 642.601 136.509C654.474 132.865 665.79 127.615 677.806 124.405C695.496 119.678 713.994 119.554 732.092 121.652C760.571 124.954 788.453 132.522 816.263 139.231C843.993 145.92 872.317 153.066 900.999 153.377L901 154.862Z" fill="url(#paint16_linear_232_2612)"/>
<path d="M901 167.666C872.298 167.478 843.937 160.223 816.215 153.464C788.38 146.678 760.464 138.999 731.937 135.718C713.864 133.639 695.36 133.88 677.692 138.545C665.736 141.702 654.454 146.85 642.635 150.43C629.754 154.332 616.499 155.898 603.06 155.802C583.291 155.661 563.917 149.898 545.35 143.583C524.739 136.573 504.594 128.278 484.04 121.106C465.928 114.786 447.076 108.773 427.796 107.666C408.912 106.582 390.175 111.655 372.413 117.553C351.821 124.392 331.831 132.905 311.653 140.847C292.572 148.357 273.155 155.814 252.984 159.839C236.717 163.085 220.541 162.478 204.224 159.928C175.854 155.494 148.876 144.889 120.461 140.67C107.078 138.683 89.141 135.337 76.956 142.959C67.32 148.986 64.716 160.73 62.343 171.051C59.885 181.739 57.369 194.045 47.236 200.176C40.086 204.503 31.455 204.564 23.372 204.145C11.351 203.52 -0.609009 201.793 -12.475 199.839C-44.475 194.569 -76.114 187.264 -107.866 180.713C-136.456 174.814 -165.694 168.247 -195 167.666V166.151C-165.669 166.694 -136.391 173.312 -107.783 179.231C-75.945 185.817 -44.22 193.163 -12.13 198.458C-0.266006 200.416 11.693 202.148 23.713 202.763C31.797 203.177 40.474 203.137 47.624 198.798C57.744 192.657 60.081 180.298 62.381 169.61C64.602 159.289 67.035 147.495 76.656 141.458C88.822 133.824 106.869 137.173 120.24 139.166C148.626 143.398 175.533 154.137 203.873 158.589C220.159 161.147 236.336 161.738 252.572 158.499C272.824 154.458 292.328 146.978 311.496 139.463C331.807 131.5 351.931 122.968 372.652 116.101C390.411 110.217 409.141 105.118 428.019 106.221C447.308 107.349 466.172 113.347 484.307 119.638C504.911 126.785 525.114 135.043 545.776 142.03C564.349 148.311 583.745 154.086 603.509 154.236C616.912 154.338 630.173 152.789 643.014 148.877C654.643 145.334 665.725 140.214 677.493 137.095C695.138 132.418 713.652 132.201 731.701 134.278C760.275 137.566 788.246 145.215 816.136 151.975C843.889 158.702 872.279 165.941 901.001 166.152V167.667L901 167.666Z" fill="url(#paint17_linear_232_2612)"/>
<path d="M901 180.468C872.713 180.372 844.877 172.908 817.691 165.807C790.587 158.727 763.393 150.722 735.498 147.412C716.746 145.187 697.931 145.899 679.599 150.537C665.342 154.143 651.672 159.655 637.538 163.673C623.781 167.584 609.868 169.555 595.564 169.476C575.948 169.368 556.894 163.522 538.623 156.847C518.618 149.538 499.159 140.837 479.222 133.352C461.494 126.697 442.955 120.475 423.904 119.418C405.436 118.393 387.092 123.165 369.766 129.111C350.745 135.638 332.38 143.906 313.811 151.584C295.961 158.965 277.755 166.153 258.751 169.96C242.441 173.227 226.283 172.446 209.904 170.145C181.094 166.098 153.302 156.874 124.459 153.008C110.636 151.155 93.501 148.089 80.745 155.341C70.557 161.133 65.938 172.315 61.705 182.645C57.32 193.347 52.685 205.061 42.007 210.953C34.605 215.037 26.189 215.317 17.938 214.87C6.069 214.228 -5.741 212.599 -17.471 210.731C-48.376 205.809 -78.949 198.973 -109.627 192.841C-137.704 187.231 -166.279 181.19 -195 180.468V178.923C-166.177 179.644 -137.493 185.756 -109.322 191.414C-78.486 197.607 -47.755 204.51 -16.689 209.486C-4.929 211.37 6.912 213.015 18.813 213.66C27.03 214.106 35.454 213.854 42.806 209.729C53.378 203.797 57.71 192.003 61.811 181.297C65.769 170.963 70.099 159.704 80.182 153.874C92.838 146.556 110.053 149.677 123.796 151.553C152.572 155.481 180.248 164.894 208.989 169.008C225.378 171.354 241.538 172.112 257.862 168.844C277.047 165.004 295.441 157.776 313.482 150.372C332.287 142.654 350.89 134.35 370.141 127.778C387.558 121.833 405.99 117.014 424.547 118.04C443.639 119.095 462.232 125.281 480.024 131.889C500.051 139.327 519.61 147.972 539.703 155.235C558.031 161.86 577.135 167.679 596.786 167.788C610.938 167.866 624.711 165.965 638.316 162.064C652.11 158.109 665.432 152.653 679.351 149.111C697.564 144.476 716.304 143.845 734.935 146.04C762.927 149.339 790.23 157.299 817.444 164.336C844.718 171.389 872.641 178.821 900.999 178.92V180.465L901 180.468Z" fill="url(#paint18_linear_232_2612)"/>
<path d="M901 193.271C846.003 192.99 795.281 165.377 741.244 158.427C721.201 155.849 701.395 157.431 681.799 162.148C664.245 166.373 647.209 172.437 629.765 177.065C614.385 181.146 598.796 183.853 582.846 183.75C563.643 183.626 545.106 177.418 527.483 170.28C508.34 162.526 489.843 153.288 470.78 145.346C453.732 138.244 435.763 131.646 417.164 130.504C381.664 128.324 348.444 146.885 317.102 160.941C301.181 168.081 284.87 174.876 267.699 178.351C251.664 181.596 235.517 180.608 219.369 178.788C189.848 175.46 160.976 167.971 131.434 164.79C116.779 163.212 100.071 160.718 86.28 167.267C74.843 172.697 67.511 183.226 60.6 193.39C53.438 203.922 45.961 214.951 34.018 220.473C26.069 224.149 17.535 224.641 8.90199 224.218C-2.59001 223.655 -14.032 222.201 -25.404 220.501C-54.733 216.115 -83.765 209.926 -112.89 204.397C-139.942 199.262 -167.391 193.886 -195 193.271V191.695C-167.233 192.333 -139.626 197.797 -112.427 202.999C-83.091 208.61 -53.85 214.886 -24.308 219.345C-12.883 221.069 -1.386 222.548 10.161 223.124C18.739 223.552 27.242 223.083 35.114 219.353C46.866 213.784 53.967 202.671 60.755 192.102C67.305 181.903 74.278 171.294 85.527 165.818C99.178 159.172 115.912 161.744 130.453 163.363C159.897 166.642 188.627 174.359 218.048 177.789C234.237 179.676 250.385 180.639 266.467 177.39C283.891 173.869 300.463 167.02 316.65 159.847C348.424 145.765 382.212 127.006 418.11 129.168C436.772 130.292 454.824 136.839 471.967 143.881C491.148 151.76 509.775 160.927 529.034 168.62C546.752 175.697 565.361 181.849 584.625 181.969C600.341 182.067 615.682 179.463 630.832 175.411C647.827 170.865 664.409 164.877 681.517 160.735C700.937 156.033 720.586 154.575 740.448 157.1C794.729 163.999 845.778 191.436 901 191.695V193.271Z" fill="url(#paint19_linear_232_2612)"/>
<path d="M901 206.075C847.99 205.551 800.206 176.451 748.334 169.026C704.537 162.757 662.111 180.099 620.346 190.551C602.897 194.918 584.984 198.565 566.917 198.396C548.272 198.221 530.374 191.48 513.628 183.82C495.501 175.528 478.141 165.677 460.109 157.188C443.922 149.568 426.703 142.513 408.673 141.184C376.674 138.824 348.558 155.576 321.089 169.454C307.539 176.299 293.548 182.612 278.601 185.683C263.025 188.883 246.897 187.709 231.158 186.467C200.74 184.067 170.667 178.524 140.237 176.235C124.616 175.06 107.841 173.197 92.888 178.918C79.613 183.997 69.232 193.885 59.208 203.617C48.821 213.701 38.153 224.062 24.332 229.224C5.765 236.158 -16.089 232.176 -35.145 229.583C-62.601 225.846 -89.8 220.415 -117.079 215.601C-142.792 211.061 -168.824 206.446 -195 206.075V204.468C-168.633 204.874 -142.414 209.59 -116.523 214.207C-89.003 219.114 -61.565 224.644 -33.864 228.466C-14.881 231.085 7.12801 235.243 25.602 228.152C39.159 222.948 49.418 212.504 59.39 202.351C69.014 192.553 79.004 182.586 92.022 177.466C106.83 171.641 123.572 173.58 139.071 174.811C169.382 177.219 199.302 183.012 229.601 185.536C245.397 186.852 261.528 188.004 277.167 184.799C292.405 181.676 306.702 175.298 320.565 168.414C348.547 154.521 377.343 137.523 409.796 139.859C427.901 141.162 445.22 148.156 461.521 155.709C479.687 164.126 497.196 173.897 515.455 182.118C532.319 189.711 550.302 196.38 569.021 196.548C586.807 196.707 604.407 193.185 621.581 188.858C662.766 178.482 704.179 161.613 747.399 167.712C799.555 175.073 847.73 203.982 900.999 204.471V206.076L901 206.075Z" fill="url(#paint20_linear_232_2612)"/>
<path d="M901 218.877C850.061 218.063 805.51 187.417 755.926 179.466C732.685 175.739 709.358 179.757 686.626 184.816C661.011 190.517 635.83 197.971 610.313 204.068C590.631 208.771 570.145 213.425 549.79 213.175C531.744 212.954 514.519 205.584 498.761 197.394C481.703 188.527 465.553 178.039 448.607 168.967C433.364 160.807 416.965 153.255 399.529 151.705C371.098 149.178 348.606 163.746 325.336 177.643C314.347 184.206 302.845 189.96 290.233 192.612C275.172 195.778 259.082 194.454 243.816 193.779C212.407 192.391 181.137 188.857 149.723 187.545C133.165 186.854 115.943 185.516 99.896 190.457C84.394 195.23 70.91 204.5 57.707 213.641C44.026 223.113 30.118 232.824 14.012 237.679C-5.112 243.444 -26.076 240.734 -45.559 238.4C-95.256 232.447 -144.753 219.061 -195 218.877V217.241C-144.299 217.496 -94.362 231.157 -44.232 237.273C-24.785 239.645 -3.74701 242.496 15.327 236.598C31.129 231.713 44.632 221.912 57.897 212.36C70.702 203.139 83.794 193.792 99 188.982C114.915 183.948 132.068 185.344 148.511 186.099C179.797 187.536 210.918 191.325 242.199 192.843C257.525 193.587 273.62 194.894 288.746 191.725C301.653 189.021 313.473 183.191 324.792 176.595C348.604 162.719 371.822 147.85 400.694 150.359C418.204 151.881 434.709 159.369 450.073 167.461C467.157 176.458 483.462 186.865 500.656 195.659C516.542 203.783 533.853 211.071 551.974 211.287C572.038 211.526 592.194 207 611.592 202.34C636.579 196.338 661.227 188.977 686.312 183.372C708.849 178.337 731.915 174.488 754.956 178.13C804.83 186.014 849.8 216.462 900.999 217.24V218.876L901 218.877Z" fill="url(#paint21_linear_232_2612)"/>
<path d="M901 231.68C851.949 230.626 810.63 198.444 763.177 190.013C738.517 185.632 713.149 190.93 689.027 196.165C659.416 202.591 630.215 210.744 600.696 217.563C578.917 222.594 555.98 228.199 533.475 227.863C515.958 227.602 499.385 219.643 484.58 210.943C468.544 201.52 453.572 190.422 437.669 180.787C423.345 172.109 407.732 164.076 390.828 162.332C378.117 161.02 364.962 163.125 353.577 169.003C344.754 173.558 337.303 180.131 329.407 186.05C320.926 192.408 311.823 197.554 301.37 199.812C286.763 202.969 270.731 201.529 255.886 201.338C223.497 200.921 191.137 199.319 158.747 198.945C141.387 198.745 123.597 197.762 106.633 202.071C88.819 206.596 72.435 215.273 56.279 223.803C39.544 232.639 22.608 241.738 4.121 246.334C-15.294 251.162 -35.822 249.407 -55.517 247.396C-101.954 242.654 -148.153 231.399 -195 231.68V230.013C-147.733 229.78 -101.126 241.308 -54.288 246.2C-34.611 248.255 -14.043 250.113 5.34599 245.18C23.53 240.553 40.095 231.379 56.454 222.461C72.247 213.852 88.274 205.104 105.794 200.549C122.651 196.166 140.371 197.187 157.638 197.449C189.905 197.938 222.133 199.783 254.398 200.319C269.291 200.567 285.331 201.993 299.99 198.837C310.706 196.53 320.103 191.302 328.901 184.925C337.145 178.95 344.962 172.321 354.1 167.703C365.698 161.841 378.985 159.624 391.896 160.934C408.863 162.656 424.573 170.63 439.011 179.243C455.044 188.807 470.164 199.83 486.327 209.183C501.249 217.818 517.904 225.707 535.482 225.964C557.725 226.289 580.363 220.8 601.888 215.809C630.908 209.08 659.608 201.014 688.721 194.678C712.679 189.464 737.789 184.325 762.282 188.624C809.995 196.998 851.723 228.984 901 230.012V231.679V231.68Z" fill="url(#paint22_linear_232_2612)"/>
<path d="M901 244.484C853.405 243.333 814.994 209.703 769.246 200.928C743.528 195.995 716.424 202.356 691.27 207.721C658.195 214.776 625.513 223.534 592.527 230.979C569.077 236.271 544.2 242.628 519.986 242.228C502.828 241.945 486.824 233.572 472.787 224.403C457.628 214.501 443.697 202.867 428.691 192.746C415.146 183.61 400.179 175.177 383.667 173.322C372.334 172.049 359.769 173.294 349.883 179.38C343.173 183.511 338.326 189.669 332.863 195.206C326.645 201.508 319.51 206.012 310.784 207.95C303.767 209.509 296.594 209.313 289.452 209.428C281.603 209.555 273.754 209.66 265.905 209.751C232.657 210.136 199.406 210.252 166.158 210.647C148.231 210.86 130.035 210.079 112.423 213.932C92.546 218.281 73.735 226.452 55.103 234.424C35.803 242.682 16.338 251.251 -4.27699 255.67C-23.818 259.859 -44.109 258.693 -63.886 257.001C-107.582 253.261 -151.008 244.008 -195 244.484V242.786C-150.675 242.316 -106.925 251.822 -62.909 255.678C-43.137 257.41 -22.818 258.633 -3.28799 254.377C17.073 249.94 36.24 241.307 55.238 232.979C73.579 224.939 92.104 216.707 111.734 212.341C129.279 208.439 147.439 209.237 165.309 209.071C198.454 208.764 231.602 208.86 264.747 208.566C272.585 208.497 280.423 208.407 288.261 208.285C295.434 208.174 302.631 208.355 309.679 206.795C318.601 204.82 325.96 200.231 332.456 193.931C338.211 188.349 343.378 182.139 350.331 177.959C360.398 171.908 372.992 170.553 384.488 171.836C401.041 173.683 416.082 182.071 429.718 191.15C444.831 201.213 458.889 212.782 474.152 222.627C488.274 231.736 504.346 240.069 521.539 240.351C545.562 240.746 570.226 234.471 593.489 229.208C626.06 221.839 658.325 213.152 690.985 206.173C716.028 200.821 742.935 194.58 768.539 199.452C814.48 208.192 853.245 241.637 901 242.786V244.484Z" fill="url(#paint23_linear_232_2612)"/>
<path d="M901 257.286C854.204 256.262 818.017 221.364 773.29 212.473C747.005 207.248 718.939 214.204 693.241 219.629C657.617 227.149 622.375 236.348 586.838 244.254C562.429 249.684 536.525 256.431 511.334 256.034C494.283 255.765 478.684 247.297 465.083 237.704C438.534 218.978 413.303 188.747 379.144 184.926C368.734 183.762 355.855 184.301 347.034 190.708C341.712 194.573 338.932 200.378 335.271 205.636C330.811 212.042 324.904 215.959 317.254 217.688C310.314 219.256 303.176 219.009 296.11 219.117C288.213 219.239 280.317 219.413 272.421 219.618C238.546 220.5 204.689 222 170.813 222.86C152.685 223.32 134.459 222.614 116.597 226.212C95.245 230.513 74.733 238.296 54.36 245.829C33.256 253.632 12.021 261.792 -10.119 266.168C-29.694 270.037 -49.743 269.106 -69.535 267.644C-111.379 264.554 -152.939 257.004 -195 257.286V255.559C-152.746 255.225 -111.001 262.98 -68.971 266.132C-49.178 267.616 -29.092 268.56 -9.517 264.667C12.464 260.295 33.515 252.089 54.43 244.233C74.62 236.65 94.955 228.822 116.154 224.525C134.01 220.905 152.262 221.616 170.389 221.176C204.198 220.356 237.992 219.019 271.801 218.181C279.694 217.985 287.588 217.816 295.483 217.688C302.54 217.574 309.666 217.822 316.598 216.258C324.353 214.508 330.364 210.519 335.024 204.137C338.884 198.851 341.895 193.002 347.357 189.111C356.284 182.751 369.065 182.134 379.561 183.316C413.742 187.166 439.154 217.264 465.823 235.921C479.458 245.459 495.098 253.939 512.147 254.212C537.26 254.615 563.093 247.894 587.424 242.473C622.684 234.617 657.648 225.465 692.996 217.996C718.653 212.575 746.652 205.662 772.894 210.869C817.71 219.761 854.143 254.502 901.001 255.559L901 257.286Z" fill="url(#paint24_linear_232_2612)"/>
<path d="M900.916 269.961C854.346 268.726 818.777 234.026 774.311 225.093C747.962 219.799 719.86 226.941 694.084 232.306C657.658 239.887 621.577 249.024 585.23 256.963C570.383 260.206 555.486 263.303 540.476 265.705C530.333 267.328 519.774 269.062 509.463 268.871C492.479 268.556 476.841 259.982 463.337 250.381C436.925 231.603 412.118 201.693 378.098 197.623C367.901 196.403 354.432 197.054 345.858 203.543C341.001 207.219 338.959 212.693 335.931 217.738C332.072 224.167 326.325 227.7 319.059 229.393C304.591 232.762 288.596 230.913 273.842 231.334C239.812 232.307 205.853 234.945 171.82 235.859C153.723 236.345 135.851 235.609 117.999 239.21C96.2279 243.601 75.1659 251.058 54.2059 258.262C32.4919 265.724 10.6819 273.535 -11.8891 278.014C-31.5881 281.923 -51.3251 280.946 -71.2401 279.552C-112.46 276.667 -153.425 270.481 -194.804 270.065C-194.883 269.372 -194.913 269.024 -194.953 268.326C-153.531 268.616 -112.549 275.027 -71.2961 277.937C-51.4451 279.337 -31.6811 280.318 -12.0451 276.43C10.5879 271.949 32.4439 264.057 54.1979 256.532C75.1979 249.268 96.3049 241.736 118.134 237.34C135.925 233.757 153.804 234.488 171.842 234.005C205.926 233.092 239.949 230.668 274.031 229.703C288.773 229.286 304.822 231.107 319.281 227.782C326.575 226.105 332.289 222.539 336.05 216.023C338.999 210.913 340.933 205.359 345.78 201.628C354.339 195.039 367.898 194.578 378.111 195.719C412.232 199.531 436.866 229.913 463.136 248.826C476.668 258.568 492.212 266.998 509.288 267.272C519.58 267.437 530.046 265.812 540.174 264.195C555.213 261.793 570.136 258.67 585.006 255.397C621.494 247.367 657.704 238.1 694.275 230.44C720.024 225.047 748.091 217.982 774.428 223.231C818.936 232.101 854.32 267.3 900.979 268.3C900.962 268.977 900.95 269.309 900.916 269.961Z" fill="url(#paint25_linear_232_2612)"/>
<path d="M899.285 280.29C853.148 278.103 815.665 247.497 771.14 239.027C745.385 234.127 718.258 240.774 692.908 245.529C657.368 252.196 622.087 260.154 586.6 267.089C572.794 269.787 558.956 272.358 545.043 274.446C534.88 275.971 524.079 278.052 513.767 277.689C497.41 277.113 481.443 269.045 467.691 260.838C439.361 243.931 412.514 218.223 378.747 213.142C368.293 211.569 355.289 213.006 345.951 218.399C340.801 221.373 337.564 225.995 333.612 230.262C328.544 235.734 322.177 238.704 314.927 240.251C300.156 243.403 284.572 241.663 269.564 242.339C236.069 243.847 202.801 248.526 169.292 249.824C150.909 250.536 133.146 249.858 114.966 253.452C94.7831 257.442 75.1231 263.752 55.5401 269.965C34.3351 276.693 13.0731 283.686 -8.80792 287.903C-28.7809 291.753 -48.3449 290.907 -68.5329 289.776C-109.373 287.488 -150.089 283.294 -191.003 282.384C-191.335 281.711 -191.493 281.374 -191.795 280.696C-150.763 281.577 -109.96 286.095 -69.0139 288.503C-48.8079 289.691 -29.2199 290.544 -9.23392 286.64C12.7901 282.338 34.1731 275.192 55.4961 268.326C75.1881 261.985 94.9591 255.537 115.273 251.467C133.467 247.822 151.243 248.491 169.65 247.835C203.282 246.636 236.706 242.283 270.326 240.889C285.317 240.267 300.964 242.057 315.705 238.827C322.943 237.241 329.208 234.167 334.07 228.513C337.865 224.099 340.897 219.325 345.993 216.227C355.187 210.638 368.265 209.266 378.664 210.827C412.446 215.9 438.932 242.312 466.966 259.57C480.608 267.968 496.484 276.155 512.859 276.719C523.195 277.075 534.005 274.993 544.186 273.438C558.193 271.299 572.121 268.657 586.014 265.885C621.8 258.744 657.37 250.544 693.213 243.682C718.606 238.82 745.855 232.041 771.677 237.018C816.214 245.601 853.405 276.886 899.623 279.016C899.494 279.535 899.426 279.789 899.284 280.289L899.285 280.29Z" fill="url(#paint26_linear_232_2612)"/>
<path d="M896.014 288.126C850.717 286.09 811.239 261.295 767.095 253.928C741.933 249.728 715.995 254.755 691.04 258.48C657.795 263.441 624.71 269.4 591.498 274.571C578.933 276.528 566.349 278.386 553.726 279.926C543.603 281.162 533.049 282.843 522.816 282.674C505.836 282.394 488.477 275.225 473.227 268.406C442.816 254.809 413.164 235.115 379.483 230.831C368.614 229.448 356.351 230.951 345.914 234.396C339.888 236.386 334.742 239.745 329.247 242.805C308.979 254.092 284.442 250.258 262.25 252.066C230.223 254.675 198.766 261.896 166.714 264.287C148.629 265.636 130.753 264.818 112.779 267.811C93.5493 271.013 74.7063 276.184 55.9233 281.32C35.5823 286.882 15.1973 292.613 -5.64871 295.983C-25.0547 299.12 -44.2467 298.313 -63.8117 297.754C-103.666 296.616 -143.507 295.045 -183.37 294.217C-183.887 293.555 -184.141 293.224 -184.637 292.56C-144.27 293.433 -103.944 295.432 -63.5917 296.76C-44.4197 297.391 -25.6837 298.158 -6.67072 295.02C14.3363 291.553 34.8553 285.64 55.3243 279.892C74.6513 274.465 94.0393 268.974 113.857 265.625C131.483 262.647 148.932 263.427 166.675 262.241C198.841 260.091 230.477 253.308 262.607 250.807C284.768 249.082 310.112 253.343 329.965 241.02C335.088 237.84 339.828 234.327 345.531 232.195C356.158 228.222 369.017 226.74 380.181 228.323C413.687 233.073 442.747 253.569 472.794 267.629C487.744 274.625 505.157 282.163 521.982 282.168C531.311 282.171 540.832 280.72 550.073 279.576C563.912 277.864 577.697 275.735 591.459 273.494C624.395 268.13 657.202 261.993 690.171 256.831C715.721 252.831 742.419 247.354 768.211 251.853C812.221 259.53 851.298 285.028 896.555 287.128C896.342 287.533 896.234 287.731 896.012 288.122L896.014 288.126Z" fill="url(#paint27_linear_232_2612)"/>
<path d="M891.675 294.339C846.87 293.117 805.333 274.593 761.196 269.148C736.934 266.155 712.298 269.11 688.081 271.355C658.847 274.065 629.673 277.376 600.454 280.24C578.589 282.384 556.162 285.377 534.156 285.007C516.586 284.711 498.951 280.251 482.122 275.549C449.055 266.312 416.326 253.028 381.848 250.09C362.276 248.422 342.688 251.723 323.531 255.335C300.341 259.707 276.823 257.828 253.529 260.869C222.371 264.937 192.456 275.436 161.25 279.233C144.372 281.287 127.366 280.462 110.469 282.468C92.0374 284.656 73.8564 288.5 55.7124 292.337C36.9114 296.313 18.0794 300.346 -1.02359 302.59C-19.7086 304.785 -38.4246 304.111 -57.1956 304.292C-95.8836 304.664 -134.549 306.133 -173.244 305.734C-173.875 305.075 -174.188 304.745 -174.809 304.084C-136.012 304.558 -97.2256 303.552 -58.4306 303.409C-39.6116 303.34 -20.8866 304.053 -2.15959 301.747C17.5694 299.317 36.9874 294.928 56.3734 290.632C74.2704 286.666 92.2114 282.71 110.41 280.384C127.367 278.217 144.414 279.013 161.378 277.135C192.728 273.664 222.897 263.654 254.172 259.723C277.752 256.759 301.538 258.9 324.841 253.425C342.98 249.163 361.641 245.568 380.388 247.156C415.357 250.119 448.237 264.772 481.514 274.798C497.759 279.693 514.772 284.228 531.829 284.765C541.625 285.073 551.693 283.908 561.445 283.112C573.817 282.102 586.169 280.851 598.511 279.526C628.142 276.344 657.718 272.665 687.364 269.621C711.787 267.114 736.755 263.742 761.255 266.829C805.695 272.429 847.2 292.132 892.345 293.506C892.079 293.841 891.945 294.007 891.674 294.336L891.675 294.339Z" fill="url(#paint28_linear_232_2612)"/>
<path d="M886.839 299.799C841.247 299.673 797.056 287.103 751.711 284.288C729.357 282.901 706.777 283.79 684.4 284.154C658.229 284.579 632.061 285.186 605.89 285.649C567.411 286.33 529.425 286.798 491.169 281.983C455.042 277.437 418.922 270.572 382.43 269.853C360.819 269.427 339.309 269.062 317.723 267.867C292.845 266.49 267.083 264.632 242.509 269.448C212.916 275.247 185.517 288.907 155.82 294.3C139.328 297.295 122.671 296.432 106.019 297.519C89.3253 298.608 72.7293 300.754 56.1493 302.926C38.9703 305.177 21.7753 307.419 4.47528 308.507C-13.9277 309.665 -32.3837 309.17 -50.7997 310.199C-87.8947 312.272 -124.761 316.935 -161.961 317.105C-162.631 316.439 -162.967 316.105 -163.637 315.439C-126.343 315.354 -89.3157 311.187 -52.1057 309.357C-33.6437 308.449 -15.1317 308.975 3.30728 307.675C20.8243 306.439 38.2143 303.953 55.5853 301.452C72.3453 299.038 89.1213 296.637 106.015 295.362C122.709 294.102 139.46 294.976 156.023 292.19C185.873 287.171 213.583 274.039 243.274 268.356C267.751 263.671 293.301 265.378 318.106 266.004C339.406 266.541 360.73 266.332 382.021 266.923C418.533 267.936 454.526 275.876 490.557 281.146C508.531 283.775 526.662 285.971 544.851 286.061C565.064 286.161 585.291 285.497 605.492 284.873C632.125 284.05 658.751 283.033 685.386 282.27C707.887 281.625 730.635 280.459 753.116 282.049C798.278 285.243 842.102 298.717 887.558 299.011C887.271 299.326 887.126 299.483 886.839 299.799Z" fill="url(#paint29_linear_232_2612)"/>
<path d="M882.083 305.377C836.247 306.313 790.692 300.265 744.901 299.637C723.451 299.343 702.255 298.609 680.851 296.887C658.651 295.101 636.482 292.961 614.289 291.093C596.066 289.559 577.382 287.227 559.074 287.611C540.309 288.005 521.567 288.552 502.794 288.639C462.834 288.824 422.839 288.203 382.896 289.611C358.359 290.476 334.657 285.407 310.839 280.296C284.91 274.732 257.666 271.196 231.684 278.151C203.543 285.683 178.819 302.361 150.484 309.325C134.286 313.306 118.2 312.402 101.686 312.463C87.0067 312.517 72.3357 312.971 57.6657 313.456C41.7457 313.982 25.8247 314.497 9.89473 314.53C-7.93826 314.567 -25.5163 314.324 -43.2953 316.157C-79.2793 319.865 -114.557 327.802 -150.855 328.498C-151.485 327.814 -151.804 327.473 -152.447 326.791C-115.686 326.158 -79.8293 318.559 -43.3393 315.135C-25.9363 313.502 -8.66727 313.788 8.77773 313.601C24.9177 313.428 41.0387 312.661 57.1577 311.878C72.3567 311.139 87.5587 310.433 102.777 310.244C118.951 310.043 134.755 310.903 150.655 307.234C179.467 300.587 204.784 284.115 233.378 276.796C259.295 270.162 286.502 273.489 312.423 278.573C336.075 283.212 359.45 287.328 383.679 286.673C422.277 285.63 460.91 287.11 499.506 287.628C518.994 287.889 538.436 287.486 557.917 287.314C576.064 287.154 594.42 288.967 612.514 290.187C635.601 291.743 658.673 293.519 681.764 295.013C703.296 296.407 724.704 296.911 746.258 297.37C791.847 298.341 837.11 305.294 882.766 304.502C882.49 304.847 882.354 305.022 882.084 305.375L882.083 305.377Z" fill="url(#paint30_linear_232_2612)"/>
<path d="M877.975 311.942C831.803 313.536 785.597 313.462 739.415 314.661C728.817 314.936 718.413 315.411 707.848 314.301C697.853 313.251 687.926 311.632 678.057 309.75C658.52 306.025 639.202 301.255 619.709 297.312C603.936 294.121 587.162 290.383 570.993 290.492C550.737 290.628 530.068 293.814 509.945 295.908C468.428 300.229 426.959 305.45 385.312 308.405C329.868 312.338 278.917 269.076 223.396 287.033C195.763 295.971 173.245 315.982 145.346 324.287C130.047 328.842 115.113 328.107 99.3838 327.227C85.4508 326.448 71.5358 325.414 57.6228 324.354C26.1268 321.954 -5.61722 318.379 -37.0502 322.982C-72.0662 328.11 -105.634 339.075 -141.272 340.085C-141.78 339.374 -142.04 339.019 -142.574 338.311C-106.927 337.33 -73.1702 326.84 -38.0972 321.89C-6.20123 317.389 26.1178 320.811 58.1188 322.71C71.8538 323.525 85.5898 324.325 99.3338 324.985C115.035 325.739 130.061 326.59 145.375 322.233C173.387 314.262 196.252 294.782 223.87 285.849C278.991 268.021 329.881 309.322 384.948 305.651C426.119 302.906 467.171 298.527 508.258 294.785C528.333 292.957 548.728 290.269 568.897 289.952C585.629 289.689 602.983 293.342 619.373 296.365C639.239 300.03 658.967 304.415 678.874 307.859C688.872 309.589 698.918 311.085 709.019 312.066C719.58 313.092 729.996 312.622 740.587 312.405C786.565 311.464 832.564 312.378 878.533 310.849C878.304 311.278 878.193 311.496 877.975 311.941V311.942Z" fill="url(#paint31_linear_232_2612)"/>
<path d="M875.088 320.364C827.855 321.869 780.838 326.946 733.649 329.247C723.002 329.766 712.641 330.247 702.047 328.751C693.389 327.528 684.859 325.525 676.469 323.079C658.946 317.971 642.065 310.949 624.688 305.395C610.056 300.718 594.008 296.174 578.506 296.356C557.93 296.597 536.9 300.928 516.69 304.402C473.199 311.878 429.744 322.154 385.673 325.612C327.303 330.193 274.631 275.025 216.156 297.35C189.645 307.471 169.484 329.314 142.55 338.564C115.944 347.701 85.4721 340.779 58.5521 335.895C28.0561 330.363 -2.30089 325.972 -33.1549 331.526C-49.0149 334.381 -64.3939 339.184 -79.9279 343.374C-97.8709 348.213 -115.926 351.538 -134.542 352.035C-134.841 351.285 -135.001 350.911 -135.338 350.166C-116.745 349.648 -98.6769 346.396 -80.7189 341.69C-64.7709 337.511 -48.9749 332.709 -32.6999 329.915C-2.20189 324.679 27.9571 328.995 58.1641 334.022C70.9421 336.149 83.7331 338.165 96.6351 339.38C112.223 340.848 127.239 341.562 142.324 336.585C169.667 327.564 190.262 305.666 217.136 295.656C275.282 273.998 327.402 327.707 385.374 323.13C429.057 319.681 472.186 310.143 515.366 303.067C526.189 301.293 537.029 299.611 547.904 298.186C557.826 296.886 568.219 295.14 578.25 295.196C593.819 295.284 609.79 299.658 624.57 304.164C641.822 309.423 658.668 315.951 676.041 320.822C684.877 323.299 693.842 325.349 702.939 326.593C713.518 328.04 723.869 327.536 734.5 327.037C781.506 324.83 828.39 320.498 875.429 318.914C875.284 319.482 875.216 319.772 875.088 320.365V320.364Z" fill="url(#paint32_linear_232_2612)"/>
</g>
<defs>
<linearGradient id="paint0_linear_232_2612" x1="-135.016" y1="-36.5009" x2="866.009" y2="-36.5009" gradientUnits="userSpaceOnUse">
<stop stop-color="#1D1E20"/>
<stop offset="0.041" stop-color="#2E3033"/>
<stop offset="0.084" stop-color="#2E3033"/>
<stop offset="0.221" stop-color="#0C43C4"/>
<stop offset="0.273" stop-color="#99E1D9"/>
<stop offset="0.405" stop-color="#0C43C4"/>
<stop offset="0.504" stop-color="#2E3033"/>
<stop offset="0.62" stop-color="#0C43C4"/>
<stop offset="0.686" stop-color="#99E1D9"/>
<stop offset="0.785" stop-color="#0C43C4"/>
<stop offset="0.942" stop-color="#2E3033"/>
<stop offset="1" stop-color="#1D1E20"/>
</linearGradient>
<linearGradient id="paint1_linear_232_2612" x1="-137.793" y1="-25.0125" x2="867.63" y2="-25.0125" gradientUnits="userSpaceOnUse">
<stop stop-color="#1D1E20"/>
<stop offset="0.041" stop-color="#2E3033"/>
<stop offset="0.084" stop-color="#2E3033"/>
<stop offset="0.221" stop-color="#0C43C4"/>
<stop offset="0.273" stop-color="#99E1D9"/>
<stop offset="0.405" stop-color="#0C43C4"/>
<stop offset="0.504" stop-color="#2E3033"/>
<stop offset="0.62" stop-color="#0C43C4"/>
<stop offset="0.686" stop-color="#99E1D9"/>
<stop offset="0.785" stop-color="#0C43C4"/>
<stop offset="0.942" stop-color="#2E3033"/>
<stop offset="1" stop-color="#1D1E20"/>
</linearGradient>
<linearGradient id="paint2_linear_232_2612" x1="-144.463" y1="-15.373" x2="871.52" y2="-15.373" gradientUnits="userSpaceOnUse">
<stop stop-color="#1D1E20"/>
<stop offset="0.041" stop-color="#2E3033"/>
<stop offset="0.084" stop-color="#2E3033"/>
<stop offset="0.221" stop-color="#0C43C4"/>
<stop offset="0.273" stop-color="#99E1D9"/>
<stop offset="0.405" stop-color="#0C43C4"/>
<stop offset="0.504" stop-color="#2E3033"/>
<stop offset="0.62" stop-color="#0C43C4"/>
<stop offset="0.686" stop-color="#99E1D9"/>
<stop offset="0.785" stop-color="#0C43C4"/>
<stop offset="0.942" stop-color="#2E3033"/>
<stop offset="1" stop-color="#1D1E20"/>
</linearGradient>
<linearGradient id="paint3_linear_232_2612" x1="-153.75" y1="-6.97996" x2="876.938" y2="-6.97996" gradientUnits="userSpaceOnUse">
<stop stop-color="#1D1E20"/>
<stop offset="0.041" stop-color="#2E3033"/>
<stop offset="0.084" stop-color="#2E3033"/>
<stop offset="0.221" stop-color="#0C43C4"/>
<stop offset="0.273" stop-color="#99E1D9"/>
<stop offset="0.405" stop-color="#0C43C4"/>
<stop offset="0.504" stop-color="#2E3033"/>
<stop offset="0.62" stop-color="#0C43C4"/>
<stop offset="0.686" stop-color="#99E1D9"/>
<stop offset="0.785" stop-color="#0C43C4"/>
<stop offset="0.942" stop-color="#2E3033"/>
<stop offset="1" stop-color="#1D1E20"/>
</linearGradient>
<linearGradient id="paint4_linear_232_2612" x1="-164.384" y1="4.19876" x2="883.139" y2="4.19876" gradientUnits="userSpaceOnUse">
<stop stop-color="#1D1E20"/>
<stop offset="0.041" stop-color="#2E3033"/>
<stop offset="0.084" stop-color="#2E3033"/>
<stop offset="0.221" stop-color="#0C43C4"/>
<stop offset="0.273" stop-color="#99E1D9"/>
<stop offset="0.405" stop-color="#0C43C4"/>
<stop offset="0.504" stop-color="#2E3033"/>
<stop offset="0.62" stop-color="#0C43C4"/>
<stop offset="0.686" stop-color="#99E1D9"/>
<stop offset="0.785" stop-color="#0C43C4"/>
<stop offset="0.942" stop-color="#2E3033"/>
<stop offset="1" stop-color="#1D1E20"/>
</linearGradient>
<linearGradient id="paint5_linear_232_2612" x1="-175.089" y1="16.7511" x2="889.385" y2="16.7511" gradientUnits="userSpaceOnUse">
<stop stop-color="#1D1E20"/>
<stop offset="0.041" stop-color="#2E3033"/>
<stop offset="0.084" stop-color="#2E3033"/>
<stop offset="0.221" stop-color="#0C43C4"/>
<stop offset="0.273" stop-color="#99E1D9"/>
<stop offset="0.405" stop-color="#0C43C4"/>
<stop offset="0.504" stop-color="#2E3033"/>
<stop offset="0.62" stop-color="#0C43C4"/>
<stop offset="0.686" stop-color="#99E1D9"/>
<stop offset="0.785" stop-color="#0C43C4"/>
<stop offset="0.942" stop-color="#2E3033"/>
<stop offset="1" stop-color="#1D1E20"/>
</linearGradient>
<linearGradient id="paint6_linear_232_2612" x1="-184.593" y1="29.3279" x2="894.929" y2="29.3279" gradientUnits="userSpaceOnUse">
<stop stop-color="#1D1E20"/>
<stop offset="0.041" stop-color="#2E3033"/>
<stop offset="0.084" stop-color="#2E3033"/>
<stop offset="0.221" stop-color="#0C43C4"/>
<stop offset="0.273" stop-color="#99E1D9"/>
<stop offset="0.405" stop-color="#0C43C4"/>
<stop offset="0.504" stop-color="#2E3033"/>
<stop offset="0.62" stop-color="#0C43C4"/>
<stop offset="0.686" stop-color="#99E1D9"/>
<stop offset="0.785" stop-color="#0C43C4"/>
<stop offset="0.942" stop-color="#2E3033"/>
<stop offset="1" stop-color="#1D1E20"/>
</linearGradient>
<linearGradient id="paint7_linear_232_2612" x1="-191.623" y1="40.93" x2="899.03" y2="40.93" gradientUnits="userSpaceOnUse">
<stop stop-color="#1D1E20"/>
<stop offset="0.041" stop-color="#2E3033"/>
<stop offset="0.084" stop-color="#2E3033"/>
<stop offset="0.221" stop-color="#0C43C4"/>
<stop offset="0.273" stop-color="#99E1D9"/>
<stop offset="0.405" stop-color="#0C43C4"/>
<stop offset="0.504" stop-color="#2E3033"/>
<stop offset="0.62" stop-color="#0C43C4"/>
<stop offset="0.686" stop-color="#99E1D9"/>
<stop offset="0.785" stop-color="#0C43C4"/>
<stop offset="0.942" stop-color="#2E3033"/>
<stop offset="1" stop-color="#1D1E20"/>
</linearGradient>
<linearGradient id="paint8_linear_232_2612" x1="-194.904" y1="52.8171" x2="900.946" y2="52.8171" gradientUnits="userSpaceOnUse">
<stop stop-color="#1D1E20"/>
<stop offset="0.041" stop-color="#2E3033"/>
<stop offset="0.084" stop-color="#2E3033"/>
<stop offset="0.221" stop-color="#0C43C4"/>
<stop offset="0.273" stop-color="#99E1D9"/>
<stop offset="0.405" stop-color="#0C43C4"/>
<stop offset="0.504" stop-color="#2E3033"/>
<stop offset="0.62" stop-color="#0C43C4"/>
<stop offset="0.686" stop-color="#99E1D9"/>
<stop offset="0.785" stop-color="#0C43C4"/>
<stop offset="0.942" stop-color="#2E3033"/>
<stop offset="1" stop-color="#1D1E20"/>
</linearGradient>
<linearGradient id="paint9_linear_232_2612" x1="-195" y1="65.5987" x2="901" y2="65.5987" gradientUnits="userSpaceOnUse">
<stop stop-color="#1D1E20"/>
<stop offset="0.041" stop-color="#2E3033"/>
<stop offset="0.084" stop-color="#2E3033"/>
<stop offset="0.221" stop-color="#0C43C4"/>
<stop offset="0.273" stop-color="#99E1D9"/>
<stop offset="0.405" stop-color="#0C43C4"/>
<stop offset="0.504" stop-color="#2E3033"/>
<stop offset="0.62" stop-color="#0C43C4"/>
<stop offset="0.686" stop-color="#99E1D9"/>
<stop offset="0.785" stop-color="#0C43C4"/>
<stop offset="0.942" stop-color="#2E3033"/>
<stop offset="1" stop-color="#1D1E20"/>
</linearGradient>
<linearGradient id="paint10_linear_232_2612" x1="-195" y1="78.4941" x2="901" y2="78.4941" gradientUnits="userSpaceOnUse">
<stop stop-color="#1D1E20"/>
<stop offset="0.041" stop-color="#2E3033"/>
<stop offset="0.084" stop-color="#2E3033"/>
<stop offset="0.221" stop-color="#0C43C4"/>
<stop offset="0.273" stop-color="#99E1D9"/>
<stop offset="0.405" stop-color="#0C43C4"/>
<stop offset="0.504" stop-color="#2E3033"/>
<stop offset="0.62" stop-color="#0C43C4"/>
<stop offset="0.686" stop-color="#99E1D9"/>
<stop offset="0.785" stop-color="#0C43C4"/>
<stop offset="0.942" stop-color="#2E3033"/>
<stop offset="1" stop-color="#1D1E20"/>
</linearGradient>
<linearGradient id="paint11_linear_232_2612" x1="-195" y1="89.4687" x2="901" y2="89.4687" gradientUnits="userSpaceOnUse">
<stop stop-color="#1D1E20"/>
<stop offset="0.041" stop-color="#2E3033"/>
<stop offset="0.084" stop-color="#2E3033"/>
<stop offset="0.221" stop-color="#0C43C4"/>
<stop offset="0.273" stop-color="#99E1D9"/>
<stop offset="0.405" stop-color="#0C43C4"/>
<stop offset="0.504" stop-color="#2E3033"/>
<stop offset="0.62" stop-color="#0C43C4"/>
<stop offset="0.686" stop-color="#99E1D9"/>
<stop offset="0.785" stop-color="#0C43C4"/>
<stop offset="0.942" stop-color="#2E3033"/>
<stop offset="1" stop-color="#1D1E20"/>
</linearGradient>
<linearGradient id="paint12_linear_232_2612" x1="-195" y1="99.8431" x2="901" y2="99.8431" gradientUnits="userSpaceOnUse">
<stop stop-color="#1D1E20"/>
<stop offset="0.041" stop-color="#2E3033"/>
<stop offset="0.084" stop-color="#2E3033"/>
<stop offset="0.221" stop-color="#0C43C4"/>
<stop offset="0.273" stop-color="#99E1D9"/>
<stop offset="0.405" stop-color="#0C43C4"/>
<stop offset="0.504" stop-color="#2E3033"/>
<stop offset="0.62" stop-color="#0C43C4"/>
<stop offset="0.686" stop-color="#99E1D9"/>
<stop offset="0.785" stop-color="#0C43C4"/>
<stop offset="0.942" stop-color="#2E3033"/>
<stop offset="1" stop-color="#1D1E20"/>
</linearGradient>
<linearGradient id="paint13_linear_232_2612" x1="-195" y1="110.126" x2="901" y2="110.126" gradientUnits="userSpaceOnUse">
<stop stop-color="#1D1E20"/>
<stop offset="0.041" stop-color="#2E3033"/>
<stop offset="0.084" stop-color="#2E3033"/>
<stop offset="0.221" stop-color="#0C43C4"/>
<stop offset="0.273" stop-color="#99E1D9"/>
<stop offset="0.405" stop-color="#0C43C4"/>
<stop offset="0.504" stop-color="#2E3033"/>
<stop offset="0.62" stop-color="#0C43C4"/>
<stop offset="0.686" stop-color="#99E1D9"/>
<stop offset="0.785" stop-color="#0C43C4"/>
<stop offset="0.942" stop-color="#2E3033"/>
<stop offset="1" stop-color="#1D1E20"/>
</linearGradient>
<linearGradient id="paint14_linear_232_2612" x1="-195" y1="120.383" x2="901" y2="120.383" gradientUnits="userSpaceOnUse">
<stop stop-color="#1D1E20"/>
<stop offset="0.041" stop-color="#2E3033"/>
<stop offset="0.084" stop-color="#2E3033"/>
<stop offset="0.221" stop-color="#0C43C4"/>
<stop offset="0.273" stop-color="#99E1D9"/>
<stop offset="0.405" stop-color="#0C43C4"/>
<stop offset="0.504" stop-color="#2E3033"/>
<stop offset="0.62" stop-color="#0C43C4"/>
<stop offset="0.686" stop-color="#99E1D9"/>
<stop offset="0.785" stop-color="#0C43C4"/>
<stop offset="0.942" stop-color="#2E3033"/>
<stop offset="1" stop-color="#1D1E20"/>
</linearGradient>
<linearGradient id="paint15_linear_232_2612" x1="-195" y1="131.207" x2="901" y2="131.207" gradientUnits="userSpaceOnUse">
<stop stop-color="#1D1E20"/>
<stop offset="0.041" stop-color="#2E3033"/>
<stop offset="0.084" stop-color="#2E3033"/>
<stop offset="0.221" stop-color="#0C43C4"/>
<stop offset="0.273" stop-color="#99E1D9"/>
<stop offset="0.405" stop-color="#0C43C4"/>
<stop offset="0.504" stop-color="#2E3033"/>
<stop offset="0.62" stop-color="#0C43C4"/>
<stop offset="0.686" stop-color="#99E1D9"/>
<stop offset="0.785" stop-color="#0C43C4"/>
<stop offset="0.942" stop-color="#2E3033"/>
<stop offset="1" stop-color="#1D1E20"/>
</linearGradient>
<linearGradient id="paint16_linear_232_2612" x1="-195" y1="142.833" x2="901" y2="142.833" gradientUnits="userSpaceOnUse">
<stop stop-color="#1D1E20"/>
<stop offset="0.041" stop-color="#2E3033"/>
<stop offset="0.084" stop-color="#2E3033"/>
<stop offset="0.221" stop-color="#0C43C4"/>
<stop offset="0.273" stop-color="#99E1D9"/>
<stop offset="0.405" stop-color="#0C43C4"/>
<stop offset="0.504" stop-color="#2E3033"/>
<stop offset="0.62" stop-color="#0C43C4"/>
<stop offset="0.686" stop-color="#99E1D9"/>
<stop offset="0.785" stop-color="#0C43C4"/>
<stop offset="0.942" stop-color="#2E3033"/>
<stop offset="1" stop-color="#1D1E20"/>
</linearGradient>
<linearGradient id="paint17_linear_232_2612" x1="-195" y1="155.192" x2="901" y2="155.192" gradientUnits="userSpaceOnUse">
<stop stop-color="#1D1E20"/>
<stop offset="0.041" stop-color="#2E3033"/>
<stop offset="0.084" stop-color="#2E3033"/>
<stop offset="0.221" stop-color="#0C43C4"/>
<stop offset="0.273" stop-color="#99E1D9"/>
<stop offset="0.405" stop-color="#0C43C4"/>
<stop offset="0.504" stop-color="#2E3033"/>
<stop offset="0.62" stop-color="#0C43C4"/>
<stop offset="0.686" stop-color="#99E1D9"/>
<stop offset="0.785" stop-color="#0C43C4"/>
<stop offset="0.942" stop-color="#2E3033"/>
<stop offset="1" stop-color="#1D1E20"/>
</linearGradient>
<linearGradient id="paint18_linear_232_2612" x1="-195" y1="166.465" x2="901" y2="166.465" gradientUnits="userSpaceOnUse">
<stop stop-color="#1D1E20"/>
<stop offset="0.041" stop-color="#2E3033"/>
<stop offset="0.084" stop-color="#2E3033"/>
<stop offset="0.221" stop-color="#0C43C4"/>
<stop offset="0.273" stop-color="#99E1D9"/>
<stop offset="0.405" stop-color="#0C43C4"/>
<stop offset="0.504" stop-color="#2E3033"/>
<stop offset="0.62" stop-color="#0C43C4"/>
<stop offset="0.686" stop-color="#99E1D9"/>
<stop offset="0.785" stop-color="#0C43C4"/>
<stop offset="0.942" stop-color="#2E3033"/>
<stop offset="1" stop-color="#1D1E20"/>
</linearGradient>
<linearGradient id="paint19_linear_232_2612" x1="-195" y1="176.671" x2="901" y2="176.671" gradientUnits="userSpaceOnUse">
<stop stop-color="#1D1E20"/>
<stop offset="0.041" stop-color="#2E3033"/>
<stop offset="0.084" stop-color="#2E3033"/>
<stop offset="0.221" stop-color="#0C43C4"/>
<stop offset="0.273" stop-color="#99E1D9"/>
<stop offset="0.405" stop-color="#0C43C4"/>
<stop offset="0.504" stop-color="#2E3033"/>
<stop offset="0.62" stop-color="#0C43C4"/>
<stop offset="0.686" stop-color="#99E1D9"/>
<stop offset="0.785" stop-color="#0C43C4"/>
<stop offset="0.942" stop-color="#2E3033"/>
<stop offset="1" stop-color="#1D1E20"/>
</linearGradient>
<linearGradient id="paint20_linear_232_2612" x1="-195" y1="186.366" x2="901" y2="186.366" gradientUnits="userSpaceOnUse">
<stop stop-color="#1D1E20"/>
<stop offset="0.041" stop-color="#2E3033"/>
<stop offset="0.084" stop-color="#2E3033"/>
<stop offset="0.221" stop-color="#0C43C4"/>
<stop offset="0.273" stop-color="#99E1D9"/>
<stop offset="0.405" stop-color="#0C43C4"/>
<stop offset="0.504" stop-color="#2E3033"/>
<stop offset="0.62" stop-color="#0C43C4"/>
<stop offset="0.686" stop-color="#99E1D9"/>
<stop offset="0.785" stop-color="#0C43C4"/>
<stop offset="0.942" stop-color="#2E3033"/>
<stop offset="1" stop-color="#1D1E20"/>
</linearGradient>
<linearGradient id="paint21_linear_232_2612" x1="-195" y1="195.601" x2="901" y2="195.601" gradientUnits="userSpaceOnUse">
<stop stop-color="#1D1E20"/>
<stop offset="0.041" stop-color="#2E3033"/>
<stop offset="0.084" stop-color="#2E3033"/>
<stop offset="0.221" stop-color="#0C43C4"/>
<stop offset="0.273" stop-color="#99E1D9"/>
<stop offset="0.405" stop-color="#0C43C4"/>
<stop offset="0.504" stop-color="#2E3033"/>
<stop offset="0.62" stop-color="#0C43C4"/>
<stop offset="0.686" stop-color="#99E1D9"/>
<stop offset="0.785" stop-color="#0C43C4"/>
<stop offset="0.942" stop-color="#2E3033"/>
<stop offset="1" stop-color="#1D1E20"/>
</linearGradient>
<linearGradient id="paint22_linear_232_2612" x1="-195" y1="205.004" x2="901" y2="205.004" gradientUnits="userSpaceOnUse">
<stop stop-color="#1D1E20"/>
<stop offset="0.041" stop-color="#2E3033"/>
<stop offset="0.084" stop-color="#2E3033"/>
<stop offset="0.221" stop-color="#0C43C4"/>
<stop offset="0.273" stop-color="#99E1D9"/>
<stop offset="0.405" stop-color="#0C43C4"/>
<stop offset="0.504" stop-color="#2E3033"/>
<stop offset="0.62" stop-color="#0C43C4"/>
<stop offset="0.686" stop-color="#99E1D9"/>
<stop offset="0.785" stop-color="#0C43C4"/>
<stop offset="0.942" stop-color="#2E3033"/>
<stop offset="1" stop-color="#1D1E20"/>
</linearGradient>
<linearGradient id="paint23_linear_232_2612" x1="-195" y1="214.968" x2="901" y2="214.968" gradientUnits="userSpaceOnUse">
<stop stop-color="#1D1E20"/>
<stop offset="0.041" stop-color="#2E3033"/>
<stop offset="0.084" stop-color="#2E3033"/>
<stop offset="0.221" stop-color="#0C43C4"/>
<stop offset="0.273" stop-color="#99E1D9"/>
<stop offset="0.405" stop-color="#0C43C4"/>
<stop offset="0.504" stop-color="#2E3033"/>
<stop offset="0.62" stop-color="#0C43C4"/>
<stop offset="0.686" stop-color="#99E1D9"/>
<stop offset="0.785" stop-color="#0C43C4"/>
<stop offset="0.942" stop-color="#2E3033"/>
<stop offset="1" stop-color="#1D1E20"/>
</linearGradient>
<linearGradient id="paint24_linear_232_2612" x1="-195" y1="225.869" x2="901" y2="225.869" gradientUnits="userSpaceOnUse">
<stop stop-color="#1D1E20"/>
<stop offset="0.041" stop-color="#2E3033"/>
<stop offset="0.084" stop-color="#2E3033"/>
<stop offset="0.221" stop-color="#0C43C4"/>
<stop offset="0.273" stop-color="#99E1D9"/>
<stop offset="0.405" stop-color="#0C43C4"/>
<stop offset="0.504" stop-color="#2E3033"/>
<stop offset="0.62" stop-color="#0C43C4"/>
<stop offset="0.686" stop-color="#99E1D9"/>
<stop offset="0.785" stop-color="#0C43C4"/>
<stop offset="0.942" stop-color="#2E3033"/>
<stop offset="1" stop-color="#1D1E20"/>
</linearGradient>
<linearGradient id="paint25_linear_232_2612" x1="-194.952" y1="238.005" x2="900.979" y2="238.005" gradientUnits="userSpaceOnUse">
<stop stop-color="#1D1E20"/>
<stop offset="0.041" stop-color="#2E3033"/>
<stop offset="0.084" stop-color="#2E3033"/>
<stop offset="0.221" stop-color="#0C43C4"/>
<stop offset="0.273" stop-color="#99E1D9"/>
<stop offset="0.405" stop-color="#0C43C4"/>
<stop offset="0.504" stop-color="#2E3033"/>
<stop offset="0.62" stop-color="#0C43C4"/>
<stop offset="0.686" stop-color="#99E1D9"/>
<stop offset="0.785" stop-color="#0C43C4"/>
<stop offset="0.942" stop-color="#2E3033"/>
<stop offset="1" stop-color="#1D1E20"/>
</linearGradient>
<linearGradient id="paint26_linear_232_2612" x1="-191.794" y1="250.477" x2="899.625" y2="250.477" gradientUnits="userSpaceOnUse">
<stop stop-color="#1D1E20"/>
<stop offset="0.041" stop-color="#2E3033"/>
<stop offset="0.084" stop-color="#2E3033"/>
<stop offset="0.221" stop-color="#0C43C4"/>
<stop offset="0.273" stop-color="#99E1D9"/>
<stop offset="0.405" stop-color="#0C43C4"/>
<stop offset="0.504" stop-color="#2E3033"/>
<stop offset="0.62" stop-color="#0C43C4"/>
<stop offset="0.686" stop-color="#99E1D9"/>
<stop offset="0.785" stop-color="#0C43C4"/>
<stop offset="0.942" stop-color="#2E3033"/>
<stop offset="1" stop-color="#1D1E20"/>
</linearGradient>
<linearGradient id="paint27_linear_232_2612" x1="-184.637" y1="262.991" x2="896.557" y2="262.991" gradientUnits="userSpaceOnUse">
<stop stop-color="#1D1E20"/>
<stop offset="0.041" stop-color="#2E3033"/>
<stop offset="0.084" stop-color="#2E3033"/>
<stop offset="0.221" stop-color="#0C43C4"/>
<stop offset="0.273" stop-color="#99E1D9"/>
<stop offset="0.405" stop-color="#0C43C4"/>
<stop offset="0.504" stop-color="#2E3033"/>
<stop offset="0.62" stop-color="#0C43C4"/>
<stop offset="0.686" stop-color="#99E1D9"/>
<stop offset="0.785" stop-color="#0C43C4"/>
<stop offset="0.942" stop-color="#2E3033"/>
<stop offset="1" stop-color="#1D1E20"/>
</linearGradient>
<linearGradient id="paint28_linear_232_2612" x1="-174.809" y1="276.29" x2="892.345" y2="276.29" gradientUnits="userSpaceOnUse">
<stop stop-color="#1D1E20"/>
<stop offset="0.041" stop-color="#2E3033"/>
<stop offset="0.084" stop-color="#2E3033"/>
<stop offset="0.221" stop-color="#0C43C4"/>
<stop offset="0.273" stop-color="#99E1D9"/>
<stop offset="0.405" stop-color="#0C43C4"/>
<stop offset="0.504" stop-color="#2E3033"/>
<stop offset="0.62" stop-color="#0C43C4"/>
<stop offset="0.686" stop-color="#99E1D9"/>
<stop offset="0.785" stop-color="#0C43C4"/>
<stop offset="0.942" stop-color="#2E3033"/>
<stop offset="1" stop-color="#1D1E20"/>
</linearGradient>
<linearGradient id="paint29_linear_232_2612" x1="-163.638" y1="291.143" x2="887.558" y2="291.143" gradientUnits="userSpaceOnUse">
<stop stop-color="#1D1E20"/>
<stop offset="0.041" stop-color="#2E3033"/>
<stop offset="0.084" stop-color="#2E3033"/>
<stop offset="0.221" stop-color="#0C43C4"/>
<stop offset="0.273" stop-color="#99E1D9"/>
<stop offset="0.405" stop-color="#0C43C4"/>
<stop offset="0.504" stop-color="#2E3033"/>
<stop offset="0.62" stop-color="#0C43C4"/>
<stop offset="0.686" stop-color="#99E1D9"/>
<stop offset="0.785" stop-color="#0C43C4"/>
<stop offset="0.942" stop-color="#2E3033"/>
<stop offset="1" stop-color="#1D1E20"/>
</linearGradient>
<linearGradient id="paint30_linear_232_2612" x1="-152.449" y1="300.795" x2="882.765" y2="300.795" gradientUnits="userSpaceOnUse">
<stop stop-color="#1D1E20"/>
<stop offset="0.041" stop-color="#2E3033"/>
<stop offset="0.084" stop-color="#2E3033"/>
<stop offset="0.221" stop-color="#0C43C4"/>
<stop offset="0.273" stop-color="#99E1D9"/>
<stop offset="0.405" stop-color="#0C43C4"/>
<stop offset="0.504" stop-color="#2E3033"/>
<stop offset="0.62" stop-color="#0C43C4"/>
<stop offset="0.686" stop-color="#99E1D9"/>
<stop offset="0.785" stop-color="#0C43C4"/>
<stop offset="0.942" stop-color="#2E3033"/>
<stop offset="1" stop-color="#1D1E20"/>
</linearGradient>
<linearGradient id="paint31_linear_232_2612" x1="-142.573" y1="310.724" x2="878.533" y2="310.724" gradientUnits="userSpaceOnUse">
<stop stop-color="#1D1E20"/>
<stop offset="0.041" stop-color="#2E3033"/>
<stop offset="0.084" stop-color="#2E3033"/>
<stop offset="0.221" stop-color="#0C43C4"/>
<stop offset="0.273" stop-color="#99E1D9"/>
<stop offset="0.405" stop-color="#0C43C4"/>
<stop offset="0.504" stop-color="#2E3033"/>
<stop offset="0.62" stop-color="#0C43C4"/>
<stop offset="0.686" stop-color="#99E1D9"/>
<stop offset="0.785" stop-color="#0C43C4"/>
<stop offset="0.942" stop-color="#2E3033"/>
<stop offset="1" stop-color="#1D1E20"/>
</linearGradient>
<linearGradient id="paint32_linear_232_2612" x1="-135.338" y1="321.259" x2="875.429" y2="321.259" gradientUnits="userSpaceOnUse">
<stop stop-color="#1D1E20"/>
<stop offset="0.041" stop-color="#2E3033"/>
<stop offset="0.084" stop-color="#2E3033"/>
<stop offset="0.221" stop-color="#0C43C4"/>
<stop offset="0.273" stop-color="#99E1D9"/>
<stop offset="0.405" stop-color="#0C43C4"/>
<stop offset="0.504" stop-color="#2E3033"/>
<stop offset="0.62" stop-color="#0C43C4"/>
<stop offset="0.686" stop-color="#99E1D9"/>
<stop offset="0.785" stop-color="#0C43C4"/>
<stop offset="0.942" stop-color="#2E3033"/>
<stop offset="1" stop-color="#1D1E20"/>
</linearGradient>
</defs>
</svg>
