<svg width="32" height="32" viewBox="0 0 32 32" fill="none" xmlns="http://www.w3.org/2000/svg">
<path d="M30.6666 16.667V22.0003C30.6666 22.3539 30.5261 22.6931 30.2761 22.9431C30.026 23.1932 29.6869 23.3337 29.3333 23.3337H27.9999C27.9999 24.3945 27.5785 25.4119 26.8283 26.1621C26.0782 26.9122 25.0608 27.3337 23.9999 27.3337C22.9391 27.3337 21.9216 26.9122 21.1715 26.1621C20.4213 25.4119 19.9999 24.3945 19.9999 23.3337H11.9999C11.9999 24.3945 11.5785 25.4119 10.8283 26.1621C10.0782 26.9122 9.06078 27.3337 7.99992 27.3337C6.93905 27.3337 5.92164 26.9122 5.17149 26.1621C4.42135 25.4119 3.99992 24.3945 3.99992 23.3337H2.66659C2.31296 23.3337 1.97382 23.1932 1.72378 22.9431C1.47373 22.6931 1.33325 22.3539 1.33325 22.0003V8.66699C1.33325 7.60613 1.75468 6.58871 2.50482 5.83857C3.25497 5.08842 4.27239 4.66699 5.33325 4.66699H20.7466C21.5845 4.66856 22.4008 4.93324 23.0802 5.42367C23.7597 5.9141 24.2679 6.60551 24.5333 7.40033L26.4533 13.147L30.0666 15.5603C30.25 15.6811 30.4007 15.8453 30.5054 16.0384C30.6101 16.2315 30.6654 16.4474 30.6666 16.667ZM3.99992 12.667H6.66658V7.33366H5.33325C4.97963 7.33366 4.64049 7.47413 4.39044 7.72418C4.14039 7.97423 3.99992 8.31337 3.99992 8.66699V12.667ZM9.33325 23.3337C9.33325 23.07 9.25505 22.8122 9.10855 22.5929C8.96204 22.3736 8.7538 22.2027 8.51016 22.1018C8.26653 22.0009 7.99844 21.9745 7.7398 22.0259C7.48116 22.0774 7.24358 22.2044 7.05711 22.3909C6.87064 22.5773 6.74365 22.8149 6.6922 23.0735C6.64076 23.3322 6.66716 23.6003 6.76808 23.8439C6.869 24.0875 7.03989 24.2958 7.25916 24.4423C7.47842 24.5888 7.73621 24.667 7.99992 24.667C8.35354 24.667 8.69268 24.5265 8.94273 24.2765C9.19278 24.0264 9.33325 23.6873 9.33325 23.3337ZM11.9999 15.3337H3.99992V20.667H5.03992C5.41483 20.2545 5.8718 19.925 6.38154 19.6994C6.89128 19.4739 7.44252 19.3574 7.99992 19.3574C8.55731 19.3574 9.10856 19.4739 9.6183 19.6994C10.128 19.925 10.585 20.2545 10.9599 20.667H11.9999V15.3337ZM11.9999 7.33366H9.33325V12.667H11.9999V7.33366ZM17.3333 15.3337H14.6666V20.667H17.3333V15.3337ZM17.3333 7.33366H14.6666V12.667H17.3333V7.33366ZM19.9999 12.667H23.4799L22.0133 8.24033C21.9238 7.9755 21.7534 7.74548 21.5261 7.58278C21.2988 7.42008 21.0261 7.33294 20.7466 7.33366H19.9999V12.667ZM25.3333 23.3337C25.3333 23.07 25.2551 22.8122 25.1085 22.5929C24.962 22.3736 24.7538 22.2027 24.5102 22.1018C24.2665 22.0009 23.9984 21.9745 23.7398 22.0259C23.4812 22.0774 23.2436 22.2044 23.0571 22.3909C22.8706 22.5773 22.7437 22.8149 22.6922 23.0735C22.6408 23.3322 22.6672 23.6003 22.7681 23.8439C22.869 24.0875 23.0399 24.2958 23.2592 24.4423C23.4784 24.5888 23.7362 24.667 23.9999 24.667C24.3535 24.667 24.6927 24.5265 24.9427 24.2765C25.1928 24.0264 25.3333 23.6873 25.3333 23.3337ZM27.9999 17.3337L24.9333 15.3337H19.9999V20.667H21.0399C21.4148 20.2545 21.8718 19.925 22.3815 19.6994C22.8913 19.4739 23.4425 19.3574 23.9999 19.3574C24.5573 19.3574 25.1086 19.4739 25.6183 19.6994C26.128 19.925 26.585 20.2545 26.9599 20.667H27.9999V17.3337Z" fill="url(#paint0_linear_188_599)"/>
<defs>
<linearGradient id="paint0_linear_188_599" x1="1.33325" y1="26.6514" x2="31.6157" y2="25.2038" gradientUnits="userSpaceOnUse">
<stop stop-color="#99E1D9"/>
<stop offset="1" stop-color="#3B736D"/>
</linearGradient>
</defs>
</svg>
