<svg width="32" height="32" viewBox="0 0 32 32" fill="none" xmlns="http://www.w3.org/2000/svg">
<path d="M29.3333 6.77344C29.3344 5.9604 29.0941 5.16532 28.643 4.48895C28.1918 3.81257 27.55 3.28534 26.7989 2.97405C26.0478 2.66276 25.2212 2.58143 24.4239 2.74035C23.6265 2.89928 22.8943 3.29131 22.3199 3.86677L18.5733 7.61344L9.91992 4.73344C9.68953 4.66103 9.4438 4.65255 9.20896 4.70891C8.97413 4.76527 8.75901 4.88435 8.58658 5.05344L5.41325 8.2001C5.26289 8.35221 5.15133 8.53825 5.08798 8.74253C5.02463 8.94681 5.01135 9.16333 5.04926 9.37382C5.08718 9.58432 5.17517 9.7826 5.30582 9.95193C5.43647 10.1213 5.60593 10.2567 5.79992 10.3468L12.7066 13.4801L9.23992 16.9468L6.95992 15.8001C6.71375 15.6669 6.43189 15.6145 6.15429 15.6504C5.8767 15.6863 5.61743 15.8086 5.41325 16.0001L3.05325 18.4134C2.80492 18.6633 2.66553 19.0012 2.66553 19.3534C2.66553 19.7057 2.80492 20.0436 3.05325 20.2934L11.7066 28.9468C11.9564 29.1951 12.2943 29.3345 12.6466 29.3345C12.9988 29.3345 13.3368 29.1951 13.5866 28.9468L15.9999 26.5868C16.2 26.3887 16.3323 26.1324 16.3778 25.8546C16.4233 25.5768 16.3797 25.2916 16.2533 25.0401L15.1066 22.7601L18.5733 19.2934L21.7066 26.2001C21.7967 26.3941 21.9321 26.5636 22.1014 26.6942C22.2708 26.8248 22.469 26.9128 22.6795 26.9508C22.89 26.9887 23.1065 26.9754 23.3108 26.912C23.5151 26.8487 23.7011 26.7371 23.8533 26.5868L26.9999 23.4401C27.169 23.2677 27.2881 23.0526 27.3445 22.8177C27.4008 22.5829 27.3923 22.3372 27.3199 22.1068L24.4399 13.4534L28.1333 9.6801C28.5162 9.29953 28.8195 8.8465 29.0256 8.34745C29.2316 7.84841 29.3362 7.31333 29.3333 6.77344V6.77344ZM26.2399 7.8001L21.9199 12.1201C21.7508 12.2925 21.6317 12.5077 21.5754 12.7425C21.519 12.9773 21.5275 13.223 21.5999 13.4534L24.4799 22.0934L23.2799 23.2934L20.1466 16.4001C20.0577 16.2043 19.9227 16.033 19.7532 15.9006C19.5837 15.7683 19.3847 15.6789 19.1733 15.6401C18.96 15.6012 18.7405 15.6148 18.5337 15.6799C18.3269 15.7449 18.1391 15.8594 17.9866 16.0134L12.4933 21.5601C12.296 21.7571 12.1655 22.011 12.1201 22.286C12.0746 22.5611 12.1166 22.8435 12.2399 23.0934L13.3333 25.3334L12.5866 26.0801L5.87992 19.3601L6.66658 18.6668L8.94658 19.8134C9.19657 19.9368 9.47894 19.9787 9.75398 19.9333C10.029 19.8878 10.2829 19.7573 10.4799 19.5601L15.9999 14.0134C16.1531 13.8614 16.2671 13.6745 16.3322 13.4687C16.3972 13.2629 16.4113 13.0444 16.3733 12.832C16.3353 12.6196 16.2462 12.4195 16.1138 12.2491C15.9815 12.0786 15.8097 11.9429 15.6133 11.8534L8.66658 8.7201L9.86658 7.5201L18.5066 10.4001C18.737 10.4725 18.9827 10.481 19.2175 10.4246C19.4524 10.3683 19.6675 10.2492 19.8399 10.0801L24.1599 5.7601C24.2928 5.62424 24.4515 5.51629 24.6266 5.44259C24.8018 5.36889 24.9899 5.33092 25.1799 5.33092C25.37 5.33092 25.5581 5.36889 25.7332 5.44259C25.9084 5.51629 26.0671 5.62424 26.1999 5.7601C26.339 5.88896 26.449 6.046 26.5226 6.22074C26.5961 6.39548 26.6316 6.58391 26.6266 6.77344C26.6338 6.9617 26.6033 7.14951 26.5369 7.32582C26.4705 7.50213 26.3695 7.66339 26.2399 7.8001V7.8001Z" fill="url(#paint0_linear_188_612)"/>
<defs>
<linearGradient id="paint0_linear_188_612" x1="2.66553" y1="28.5316" x2="30.2215" y2="27.514" gradientUnits="userSpaceOnUse">
<stop stop-color="#99E1D9"/>
<stop offset="1" stop-color="#3B736D"/>
</linearGradient>
</defs>
</svg>
