<svg width="409" height="380" viewBox="0 0 409 380" fill="none" xmlns="http://www.w3.org/2000/svg">
<g opacity="0.6" filter="url(#filter0_f_309_1245)">
<ellipse cx="233.878" cy="71.4229" rx="177.425" ry="276.878" transform="rotate(90 233.878 71.4229)" fill="url(#paint0_linear_309_1245)"/>
</g>
<g filter="url(#filter1_f_309_1245)">
<ellipse cx="385.696" cy="-19.4678" rx="196.532" ry="306.696" transform="rotate(90 385.696 -19.4678)" fill="#0C43C4"/>
</g>
<g style="mix-blend-mode:color-dodge" opacity="0.9" filter="url(#filter2_f_309_1245)">
<path d="M176.559 -119.399C220.386 -149.156 286.539 -164.998 323.751 -142.091C361.514 -119.185 370.059 -57.316 373.642 -12.5736C377.501 32.3829 376.123 60.4272 373.091 85.9026C369.783 111.164 364.27 133.856 348.559 149.912C332.572 165.754 306.11 174.745 278.546 212.423C250.706 250.315 221.764 316.893 194.751 319.891C167.738 322.888 142.931 262.517 103.79 227.409C64.9241 192.086 11.7254 182.452 12.0011 162.115C12.5523 141.991 66.3023 111.378 88.078 82.0492C110.405 52.7204 100.206 25.1042 105.995 -10.6469C111.507 -46.184 133.007 -89.856 176.559 -119.399Z" fill="url(#paint1_linear_309_1245)"/>
</g>
<defs>
<filter id="filter0_f_309_1245" x="-103" y="-166.002" width="673.757" height="474.85" filterUnits="userSpaceOnUse" color-interpolation-filters="sRGB">
<feFlood flood-opacity="0" result="BackgroundImageFix"/>
<feBlend mode="normal" in="SourceGraphic" in2="BackgroundImageFix" result="shape"/>
<feGaussianBlur stdDeviation="30" result="effect1_foregroundBlur_309_1245"/>
</filter>
<filter id="filter1_f_309_1245" x="19" y="-276" width="733.392" height="513.064" filterUnits="userSpaceOnUse" color-interpolation-filters="sRGB">
<feFlood flood-opacity="0" result="BackgroundImageFix"/>
<feBlend mode="normal" in="SourceGraphic" in2="BackgroundImageFix" result="shape"/>
<feGaussianBlur stdDeviation="30" result="effect1_foregroundBlur_309_1245"/>
</filter>
<filter id="filter2_f_309_1245" x="-48" y="-213.002" width="484" height="593" filterUnits="userSpaceOnUse" color-interpolation-filters="sRGB">
<feFlood flood-opacity="0" result="BackgroundImageFix"/>
<feBlend mode="normal" in="SourceGraphic" in2="BackgroundImageFix" result="shape"/>
<feGaussianBlur stdDeviation="30" result="effect1_foregroundBlur_309_1245"/>
</filter>
<linearGradient id="paint0_linear_309_1245" x1="56.4534" y1="331.633" x2="423.416" y2="322.947" gradientUnits="userSpaceOnUse">
<stop stop-color="#99E1D9"/>
<stop offset="1" stop-color="#3B736D"/>
</linearGradient>
<linearGradient id="paint1_linear_309_1245" x1="12" y1="305.76" x2="388.332" y2="295.063" gradientUnits="userSpaceOnUse">
<stop stop-color="#99E1D9"/>
<stop offset="1" stop-color="#3B736D"/>
</linearGradient>
</defs>
</svg>
