<svg width="409" height="380" viewBox="0 0 409 380" fill="none" xmlns="http://www.w3.org/2000/svg">
<rect width="409" height="380" fill="#171F24"/>
<g clip-path="url(#clip0_2001_1402)">
<rect width="409" height="358" fill="#171F24"/>
<g opacity="0.6" filter="url(#filter0_f_2001_1402)">
<path d="M-43.0001 71.425C-43.0001 169.414 80.9624 248.85 233.878 248.85C386.793 248.85 510.756 169.414 510.756 71.425C510.756 -26.5641 386.793 -106 233.878 -106C80.9624 -106 -43.0001 -26.5641 -43.0001 71.425Z" fill="url(#paint0_linear_2001_1402)"/>
</g>
<g filter="url(#filter1_f_2001_1402)">
<path d="M357.78 10.8709C380.114 43.8615 392.003 93.6586 374.811 121.67C357.619 150.096 311.185 156.528 277.605 159.225C243.864 162.13 222.816 161.092 203.696 158.81C184.736 156.32 167.705 152.17 155.655 140.344C143.765 128.309 137.017 108.39 108.738 87.6415C80.2992 66.6852 30.3301 44.8989 28.0807 24.5651C25.8313 4.23131 71.1408 -14.4426 97.4911 -43.9059C124.002 -73.1617 131.232 -113.207 146.496 -112.999C161.599 -112.584 184.576 -72.1243 206.588 -55.7327C228.6 -38.9262 249.326 -46.6032 276.159 -42.246C302.83 -38.0962 335.607 -21.9122 357.78 10.8709Z" fill="#0C43C4"/>
</g>
<g style="mix-blend-mode:color-dodge" opacity="0.9" filter="url(#filter2_f_2001_1402)">
<path d="M269.971 -21.9557C299.289 -9.43455 329.359 8.70833 326.853 33.2395C324.097 58.0262 288.765 88.9458 267.716 109.9C246.667 131.109 239.902 142.608 235.892 167.906C231.883 192.948 230.63 232.044 211.836 260.664C193.043 289.284 156.708 307.938 136.161 292.35C115.613 276.507 111.103 226.678 81.2834 196.27C51.4642 166.117 -3.66378 155.384 -15.4412 132.898C-27.2185 110.155 4.35483 75.658 24.4013 37.5836C44.4479 -0.490879 52.7171 -42.1428 77.2741 -56.9638C101.581 -71.7847 142.175 -60.0302 177.006 -50.5754C211.586 -41.1207 240.403 -34.4768 269.971 -21.9557Z" fill="url(#paint1_linear_2001_1402)"/>
</g>
</g>
<defs>
<filter id="filter0_f_2001_1402" x="-103" y="-166" width="673.756" height="474.85" filterUnits="userSpaceOnUse" color-interpolation-filters="sRGB">
<feFlood flood-opacity="0" result="BackgroundImageFix"/>
<feBlend mode="normal" in="SourceGraphic" in2="BackgroundImageFix" result="shape"/>
<feGaussianBlur stdDeviation="30" result="effect1_foregroundBlur_2001_1402"/>
</filter>
<filter id="filter1_f_2001_1402" x="-32" y="-173" width="475" height="394" filterUnits="userSpaceOnUse" color-interpolation-filters="sRGB">
<feFlood flood-opacity="0" result="BackgroundImageFix"/>
<feBlend mode="normal" in="SourceGraphic" in2="BackgroundImageFix" result="shape"/>
<feGaussianBlur stdDeviation="30" result="effect1_foregroundBlur_2001_1402"/>
</filter>
<filter id="filter2_f_2001_1402" x="-78" y="-124" width="465" height="482" filterUnits="userSpaceOnUse" color-interpolation-filters="sRGB">
<feFlood flood-opacity="0" result="BackgroundImageFix"/>
<feBlend mode="normal" in="SourceGraphic" in2="BackgroundImageFix" result="shape"/>
<feGaussianBlur stdDeviation="30" result="effect1_foregroundBlur_2001_1402"/>
</filter>
<linearGradient id="paint0_linear_2001_1402" x1="-26.3312" y1="-106" x2="-17.6462" y2="260.962" gradientUnits="userSpaceOnUse">
<stop stop-color="#99E1D9"/>
<stop offset="1" stop-color="#3B736D"/>
</linearGradient>
<linearGradient id="paint1_linear_2001_1402" x1="-18" y1="287.103" x2="338.534" y2="274.552" gradientUnits="userSpaceOnUse">
<stop stop-color="#99E1D9"/>
<stop offset="1" stop-color="#3B736D"/>
</linearGradient>
<clipPath id="clip0_2001_1402">
<rect width="409" height="358" fill="white"/>
</clipPath>
</defs>
</svg>
