<svg width="409" height="380" viewBox="0 0 409 380" fill="none" xmlns="http://www.w3.org/2000/svg">
<rect width="409" height="380" fill="#171F24"/>
<g clip-path="url(#clip0_2001_1398)">
<rect width="409" height="309" fill="#171F24"/>
<g opacity="0.6" filter="url(#filter0_f_2001_1398)">
<path d="M-43.0001 71.4152C-43.0001 169.404 80.9624 248.84 233.878 248.84C386.793 248.84 510.756 169.404 510.756 71.4152C510.756 -26.5739 386.793 -106.01 233.878 -106.01C80.9624 -106.01 -43.0001 -26.5739 -43.0001 71.4152Z" fill="url(#paint0_linear_2001_1398)"/>
</g>
<g filter="url(#filter1_f_2001_1398)">
<path d="M314.405 9.74249C345.607 45.8304 415.373 88.2669 404.889 99.0949C394.624 110.176 304.144 89.1765 255.138 86.5635C206.351 84.2029 198.819 99.9756 183.875 116.866C168.678 133.974 145.598 152.165 110.912 164.074C76.2252 175.982 29.9325 181.608 27.5556 158.966C25.1446 136.795 66.6835 85.8854 67.7868 47.8863C68.8901 9.88719 29.8102 -15.4202 34.0738 -25.2808C38.5557 -34.889 86.5994 -28.7981 114.152 -33.6561C141.67 -38.0436 149.166 -53.3457 164.684 -71.6132C179.949 -89.6625 203.705 -110.643 227.574 -113.639C251.661 -116.384 275.392 -101.179 283.449 -78.5979C291.507 -56.0167 283.456 -26.5637 314.405 9.74249Z" fill="#0C43C4"/>
</g>
<g style="mix-blend-mode:color-dodge" opacity="0.9" filter="url(#filter2_f_2001_1398)">
<path d="M155.924 -141.676C204.158 -169.921 267.933 -241.241 278.171 -226.852C288.747 -212.66 245.25 -112.897 231.785 -56.9938C218.656 -1.28802 235.221 10.7557 251.491 31.5789C267.959 52.7394 283.993 83.2141 290.312 125.719C296.631 168.225 293.236 222.761 266.643 220.666C240.586 218.711 190.796 159.986 147.253 150.603C103.71 141.22 66.2161 180.843 55.7655 173.826C45.6522 166.611 62.9196 112.559 63.201 79.7783C64.0173 47.1375 47.9872 35.2335 30.2521 13.4561C12.7145 -7.98402 -6.38843 -39.8325 -4.74851 -67.9727C-2.7713 -96.3104 19.809 -120.405 47.5438 -124.868C75.2786 -129.332 107.493 -113.768 155.924 -141.676Z" fill="url(#paint1_linear_2001_1398)"/>
</g>
</g>
<defs>
<filter id="filter0_f_2001_1398" x="-103" y="-166.01" width="673.756" height="474.85" filterUnits="userSpaceOnUse" color-interpolation-filters="sRGB">
<feFlood flood-opacity="0" result="BackgroundImageFix"/>
<feBlend mode="normal" in="SourceGraphic" in2="BackgroundImageFix" result="shape"/>
<feGaussianBlur stdDeviation="30" result="effect1_foregroundBlur_2001_1398"/>
</filter>
<filter id="filter1_f_2001_1398" x="-32.5454" y="-173.959" width="498.498" height="408.436" filterUnits="userSpaceOnUse" color-interpolation-filters="sRGB">
<feFlood flood-opacity="0" result="BackgroundImageFix"/>
<feBlend mode="normal" in="SourceGraphic" in2="BackgroundImageFix" result="shape"/>
<feGaussianBlur stdDeviation="30" result="effect1_foregroundBlur_2001_1398"/>
</filter>
<filter id="filter2_f_2001_1398" x="-64.8472" y="-288.748" width="417.888" height="569.473" filterUnits="userSpaceOnUse" color-interpolation-filters="sRGB">
<feFlood flood-opacity="0" result="BackgroundImageFix"/>
<feBlend mode="normal" in="SourceGraphic" in2="BackgroundImageFix" result="shape"/>
<feGaussianBlur stdDeviation="30" result="effect1_foregroundBlur_2001_1398"/>
</filter>
<linearGradient id="paint0_linear_2001_1398" x1="-26.332" y1="-106.01" x2="-17.646" y2="260.952" gradientUnits="userSpaceOnUse">
<stop stop-color="#99E1D9"/>
<stop offset="1" stop-color="#3B736D"/>
</linearGradient>
<linearGradient id="paint1_linear_2001_1398" x1="124.875" y1="292.678" x2="469.765" y2="74.1362" gradientUnits="userSpaceOnUse">
<stop stop-color="#99E1D9"/>
<stop offset="1" stop-color="#3B736D"/>
</linearGradient>
<clipPath id="clip0_2001_1398">
<rect width="409" height="309" fill="white"/>
</clipPath>
</defs>
</svg>
