<svg width="32" height="32" viewBox="0 0 32 32" fill="none" xmlns="http://www.w3.org/2000/svg">
<path d="M14.6667 17.333C14.403 17.333 14.1453 17.4112 13.926 17.5577C13.7067 17.7042 13.5358 17.9125 13.4349 18.1561C13.334 18.3997 13.3076 18.6678 13.359 18.9265C13.4105 19.1851 13.5375 19.4227 13.7239 19.6091C13.9104 19.7956 14.148 19.9226 14.4066 19.9741C14.6653 20.0255 14.9334 19.9991 15.177 19.8982C15.4206 19.7973 15.6289 19.6264 15.7754 19.4071C15.9219 19.1878 16.0001 18.93 16.0001 18.6663C16.0001 18.3127 15.8596 17.9736 15.6096 17.7235C15.3595 17.4735 15.0204 17.333 14.6667 17.333ZM9.33341 17.333C9.06971 17.333 8.81192 17.4112 8.59265 17.5577C8.37339 17.7042 8.20249 17.9125 8.10158 18.1561C8.00066 18.3997 7.97425 18.6678 8.0257 18.9265C8.07715 19.1851 8.20414 19.4227 8.39061 19.6091C8.57708 19.7956 8.81465 19.9226 9.07329 19.9741C9.33194 20.0255 9.60002 19.9991 9.84366 19.8982C10.0873 19.7973 10.2955 19.6264 10.442 19.4071C10.5885 19.1878 10.6667 18.93 10.6667 18.6663C10.6667 18.3127 10.5263 17.9736 10.2762 17.7235C10.0262 17.4735 9.68704 17.333 9.33341 17.333ZM29.3334 5.33301C29.3334 4.27214 28.912 3.25473 28.1618 2.50458C27.4117 1.75444 26.3943 1.33301 25.3334 1.33301H6.66675C5.60588 1.33301 4.58847 1.75444 3.83832 2.50458C3.08818 3.25473 2.66675 4.27214 2.66675 5.33301V10.6663C2.67263 11.6531 3.04303 12.6028 3.70675 13.333C3.04303 14.0632 2.67263 15.0129 2.66675 15.9997V21.333C2.66675 22.3939 3.08818 23.4113 3.83832 24.1614C4.58847 24.9116 5.60588 25.333 6.66675 25.333H14.6667V27.9997H4.00008C3.64646 27.9997 3.30732 28.1401 3.05727 28.3902C2.80722 28.6402 2.66675 28.9794 2.66675 29.333C2.66675 29.6866 2.80722 30.0258 3.05727 30.2758C3.30732 30.5259 3.64646 30.6663 4.00008 30.6663H28.0001C28.3537 30.6663 28.6928 30.5259 28.9429 30.2758C29.1929 30.0258 29.3334 29.6866 29.3334 29.333C29.3334 28.9794 29.1929 28.6402 28.9429 28.3902C28.6928 28.1401 28.3537 27.9997 28.0001 27.9997H17.3334V25.333H25.3334C26.3943 25.333 27.4117 24.9116 28.1618 24.1614C28.912 23.4113 29.3334 22.3939 29.3334 21.333V15.9997C29.3275 15.0129 28.9571 14.0632 28.2934 13.333C28.9571 12.6028 29.3275 11.6531 29.3334 10.6663V5.33301ZM26.6667 21.333C26.6667 21.6866 26.5263 22.0258 26.2762 22.2758C26.0262 22.5259 25.687 22.6663 25.3334 22.6663H6.66675C6.31313 22.6663 5.97399 22.5259 5.72394 22.2758C5.47389 22.0258 5.33341 21.6866 5.33341 21.333V15.9997C5.33341 15.6461 5.47389 15.3069 5.72394 15.0569C5.97399 14.8068 6.31313 14.6663 6.66675 14.6663H25.3334C25.687 14.6663 26.0262 14.8068 26.2762 15.0569C26.5263 15.3069 26.6667 15.6461 26.6667 15.9997V21.333ZM26.6667 10.6663C26.6667 11.02 26.5263 11.3591 26.2762 11.6091C26.0262 11.8592 25.687 11.9997 25.3334 11.9997H6.66675C6.31313 11.9997 5.97399 11.8592 5.72394 11.6091C5.47389 11.3591 5.33341 11.02 5.33341 10.6663V5.33301C5.33341 4.97939 5.47389 4.64025 5.72394 4.3902C5.97399 4.14015 6.31313 3.99967 6.66675 3.99967H25.3334C25.687 3.99967 26.0262 4.14015 26.2762 4.3902C26.5263 4.64025 26.6667 4.97939 26.6667 5.33301V10.6663ZM14.6667 6.66634C14.403 6.66634 14.1453 6.74454 13.926 6.89105C13.7067 7.03756 13.5358 7.24579 13.4349 7.48943C13.334 7.73306 13.3076 8.00115 13.359 8.25979C13.4105 8.51844 13.5375 8.75601 13.7239 8.94248C13.9104 9.12895 14.148 9.25594 14.4066 9.30739C14.6653 9.35883 14.9334 9.33243 15.177 9.23151C15.4206 9.1306 15.6289 8.9597 15.7754 8.74043C15.9219 8.52117 16.0001 8.26338 16.0001 7.99967C16.0001 7.64605 15.8596 7.30691 15.6096 7.05687C15.3595 6.80682 15.0204 6.66634 14.6667 6.66634ZM9.33341 6.66634C9.06971 6.66634 8.81192 6.74454 8.59265 6.89105C8.37339 7.03756 8.20249 7.24579 8.10158 7.48943C8.00066 7.73306 7.97425 8.00115 8.0257 8.25979C8.07715 8.51844 8.20414 8.75601 8.39061 8.94248C8.57708 9.12895 8.81465 9.25594 9.07329 9.30739C9.33194 9.35883 9.60002 9.33243 9.84366 9.23151C10.0873 9.1306 10.2955 8.9597 10.442 8.74043C10.5885 8.52117 10.6667 8.26338 10.6667 7.99967C10.6667 7.64605 10.5263 7.30691 10.2762 7.05687C10.0262 6.80682 9.68704 6.66634 9.33341 6.66634Z" fill="url(#paint0_linear_188_630)"/>
<defs>
<linearGradient id="paint0_linear_188_630" x1="2.66675" y1="29.7834" x2="30.228" y2="28.8579" gradientUnits="userSpaceOnUse">
<stop stop-color="#99E1D9"/>
<stop offset="1" stop-color="#3B736D"/>
</linearGradient>
</defs>
</svg>
