<svg width="568" height="350" viewBox="0 0 568 350" fill="none" xmlns="http://www.w3.org/2000/svg">
<mask id="mask0_547_1365" style="mask-type:luminance" maskUnits="userSpaceOnUse" x="-829" y="-124" width="1920" height="2707">
<path d="M1091 -124H-829V2583H1091V-124Z" fill="white"/>
</mask>
<g mask="url(#mask0_547_1365)">
<path d="M1091 -124H-829V2583H1091V-124Z" fill="#171F24"/>
<g opacity="0.6" filter="url(#filter0_f_547_1365)">
<path d="M300.527 230.878C358.808 255.916 417.163 250.354 430.867 218.456C444.571 186.557 408.434 140.401 350.153 115.363C291.872 90.3247 233.517 95.8863 219.813 127.785C206.109 159.684 242.246 205.84 300.527 230.878Z" fill="url(#paint0_linear_547_1365)"/>
</g>
<g opacity="0.6" filter="url(#filter1_f_547_1365)">
<path d="M307.873 266.811C356.167 287.559 412.137 265.228 432.884 216.934C453.632 168.639 431.301 112.67 383.007 91.9224C334.713 71.1747 278.743 93.5056 257.996 141.8C237.248 190.094 259.579 246.063 307.873 266.811Z" fill="url(#paint1_linear_547_1365)"/>
</g>
<g opacity="0.8" filter="url(#filter2_f_547_1365)">
<path d="M100 175C100 216.421 170.515 250 257.5 250C344.485 250 415 216.421 415 175C415 133.579 344.485 100 257.5 100C170.515 100 100 133.579 100 175Z" fill="#0C43C4"/>
</g>
<g style="mix-blend-mode:color-dodge" opacity="0.9" filter="url(#filter3_f_547_1365)">
<path d="M207.926 251.738C241.574 277.623 294.832 264.833 326.881 223.172C358.929 181.51 357.633 126.753 323.984 100.869C290.336 74.9845 237.078 87.7742 205.029 129.436C172.981 171.097 174.278 225.854 207.926 251.738Z" fill="url(#paint2_linear_547_1365)"/>
</g>
<g style="mix-blend-mode:color-dodge" filter="url(#filter4_f_547_1365)">
<path d="M525.94 117.838C516.152 88.104 447.056 84.1336 371.609 108.97C296.162 133.806 242.935 178.044 252.723 207.778C262.511 237.512 331.608 241.482 407.055 216.646C482.502 191.81 535.728 147.572 525.94 117.838Z" fill="url(#paint3_linear_547_1365)"/>
</g>
<g filter="url(#filter5_f_547_1365)">
</g>
</g>
<defs>
<filter id="filter0_f_547_1365" x="176.911" y="59.6924" width="296.859" height="226.855" filterUnits="userSpaceOnUse" color-interpolation-filters="sRGB">
<feFlood flood-opacity="0" result="BackgroundImageFix"/>
<feBlend mode="normal" in="SourceGraphic" in2="BackgroundImageFix" result="shape"/>
<feGaussianBlur stdDeviation="20" result="effect1_foregroundBlur_547_1365"/>
</filter>
<filter id="filter1_f_547_1365" x="210.243" y="44.1699" width="270.394" height="270.394" filterUnits="userSpaceOnUse" color-interpolation-filters="sRGB">
<feFlood flood-opacity="0" result="BackgroundImageFix"/>
<feBlend mode="normal" in="SourceGraphic" in2="BackgroundImageFix" result="shape"/>
<feGaussianBlur stdDeviation="20" result="effect1_foregroundBlur_547_1365"/>
</filter>
<filter id="filter2_f_547_1365" x="0" y="0" width="515" height="350" filterUnits="userSpaceOnUse" color-interpolation-filters="sRGB">
<feFlood flood-opacity="0" result="BackgroundImageFix"/>
<feBlend mode="normal" in="SourceGraphic" in2="BackgroundImageFix" result="shape"/>
<feGaussianBlur stdDeviation="50" result="effect1_foregroundBlur_547_1365"/>
</filter>
<filter id="filter3_f_547_1365" x="141.816" y="47.4824" width="248.278" height="257.643" filterUnits="userSpaceOnUse" color-interpolation-filters="sRGB">
<feFlood flood-opacity="0" result="BackgroundImageFix"/>
<feBlend mode="normal" in="SourceGraphic" in2="BackgroundImageFix" result="shape"/>
<feGaussianBlur stdDeviation="20" result="effect1_foregroundBlur_547_1365"/>
</filter>
<filter id="filter4_f_547_1365" x="211.563" y="52.6572" width="355.538" height="220.302" filterUnits="userSpaceOnUse" color-interpolation-filters="sRGB">
<feFlood flood-opacity="0" result="BackgroundImageFix"/>
<feBlend mode="normal" in="SourceGraphic" in2="BackgroundImageFix" result="shape"/>
<feGaussianBlur stdDeviation="20" result="effect1_foregroundBlur_547_1365"/>
</filter>
<filter id="filter5_f_547_1365" x="-980.625" y="-448.554" width="1554.46" height="511.546" filterUnits="userSpaceOnUse" color-interpolation-filters="sRGB">
<feFlood flood-opacity="0" result="BackgroundImageFix"/>
<feBlend mode="normal" in="SourceGraphic" in2="BackgroundImageFix" result="shape"/>
<feGaussianBlur stdDeviation="75" result="effect1_foregroundBlur_547_1365"/>
</filter>
<linearGradient id="paint0_linear_547_1365" x1="196.494" y1="182.066" x2="420.187" y2="260.787" gradientUnits="userSpaceOnUse">
<stop stop-color="#A4E0D9"/>
<stop offset="1" stop-color="#0A2421"/>
</linearGradient>
<linearGradient id="paint1_linear_547_1365" x1="222.691" y1="223.98" x2="406.271" y2="294.941" gradientUnits="userSpaceOnUse">
<stop stop-color="#A4E0D9"/>
<stop offset="1" stop-color="#0A2421"/>
</linearGradient>
<linearGradient id="paint2_linear_547_1365" x1="150.494" y1="200.328" x2="279.354" y2="293.474" gradientUnits="userSpaceOnUse">
<stop stop-color="#A4E0D9"/>
<stop offset="1" stop-color="#0A2421"/>
</linearGradient>
<linearGradient id="paint3_linear_547_1365" x1="535.44" y1="174.384" x2="497.15" y2="63.527" gradientUnits="userSpaceOnUse">
<stop stop-color="#A4E0D9"/>
<stop offset="1" stop-color="#0A2421"/>
</linearGradient>
</defs>
</svg>
