<svg width="409" height="320" viewBox="0 0 409 320" fill="none" xmlns="http://www.w3.org/2000/svg">
<g opacity="0.6" filter="url(#filter0_f_309_1308)">
<ellipse cx="233.879" cy="71.4093" rx="177.425" ry="276.878" transform="rotate(90 233.879 71.4093)" fill="url(#paint0_linear_309_1308)"/>
</g>
<g filter="url(#filter1_f_309_1308)">
<path d="M283.964 -190.012C300.491 -190.336 288.501 -131.746 309.565 -93.2255C330.954 -54.3813 384.751 -35.6066 377.297 -21.04C369.519 -6.47346 300.167 3.88498 261.602 12.6249C223.362 21.3649 215.908 29.1337 207.158 69.9201C198.408 110.707 188.361 184.511 175.074 189.69C161.787 194.869 145.908 130.776 103.13 109.735C60.352 88.3711 -9 109.735 -9 95.8163C-8.67593 81.8971 60.6761 32.6944 77.852 -6.47346C95.352 -45.6414 60.676 -75.0982 54.8427 -98.7285C49.0094 -122.682 72.0187 -141.133 97.2965 -135.954C122.898 -130.451 150.445 -101.318 186.417 -116.208C222.713 -131.099 267.436 -189.689 283.964 -190.012Z" fill="#0C43C4"/>
</g>
<g style="mix-blend-mode:color-dodge" opacity="0.9" filter="url(#filter2_f_309_1308)">
<path d="M-46.2733 -126.402C-41.8014 -143.589 15.3025 -114.149 61.2647 -124.731C107.656 -135.554 142.717 -185.728 155.613 -173.783C168.415 -161.503 158.959 -86.7703 156.782 -44.3466C154.699 -2.25795 160.565 7.70969 200.2 28.6201C239.835 49.5304 313.238 81.3836 314.73 96.6306C316.222 111.878 245.322 109.66 211.122 147.78C176.587 185.806 178.512 263.74 164.118 259.692C149.817 255.308 119.103 169.279 83.5927 140.125C48.1765 110.637 7.62907 137.93 -18.5047 137.091C-44.9732 136.157 -57.3628 106.996 -44.6553 82.3611C-31.5189 57.4852 6.62027 37.4705 1.68291 -4.06074C-3.16021 -45.9271 -50.7451 -109.216 -46.2733 -126.402Z" fill="url(#paint1_linear_309_1308)"/>
</g>
<defs>
<filter id="filter0_f_309_1308" x="-103" y="-166.016" width="673.757" height="474.85" filterUnits="userSpaceOnUse" color-interpolation-filters="sRGB">
<feFlood flood-opacity="0" result="BackgroundImageFix"/>
<feBlend mode="normal" in="SourceGraphic" in2="BackgroundImageFix" result="shape"/>
<feGaussianBlur stdDeviation="30" result="effect1_foregroundBlur_309_1308"/>
</filter>
<filter id="filter1_f_309_1308" x="-69" y="-250.014" width="507" height="500" filterUnits="userSpaceOnUse" color-interpolation-filters="sRGB">
<feFlood flood-opacity="0" result="BackgroundImageFix"/>
<feBlend mode="normal" in="SourceGraphic" in2="BackgroundImageFix" result="shape"/>
<feGaussianBlur stdDeviation="30" result="effect1_foregroundBlur_309_1308"/>
</filter>
<filter id="filter2_f_309_1308" x="-109.677" y="-235.609" width="484.43" height="555.453" filterUnits="userSpaceOnUse" color-interpolation-filters="sRGB">
<feFlood flood-opacity="0" result="BackgroundImageFix"/>
<feBlend mode="normal" in="SourceGraphic" in2="BackgroundImageFix" result="shape"/>
<feGaussianBlur stdDeviation="30" result="effect1_foregroundBlur_309_1308"/>
</filter>
<linearGradient id="paint0_linear_309_1308" x1="56.4536" y1="331.619" x2="423.416" y2="322.933" gradientUnits="userSpaceOnUse">
<stop stop-color="#99E1D9"/>
<stop offset="1" stop-color="#3B736D"/>
</linearGradient>
<linearGradient id="paint1_linear_309_1308" x1="249.675" y1="283.752" x2="350.409" y2="-134.148" gradientUnits="userSpaceOnUse">
<stop stop-color="#99E1D9"/>
<stop offset="1" stop-color="#3B736D"/>
</linearGradient>
</defs>
</svg>
