<svg width="568" height="350" viewBox="0 0 568 350" fill="none" xmlns="http://www.w3.org/2000/svg">
<g clip-path="url(#clip0_2001_1476)">
<rect width="568" height="350" fill="#171F24"/>
<g opacity="0.6" filter="url(#filter0_f_2001_1476)">
<path d="M300.527 230.878C358.808 255.916 417.163 250.354 430.867 218.456C444.571 186.557 408.434 140.401 350.153 115.363C291.872 90.3247 233.517 95.8863 219.813 127.785C206.109 159.684 242.246 205.84 300.527 230.878Z" fill="url(#paint0_linear_2001_1476)"/>
</g>
<g opacity="0.6" filter="url(#filter1_f_2001_1476)">
<path d="M307.873 266.81C356.167 287.558 412.137 265.227 432.884 216.933C453.632 168.638 431.301 112.669 383.007 91.9214C334.713 71.1738 278.743 93.5047 257.996 141.799C237.248 190.093 259.579 246.062 307.873 266.81Z" fill="url(#paint1_linear_2001_1476)"/>
</g>
<g opacity="0.8" filter="url(#filter2_f_2001_1476)">
<path d="M100 175C100 216.421 170.515 250 257.5 250C344.485 250 415 216.421 415 175C415 133.579 344.485 100 257.5 100C170.515 100 100 133.579 100 175Z" fill="#0C43C4"/>
</g>
<g style="mix-blend-mode:color-dodge" opacity="0.9" filter="url(#filter3_f_2001_1476)">
<path d="M207.926 251.737C241.574 277.622 294.832 264.832 326.881 223.171C358.929 181.509 357.633 126.752 323.984 100.868C290.336 74.9835 237.078 87.7733 205.029 129.435C172.981 171.096 174.278 225.853 207.926 251.737Z" fill="url(#paint2_linear_2001_1476)"/>
</g>
<g style="mix-blend-mode:color-dodge" filter="url(#filter4_f_2001_1476)">
<path d="M525.94 117.838C516.152 88.104 447.056 84.1336 371.609 108.97C296.162 133.806 242.935 178.044 252.723 207.778C262.511 237.512 331.608 241.482 407.055 216.646C482.502 191.81 535.728 147.572 525.94 117.838Z" fill="url(#paint3_linear_2001_1476)"/>
</g>
</g>
<defs>
<filter id="filter0_f_2001_1476" x="176.911" y="59.6924" width="296.859" height="226.855" filterUnits="userSpaceOnUse" color-interpolation-filters="sRGB">
<feFlood flood-opacity="0" result="BackgroundImageFix"/>
<feBlend mode="normal" in="SourceGraphic" in2="BackgroundImageFix" result="shape"/>
<feGaussianBlur stdDeviation="20" result="effect1_foregroundBlur_2001_1476"/>
</filter>
<filter id="filter1_f_2001_1476" x="210.243" y="44.1689" width="270.394" height="270.394" filterUnits="userSpaceOnUse" color-interpolation-filters="sRGB">
<feFlood flood-opacity="0" result="BackgroundImageFix"/>
<feBlend mode="normal" in="SourceGraphic" in2="BackgroundImageFix" result="shape"/>
<feGaussianBlur stdDeviation="20" result="effect1_foregroundBlur_2001_1476"/>
</filter>
<filter id="filter2_f_2001_1476" x="0" y="0" width="515" height="350" filterUnits="userSpaceOnUse" color-interpolation-filters="sRGB">
<feFlood flood-opacity="0" result="BackgroundImageFix"/>
<feBlend mode="normal" in="SourceGraphic" in2="BackgroundImageFix" result="shape"/>
<feGaussianBlur stdDeviation="50" result="effect1_foregroundBlur_2001_1476"/>
</filter>
<filter id="filter3_f_2001_1476" x="141.816" y="47.4814" width="248.278" height="257.643" filterUnits="userSpaceOnUse" color-interpolation-filters="sRGB">
<feFlood flood-opacity="0" result="BackgroundImageFix"/>
<feBlend mode="normal" in="SourceGraphic" in2="BackgroundImageFix" result="shape"/>
<feGaussianBlur stdDeviation="20" result="effect1_foregroundBlur_2001_1476"/>
</filter>
<filter id="filter4_f_2001_1476" x="211.563" y="52.6572" width="355.538" height="220.302" filterUnits="userSpaceOnUse" color-interpolation-filters="sRGB">
<feFlood flood-opacity="0" result="BackgroundImageFix"/>
<feBlend mode="normal" in="SourceGraphic" in2="BackgroundImageFix" result="shape"/>
<feGaussianBlur stdDeviation="20" result="effect1_foregroundBlur_2001_1476"/>
</filter>
<linearGradient id="paint0_linear_2001_1476" x1="196.494" y1="182.066" x2="420.187" y2="260.787" gradientUnits="userSpaceOnUse">
<stop stop-color="#A4E0D9"/>
<stop offset="1" stop-color="#0A2421"/>
</linearGradient>
<linearGradient id="paint1_linear_2001_1476" x1="222.691" y1="223.979" x2="406.271" y2="294.94" gradientUnits="userSpaceOnUse">
<stop stop-color="#A4E0D9"/>
<stop offset="1" stop-color="#0A2421"/>
</linearGradient>
<linearGradient id="paint2_linear_2001_1476" x1="150.494" y1="200.327" x2="279.354" y2="293.473" gradientUnits="userSpaceOnUse">
<stop stop-color="#A4E0D9"/>
<stop offset="1" stop-color="#0A2421"/>
</linearGradient>
<linearGradient id="paint3_linear_2001_1476" x1="535.44" y1="174.384" x2="497.15" y2="63.527" gradientUnits="userSpaceOnUse">
<stop stop-color="#A4E0D9"/>
<stop offset="1" stop-color="#0A2421"/>
</linearGradient>
<clipPath id="clip0_2001_1476">
<rect width="568" height="350" fill="white"/>
</clipPath>
</defs>
</svg>
