<svg width="409" height="380" viewBox="0 0 409 380" fill="none" xmlns="http://www.w3.org/2000/svg">
<g clip-path="url(#clip0_2001_1400)">
<rect width="409" height="380" fill="#171F24"/>
<g clip-path="url(#clip1_2001_1400)">
<rect width="409" height="380" fill="#171F24"/>
<g opacity="0.6" filter="url(#filter0_f_2001_1400)">
<path d="M-43.0001 71.425C-43.0001 169.414 80.9624 248.85 233.878 248.85C386.793 248.85 510.756 169.414 510.756 71.425C510.756 -26.5641 386.793 -106 233.878 -106C80.9624 -106 -43.0001 -26.5641 -43.0001 71.425Z" fill="url(#paint0_linear_2001_1400)"/>
</g>
<g filter="url(#filter1_f_2001_1400)">
<path d="M79.0001 -19.466C79.0001 89.0756 216.313 177.066 385.696 177.066C555.08 177.066 692.392 89.0756 692.392 -19.466C692.392 -128.008 555.08 -215.998 385.696 -215.998C216.313 -215.998 79.0001 -128.008 79.0001 -19.466Z" fill="#0C43C4"/>
</g>
<g style="mix-blend-mode:color-dodge" opacity="0.9" filter="url(#filter2_f_2001_1400)">
<path d="M176.559 -119.397C220.386 -149.154 286.539 -164.996 323.751 -142.089C361.514 -119.183 370.059 -57.314 373.642 -12.5716C377.501 32.385 376.123 60.4293 373.091 85.9046C369.783 111.166 364.27 133.858 348.559 149.914C332.572 165.756 306.11 174.747 278.546 212.425C250.706 250.317 221.764 316.895 194.751 319.893C167.738 322.89 142.931 262.519 103.79 227.411C64.9241 192.088 11.7254 182.454 12.0011 162.117C12.5523 141.993 66.3023 111.38 88.078 82.0512C110.405 52.7225 100.206 25.1063 105.995 -10.6448C111.507 -46.1819 133.007 -89.8539 176.559 -119.397Z" fill="url(#paint1_linear_2001_1400)"/>
</g>
</g>
</g>
<defs>
<filter id="filter0_f_2001_1400" x="-103" y="-166" width="673.756" height="474.85" filterUnits="userSpaceOnUse" color-interpolation-filters="sRGB">
<feFlood flood-opacity="0" result="BackgroundImageFix"/>
<feBlend mode="normal" in="SourceGraphic" in2="BackgroundImageFix" result="shape"/>
<feGaussianBlur stdDeviation="30" result="effect1_foregroundBlur_2001_1400"/>
</filter>
<filter id="filter1_f_2001_1400" x="19" y="-275.998" width="733.392" height="513.064" filterUnits="userSpaceOnUse" color-interpolation-filters="sRGB">
<feFlood flood-opacity="0" result="BackgroundImageFix"/>
<feBlend mode="normal" in="SourceGraphic" in2="BackgroundImageFix" result="shape"/>
<feGaussianBlur stdDeviation="30" result="effect1_foregroundBlur_2001_1400"/>
</filter>
<filter id="filter2_f_2001_1400" x="-48" y="-213" width="484" height="593" filterUnits="userSpaceOnUse" color-interpolation-filters="sRGB">
<feFlood flood-opacity="0" result="BackgroundImageFix"/>
<feBlend mode="normal" in="SourceGraphic" in2="BackgroundImageFix" result="shape"/>
<feGaussianBlur stdDeviation="30" result="effect1_foregroundBlur_2001_1400"/>
</filter>
<linearGradient id="paint0_linear_2001_1400" x1="-26.3312" y1="-106" x2="-17.6462" y2="260.963" gradientUnits="userSpaceOnUse">
<stop stop-color="#99E1D9"/>
<stop offset="1" stop-color="#3B736D"/>
</linearGradient>
<linearGradient id="paint1_linear_2001_1400" x1="12" y1="305.762" x2="388.332" y2="295.065" gradientUnits="userSpaceOnUse">
<stop stop-color="#99E1D9"/>
<stop offset="1" stop-color="#3B736D"/>
</linearGradient>
<clipPath id="clip0_2001_1400">
<rect width="409" height="380" fill="white"/>
</clipPath>
<clipPath id="clip1_2001_1400">
<rect width="409" height="380" fill="white"/>
</clipPath>
</defs>
</svg>
