<svg width="32" height="32" viewBox="0 0 32 32" fill="none" xmlns="http://www.w3.org/2000/svg">
<path d="M11.3334 25.3337C10.9798 25.3337 10.6407 25.4741 10.3906 25.7242C10.1406 25.9742 10.0001 26.3134 10.0001 26.667V28.0003C10.0001 28.3539 10.1406 28.6931 10.3906 28.9431C10.6407 29.1932 10.9798 29.3337 11.3334 29.3337C11.687 29.3337 12.0262 29.1932 12.2762 28.9431C12.5263 28.6931 12.6668 28.3539 12.6668 28.0003V26.667C12.6668 26.3134 12.5263 25.9742 12.2762 25.7242C12.0262 25.4741 11.687 25.3337 11.3334 25.3337ZM11.3334 18.667C10.9798 18.667 10.6407 18.8075 10.3906 19.0575C10.1406 19.3076 10.0001 19.6467 10.0001 20.0003V21.3337C10.0001 21.6873 10.1406 22.0264 10.3906 22.2765C10.6407 22.5265 10.9798 22.667 11.3334 22.667C11.687 22.667 12.0262 22.5265 12.2762 22.2765C12.5263 22.0264 12.6668 21.6873 12.6668 21.3337V20.0003C12.6668 19.6467 12.5263 19.3076 12.2762 19.0575C12.0262 18.8075 11.687 18.667 11.3334 18.667ZM28.0001 9.33366H26.9334C26.7956 8.73538 26.5614 8.16348 26.2401 7.64033L26.9868 6.89366C27.2052 6.63859 27.3193 6.31049 27.3064 5.97492C27.2934 5.63935 27.1543 5.32103 26.9168 5.08357C26.6794 4.84612 26.3611 4.70701 26.0255 4.69404C25.6899 4.68108 25.3618 4.79522 25.1068 5.01366L24.3601 5.76033C23.8369 5.43901 23.265 5.20485 22.6668 5.06699V4.00033C22.6668 3.6467 22.5263 3.30756 22.2762 3.05752C22.0262 2.80747 21.687 2.66699 21.3334 2.66699C20.9798 2.66699 20.6407 2.80747 20.3906 3.05752C20.1406 3.30756 20.0001 3.6467 20.0001 4.00033V5.06699C19.4053 5.20274 18.8375 5.43709 18.3201 5.76033L17.5601 5.01366C17.305 4.79522 16.9769 4.68108 16.6414 4.69404C16.3058 4.70701 15.9875 4.84612 15.75 5.08357C15.5125 5.32103 15.3734 5.63935 15.3605 5.97492C15.3475 6.31049 15.4617 6.63859 15.6801 6.89366L16.4268 7.65366C16.3068 7.85366 16.2134 8.08033 16.1068 8.29366C15.4212 8.10015 14.7124 8.00145 14.0001 8.00033C12.0786 7.99923 10.2208 8.68979 8.76658 9.94574C7.31233 11.2017 6.35871 12.9391 6.08009 14.8403C5.1516 15.0989 4.32594 15.6386 3.71653 16.3853C3.10713 17.132 2.74386 18.049 2.67665 19.0105C2.60943 19.972 2.84156 20.9307 3.34115 21.7549C3.84074 22.5791 4.58327 23.2284 5.46676 23.6137C5.63667 23.681 5.81734 23.7171 6.00009 23.7203C6.30835 23.7228 6.60796 23.6185 6.84793 23.425C7.0879 23.2314 7.2534 22.9608 7.31628 22.659C7.37915 22.3572 7.33551 22.0429 7.19277 21.7697C7.05004 21.4965 6.81704 21.2811 6.53342 21.1603C6.17568 21.0079 5.87094 20.7533 5.65744 20.4283C5.44395 20.1033 5.33122 19.7225 5.33342 19.3337C5.33342 18.8032 5.54414 18.2945 5.91921 17.9194C6.29428 17.5444 6.80299 17.3337 7.33342 17.3337C7.68704 17.3337 8.02618 17.1932 8.27623 16.9431C8.52628 16.6931 8.66676 16.3539 8.66676 16.0003C8.67247 14.7413 9.12345 13.5248 9.93987 12.5663C10.7563 11.6078 11.8855 10.969 13.1276 10.763C14.3698 10.5571 15.6447 10.7972 16.7268 11.441C17.8089 12.0847 18.6283 13.0905 19.0401 14.2803C19.1163 14.5094 19.2533 14.7136 19.4365 14.8709C19.6196 15.0282 19.8421 15.1329 20.0801 15.1737C20.6994 15.2654 21.2763 15.5428 21.7345 15.9694C22.1928 16.3959 22.5108 16.9514 22.6466 17.5626C22.7824 18.1737 22.7296 18.8117 22.4951 19.3921C22.2607 19.9726 21.8556 20.4683 21.3334 20.8137C21.1863 20.91 21.0597 21.0343 20.9606 21.1795C20.8616 21.3248 20.7922 21.4881 20.7563 21.6602C20.7203 21.8323 20.7187 22.0098 20.7514 22.1826C20.7841 22.3553 20.8505 22.5199 20.9468 22.667C21.0431 22.8141 21.1674 22.9407 21.3126 23.0398C21.4579 23.1388 21.6212 23.2083 21.7933 23.2442C21.9654 23.2801 22.1429 23.2817 22.3157 23.249C22.4884 23.2164 22.653 23.15 22.8001 23.0537C23.5864 22.5192 24.2288 21.7992 24.6707 20.9573C25.1125 20.1155 25.3402 19.1777 25.3334 18.227C25.3323 17.519 25.1965 16.8176 24.9334 16.1603L25.1068 16.3203C25.3551 16.5667 25.6903 16.7055 26.0401 16.707C26.2156 16.708 26.3895 16.6744 26.552 16.608C26.7144 16.5417 26.8622 16.4439 26.9868 16.3203C27.2351 16.0705 27.3745 15.7326 27.3745 15.3803C27.3745 15.0281 27.2351 14.6901 26.9868 14.4403L26.2401 13.6937C26.5614 13.1705 26.7956 12.5986 26.9334 12.0003H28.0001C28.3537 12.0003 28.6929 11.8598 28.9429 11.6098C29.1929 11.3598 29.3334 11.0206 29.3334 10.667C29.3334 10.3134 29.1929 9.97423 28.9429 9.72418C28.6929 9.47414 28.3537 9.33366 28.0001 9.33366ZM23.5468 12.867C23.3151 13.0993 23.0443 13.2889 22.7468 13.427C22.3117 13.1254 21.8358 12.8874 21.3334 12.7203C20.7208 11.3827 19.758 10.2355 18.5468 9.40033C18.6954 9.05593 18.9029 8.74009 19.1601 8.46699V8.46699C19.7589 7.91318 20.5445 7.60556 21.3601 7.60556C22.1757 7.60556 22.9613 7.91318 23.5601 8.46699V8.46699C24.1319 9.05659 24.4517 9.84565 24.4517 10.667C24.4517 11.4883 24.1319 12.2774 23.5601 12.867H23.5468ZM16.6668 24.0003C16.3131 24.0003 15.974 24.1408 15.7239 24.3908C15.4739 24.6409 15.3334 24.98 15.3334 25.3337V26.667C15.3334 27.0206 15.4739 27.3598 15.7239 27.6098C15.974 27.8599 16.3131 28.0003 16.6668 28.0003C17.0204 28.0003 17.3595 27.8599 17.6096 27.6098C17.8596 27.3598 18.0001 27.0206 18.0001 26.667V25.3337C18.0001 24.98 17.8596 24.6409 17.6096 24.3908C17.3595 24.1408 17.0204 24.0003 16.6668 24.0003ZM16.6668 17.3337C16.3131 17.3337 15.974 17.4741 15.7239 17.7242C15.4739 17.9742 15.3334 18.3134 15.3334 18.667V20.0003C15.3334 20.3539 15.4739 20.6931 15.7239 20.9431C15.974 21.1932 16.3131 21.3337 16.6668 21.3337C17.0204 21.3337 17.3595 21.1932 17.6096 20.9431C17.8596 20.6931 18.0001 20.3539 18.0001 20.0003V18.667C18.0001 18.3134 17.8596 17.9742 17.6096 17.7242C17.3595 17.4741 17.0204 17.3337 16.6668 17.3337Z" fill="url(#paint0_linear_188_624)"/>
<defs>
<linearGradient id="paint0_linear_188_624" x1="2.66528" y1="28.531" x2="30.2216" y2="27.5131" gradientUnits="userSpaceOnUse">
<stop stop-color="#99E1D9"/>
<stop offset="1" stop-color="#3B736D"/>
</linearGradient>
</defs>
</svg>
