<svg width="32" height="32" viewBox="0 0 32 32" fill="none" xmlns="http://www.w3.org/2000/svg">
<path d="M14.6667 6C14.8418 6.0001 15.0152 5.96568 15.177 5.89871C15.3389 5.83174 15.4859 5.73353 15.6097 5.6097C15.7335 5.48587 15.8317 5.33884 15.8987 5.17703C15.9657 5.01522 16.0001 4.84179 16 4.66667V3.33333C16 2.97971 15.8595 2.64057 15.6095 2.39052C15.3594 2.14048 15.0203 2 14.6667 2C14.3131 2 13.9739 2.14048 13.7239 2.39052C13.4738 2.64057 13.3333 2.97971 13.3333 3.33333V4.66667C13.3332 4.84179 13.3677 5.01522 13.4346 5.17703C13.5016 5.33884 13.5998 5.48587 13.7236 5.6097C13.8475 5.73353 13.9945 5.83174 14.1563 5.89871C14.3181 5.96568 14.4916 6.0001 14.6667 6V6ZM5.33334 15.3333C5.33344 15.1582 5.29902 14.9848 5.23205 14.823C5.16508 14.6612 5.06687 14.5141 4.94304 14.3903C4.81921 14.2665 4.67219 14.1683 4.51037 14.1013C4.34856 14.0343 4.17513 13.9999 4.00001 14H2.66668C2.31305 14 1.97392 14.1405 1.72387 14.3905C1.47382 14.6406 1.33334 14.9797 1.33334 15.3333C1.33334 15.687 1.47382 16.0261 1.72387 16.2761C1.97392 16.5262 2.31305 16.6667 2.66668 16.6667H4.00001C4.17513 16.6668 4.34856 16.6323 4.51037 16.5654C4.67219 16.4984 4.81921 16.4002 4.94304 16.2764C5.06687 16.1525 5.16508 16.0055 5.23205 15.8437C5.29902 15.6819 5.33344 15.5085 5.33334 15.3333V15.3333ZM6.181 21.9336L5.23833 22.8763C4.98831 23.1263 4.84785 23.4654 4.84785 23.819C4.84785 24.1726 4.98831 24.5117 5.23833 24.7617C5.48835 25.0117 5.82745 25.1522 6.18104 25.1522C6.53462 25.1522 6.87372 25.0117 7.12374 24.7617L8.06641 23.819C8.31643 23.569 8.45689 23.2299 8.45689 22.8763C8.45689 22.5227 8.31643 22.1836 8.06641 21.9336C7.81639 21.6836 7.47729 21.5431 7.1237 21.5431C6.77012 21.5431 6.43102 21.6836 6.181 21.9336V21.9336ZM6.181 8.73307C6.30479 8.85686 6.45176 8.95507 6.61351 9.02207C6.77526 9.08906 6.94863 9.12355 7.1237 9.12355C7.29878 9.12355 7.47214 9.08906 7.63389 9.02207C7.79564 8.95507 7.94261 8.85686 8.06641 8.73307C8.19021 8.60927 8.28841 8.4623 8.35541 8.30055C8.42241 8.1388 8.45689 7.96544 8.45689 7.79036C8.45689 7.61528 8.42241 7.44192 8.35541 7.28017C8.28841 7.11842 8.19021 6.97145 8.06641 6.84765L7.12374 5.90499C6.87373 5.65496 6.53463 5.51449 6.18104 5.51448C5.82746 5.51448 5.48836 5.65493 5.23833 5.90495C4.9883 6.15496 4.84784 6.49406 4.84783 6.84764C4.84782 7.20123 4.98827 7.54033 5.23829 7.79036L6.181 8.73307ZM22.2096 9.12373C22.3848 9.12393 22.5582 9.08952 22.72 9.02248C22.8817 8.95544 23.0287 8.85708 23.1523 8.73307L24.095 7.7904C24.345 7.54038 24.4855 7.20128 24.4855 6.84769C24.4855 6.49411 24.345 6.15501 24.095 5.90499C23.845 5.65497 23.5059 5.5145 23.1523 5.5145C22.7987 5.5145 22.4596 5.65497 22.2096 5.90499L21.2669 6.84765C21.0805 7.03412 20.9535 7.27167 20.9021 7.53028C20.8507 7.78888 20.8771 8.05693 20.978 8.30053C21.0789 8.54413 21.2497 8.75234 21.469 8.89885C21.6882 9.04537 21.9459 9.1236 22.2096 9.12365L22.2096 9.12373ZM17.3333 16C17.3332 16.1751 17.3677 16.3485 17.4346 16.5104C17.5016 16.6722 17.5998 16.8192 17.7236 16.943C17.8475 17.0669 17.9945 17.1651 18.1563 17.232C18.3181 17.299 18.4916 17.3334 18.6667 17.3333H25.3333C26.3939 17.3322 27.4106 16.9104 28.1605 16.1605C28.9104 15.4106 29.3322 14.3938 29.3333 13.3333C29.3333 12.9797 29.1929 12.6406 28.9428 12.3905C28.6928 12.1405 28.3536 12 28 12C27.6464 12 27.3072 12.1405 27.0572 12.3905C26.8072 12.6406 26.6667 12.9797 26.6667 13.3333C26.662 13.6855 26.5201 14.0219 26.271 14.271C26.022 14.52 25.6855 14.662 25.3333 14.6667H18.6667C18.4916 14.6666 18.3181 14.701 18.1563 14.768C17.9945 14.8349 17.8475 14.9331 17.7236 15.057C17.5998 15.1808 17.5016 15.3278 17.4346 15.4896C17.3677 15.6514 17.3332 15.8249 17.3333 16V16ZM26.6667 20H20C19.6464 20 19.3072 20.1405 19.0572 20.3905C18.8072 20.6406 18.6667 20.9797 18.6667 21.3333C18.6667 21.687 18.8072 22.0261 19.0572 22.2761C19.3072 22.5262 19.6464 22.6667 20 22.6667H26.6667C27.0203 22.6667 27.3594 22.8071 27.6095 23.0572C27.8595 23.3072 28 23.6464 28 24C28 24.3536 27.8595 24.6928 27.6095 24.9428C27.3594 25.1929 27.0203 25.3333 26.6667 25.3333C26.3131 25.3333 25.9739 25.4738 25.7239 25.7239C25.4738 25.9739 25.3333 26.313 25.3333 26.6667C25.3333 27.0203 25.4738 27.3594 25.7239 27.6095C25.9739 27.8595 26.3131 28 26.6667 28C27.7275 28 28.745 27.5786 29.4951 26.8284C30.2452 26.0783 30.6667 25.0609 30.6667 24C30.6667 22.9391 30.2452 21.9217 29.4951 21.1716C28.745 20.4214 27.7275 20 26.6667 20ZM12 25.3333C11.7363 25.3333 11.4785 25.4115 11.2592 25.558C11.04 25.7045 10.8691 25.9128 10.7682 26.1564C10.6673 26.4001 10.6408 26.6681 10.6923 26.9268C10.7437 27.1854 10.8707 27.423 11.0572 27.6095C11.2437 27.7959 11.4812 27.9229 11.7399 27.9744C11.9985 28.0258 12.2666 27.9994 12.5103 27.8985C12.7539 27.7976 12.9621 27.6267 13.1086 27.4074C13.2551 27.1882 13.3333 26.9304 13.3333 26.6667C13.3333 26.313 13.1929 25.9739 12.9428 25.7239C12.6928 25.4738 12.3536 25.3333 12 25.3333ZM20 25.3333H17.3333C16.9797 25.3333 16.6406 25.4738 16.3905 25.7239C16.1405 25.9739 16 26.313 16 26.6667C16 27.0203 16.1405 27.3594 16.3905 27.6095C16.6406 27.8595 16.9797 28 17.3333 28H20C20.3522 28.0047 20.6886 28.1466 20.9377 28.3957C21.1867 28.6447 21.3287 28.9812 21.3333 29.3333C21.3333 29.687 21.4738 30.0261 21.7239 30.2761C21.9739 30.5262 22.3131 30.6667 22.6667 30.6667C23.0203 30.6667 23.3594 30.5262 23.6095 30.2761C23.8595 30.0261 24 29.687 24 29.3333C23.9989 28.2728 23.5771 27.2561 22.8272 26.5062C22.0773 25.7563 21.0605 25.3345 20 25.3333ZM14.6667 20C13.429 20 12.242 19.5083 11.3668 18.6332C10.4917 17.758 10 16.571 10 15.3333C10 14.0957 10.4917 12.9087 11.3668 12.0335C12.242 11.1583 13.429 10.6667 14.6667 10.6667C15.7296 10.6599 16.7614 11.0252 17.5833 11.6992C17.7189 11.8102 17.875 11.8933 18.0428 11.944C18.2105 11.9946 18.3866 12.0116 18.5609 11.9941C18.7352 11.9767 18.9044 11.925 19.0588 11.8421C19.2131 11.7593 19.3496 11.6468 19.4605 11.5111C19.5713 11.3754 19.6544 11.2192 19.7048 11.0515C19.7553 10.8837 19.7722 10.7076 19.7546 10.5333C19.737 10.359 19.6852 10.1899 19.6022 10.0356C19.5192 9.88129 19.4066 9.74487 19.2708 9.63412C17.9738 8.5688 16.3451 7.99071 14.6667 8C12.7218 8 10.8565 8.77262 9.48123 10.1479C8.10596 11.5231 7.33334 13.3884 7.33334 15.3333C7.33334 17.2783 8.10596 19.1435 9.48123 20.5188C10.8565 21.894 12.7218 22.6667 14.6667 22.6667C15.0203 22.6667 15.3594 22.5262 15.6095 22.2761C15.8595 22.0261 16 21.687 16 21.3333C16 20.9797 15.8595 20.6406 15.6095 20.3905C15.3594 20.1405 15.0203 20 14.6667 20Z" fill="url(#paint0_linear_86_673)"/>
<defs>
<linearGradient id="paint0_linear_86_673" x1="1.33334" y1="29.8038" x2="31.6416" y2="28.6582" gradientUnits="userSpaceOnUse">
<stop stop-color="#99E1D9"/>
<stop offset="1" stop-color="#3B736D"/>
</linearGradient>
</defs>
</svg>
