<svg width="32" height="32" viewBox="0 0 32 32" fill="none" xmlns="http://www.w3.org/2000/svg">
<path d="M3.62661 10.2001C3.88735 10.2767 4.13802 10.3841 4.37328 10.5201C5.1997 11.0134 6.14419 11.2738 7.10661 11.2738C8.06904 11.2738 9.01353 11.0134 9.83995 10.5201C10.3606 10.2257 10.9485 10.0709 11.5466 10.0709C12.1447 10.0709 12.7327 10.2257 13.2533 10.5201C14.0897 10.9984 15.0365 11.25 15.9999 11.25C16.9634 11.25 17.9102 10.9984 18.7466 10.5201C19.2672 10.2257 19.8552 10.0709 20.4533 10.0709C21.0514 10.0709 21.6393 10.2257 22.1599 10.5201C23.0049 11.0031 23.9601 11.2602 24.9333 11.2668C25.8735 11.2649 26.7954 11.0067 27.6 10.5201C27.8352 10.3841 28.0859 10.2767 28.3466 10.2001C28.6861 10.1011 28.9723 9.8713 29.1424 9.56124C29.3124 9.25118 29.3523 8.88628 29.2533 8.5468C29.1543 8.20732 28.9245 7.92108 28.6144 7.75105C28.3043 7.58102 27.9394 7.54112 27.6 7.64013C27.1325 7.7844 26.6846 7.98593 26.2666 8.24013C25.8419 8.48853 25.3587 8.61944 24.8666 8.61944C24.3746 8.61944 23.8914 8.48853 23.4666 8.24013C22.5421 7.72156 21.4999 7.44922 20.4399 7.44922C19.38 7.44922 18.3378 7.72156 17.4133 8.24013C16.984 8.48954 16.4964 8.62091 15.9999 8.62091C15.5035 8.62091 15.0159 8.48954 14.5866 8.24013C13.6621 7.72156 12.6199 7.44922 11.5599 7.44922C10.5 7.44922 9.45776 7.72156 8.53328 8.24013C8.10853 8.48853 7.62533 8.61944 7.13328 8.61944C6.64123 8.61944 6.15804 8.48853 5.73328 8.24013C5.31527 7.98593 4.86743 7.7844 4.39995 7.64013C4.06047 7.54112 3.69556 7.58102 3.3855 7.75105C3.07544 7.92108 2.84563 8.20732 2.74661 8.5468C2.6476 8.88628 2.6875 9.25118 2.85753 9.56124C3.02756 9.8713 3.3138 10.1011 3.65328 10.2001H3.62661ZM27.6266 20.9735C27.1591 21.1177 26.7113 21.3193 26.2933 21.5735C25.8685 21.8219 25.3853 21.9528 24.8933 21.9528C24.4012 21.9528 23.918 21.8219 23.4933 21.5735C22.5688 21.0549 21.5266 20.7826 20.4666 20.7826C19.4066 20.7826 18.3644 21.0549 17.4399 21.5735C17.0107 21.8229 16.5231 21.9542 16.0266 21.9542C15.5302 21.9542 15.0425 21.8229 14.6133 21.5735C13.6888 21.0549 12.6466 20.7826 11.5866 20.7826C10.5266 20.7826 9.48442 21.0549 8.55995 21.5735C8.13519 21.8219 7.652 21.9528 7.15995 21.9528C6.6679 21.9528 6.1847 21.8219 5.75995 21.5735C5.34194 21.3193 4.8941 21.1177 4.42661 20.9735C4.25852 20.9244 4.08242 20.909 3.90836 20.928C3.7343 20.9471 3.5657 21.0002 3.41217 21.0844C3.25865 21.1686 3.1232 21.2822 3.01358 21.4187C2.90396 21.5553 2.82231 21.712 2.77328 21.8801C2.72425 22.0482 2.70882 22.2243 2.72785 22.3984C2.74688 22.5724 2.80001 22.741 2.8842 22.8946C2.96839 23.0481 3.082 23.1835 3.21853 23.2932C3.35507 23.4028 3.51186 23.4844 3.67995 23.5335C3.94069 23.61 4.19135 23.7175 4.42661 23.8535C5.25304 24.3467 6.19752 24.6071 7.15995 24.6071C8.12237 24.6071 9.06686 24.3467 9.89328 23.8535C10.4139 23.559 11.0018 23.4043 11.5999 23.4043C12.1981 23.4043 12.786 23.559 13.3066 23.8535C14.143 24.3317 15.0898 24.5833 16.0533 24.5833C17.0168 24.5833 17.9635 24.3317 18.7999 23.8535C19.3206 23.559 19.9085 23.4043 20.5066 23.4043C21.1047 23.4043 21.6927 23.559 22.2133 23.8535C23.0583 24.3364 24.0134 24.5935 24.9866 24.6001C25.9268 24.5982 26.8488 24.3401 27.6533 23.8535C27.8885 23.7175 28.1392 23.61 28.3999 23.5335C28.7394 23.4345 29.0257 23.2046 29.1957 22.8946C29.3657 22.5845 29.4056 22.2196 29.3066 21.8801C29.2076 21.5407 28.9778 21.2544 28.6677 21.0844C28.3577 20.9143 27.9928 20.8745 27.6533 20.9735H27.6266ZM27.6266 14.3068C27.1591 14.4511 26.7113 14.6526 26.2933 14.9068C25.8685 15.1552 25.3853 15.2861 24.8933 15.2861C24.4012 15.2861 23.918 15.1552 23.4933 14.9068C22.5688 14.3882 21.5266 14.1159 20.4666 14.1159C19.4066 14.1159 18.3644 14.3882 17.4399 14.9068C17.0107 15.1562 16.5231 15.2876 16.0266 15.2876C15.5302 15.2876 15.0425 15.1562 14.6133 14.9068C13.6888 14.3882 12.6466 14.1159 11.5866 14.1159C10.5266 14.1159 9.48442 14.3882 8.55995 14.9068C8.13519 15.1552 7.652 15.2861 7.15995 15.2861C6.6679 15.2861 6.1847 15.1552 5.75995 14.9068C5.34194 14.6526 4.8941 14.4511 4.42661 14.3068C4.25203 14.2409 4.06556 14.2124 3.87925 14.2231C3.69295 14.2338 3.51096 14.2834 3.34507 14.3689C3.17918 14.4544 3.03307 14.5737 2.9162 14.7192C2.79933 14.8647 2.7143 15.0331 2.66661 15.2135C2.61759 15.3816 2.60215 15.5577 2.62118 15.7317C2.64021 15.9058 2.69334 16.0744 2.77753 16.2279C2.86172 16.3814 2.97533 16.5169 3.11186 16.6265C3.2484 16.7361 3.40519 16.8178 3.57328 16.8668C3.83402 16.9434 4.08468 17.0508 4.31995 17.1868C5.14637 17.68 6.09086 17.9405 7.05328 17.9405C8.0157 17.9405 8.96019 17.68 9.78661 17.1868C10.3072 16.8923 10.8952 16.7376 11.4933 16.7376C12.0914 16.7376 12.6793 16.8923 13.1999 17.1868C14.0363 17.6651 14.9831 17.9166 15.9466 17.9166C16.9101 17.9166 17.8569 17.6651 18.6933 17.1868C19.2139 16.8923 19.8018 16.7376 20.3999 16.7376C20.9981 16.7376 21.586 16.8923 22.1066 17.1868C22.9516 17.6697 23.9067 17.9269 24.8799 17.9335C25.8202 17.9315 26.7421 17.6734 27.5466 17.1868C27.7819 17.0508 28.0325 16.9434 28.2933 16.8668C28.6328 16.7678 28.919 16.538 29.089 16.2279C29.2591 15.9179 29.299 15.5529 29.1999 15.2135C29.1009 14.874 28.8711 14.5878 28.5611 14.4177C28.251 14.2477 27.8861 14.2078 27.5466 14.3068H27.6266Z" fill="url(#paint0_linear_188_618)"/>
<defs>
<linearGradient id="paint0_linear_188_618" x1="2.61328" y1="24.0907" x2="30.197" y2="22.5024" gradientUnits="userSpaceOnUse">
<stop stop-color="#99E1D9"/>
<stop offset="1" stop-color="#3B736D"/>
</linearGradient>
</defs>
</svg>
