<svg width="262" height="380" viewBox="0 0 262 380" fill="none" xmlns="http://www.w3.org/2000/svg">
<rect width="262" height="380" fill="#171F24"/>
<g clip-path="url(#clip0_2001_1407)">
<rect width="262" height="320" fill="#171F24"/>
<g opacity="0.6" filter="url(#filter0_f_2001_1407)">
<path d="M-42.9991 71.4094C-42.9991 169.398 80.9633 248.834 233.879 248.834C386.794 248.834 510.757 169.398 510.757 71.4094C510.757 -26.5797 386.794 -106.016 233.879 -106.016C80.9633 -106.016 -42.9991 -26.5797 -42.9991 71.4094Z" fill="url(#paint0_linear_2001_1407)"/>
</g>
<g filter="url(#filter1_f_2001_1407)">
<path d="M283.964 -190.014C300.491 -190.338 288.501 -131.748 309.565 -93.2278C330.954 -54.3836 384.751 -35.6089 377.297 -21.0423C369.519 -6.4757 300.167 3.88276 261.602 12.6227C223.362 21.3626 215.908 29.1315 207.158 69.9179C198.408 110.705 188.361 184.509 175.074 189.688C161.787 194.867 145.908 130.774 103.13 109.733C60.352 88.3689 -9 109.734 -9 95.814C-8.67593 81.8949 60.6761 32.6922 77.852 -6.47569C95.352 -45.6436 60.676 -75.1005 54.8427 -98.7307C49.0094 -122.684 72.0187 -141.135 97.2965 -135.956C122.898 -130.453 150.445 -101.32 186.417 -116.21C222.713 -131.101 267.436 -189.691 283.964 -190.014Z" fill="#0C43C4"/>
</g>
<g style="mix-blend-mode:color-dodge" opacity="0.9" filter="url(#filter2_f_2001_1407)">
<path d="M-46.2735 -126.404C-41.8016 -143.591 15.3023 -114.151 61.2645 -124.733C107.656 -135.556 142.717 -185.73 155.613 -173.785C168.415 -161.505 158.959 -86.7721 156.782 -44.3483C154.699 -2.25968 160.565 7.70795 200.2 28.6183C239.835 49.5287 313.238 81.3818 314.73 96.6289C316.222 111.876 245.322 109.658 211.122 147.778C176.587 185.804 178.512 263.738 164.118 259.69C149.817 255.306 119.103 169.277 83.5925 140.123C48.1763 110.635 7.62888 137.928 -18.5049 137.089C-44.9734 136.155 -57.363 106.994 -44.6555 82.3593C-31.5191 57.4834 6.62008 37.4688 1.68272 -4.06248C-3.1604 -45.9289 -50.7453 -109.218 -46.2735 -126.404Z" fill="url(#paint1_linear_2001_1407)"/>
</g>
</g>
<defs>
<filter id="filter0_f_2001_1407" x="-102.999" y="-166.016" width="673.756" height="474.85" filterUnits="userSpaceOnUse" color-interpolation-filters="sRGB">
<feFlood flood-opacity="0" result="BackgroundImageFix"/>
<feBlend mode="normal" in="SourceGraphic" in2="BackgroundImageFix" result="shape"/>
<feGaussianBlur stdDeviation="30" result="effect1_foregroundBlur_2001_1407"/>
</filter>
<filter id="filter1_f_2001_1407" x="-69" y="-250.016" width="507" height="500" filterUnits="userSpaceOnUse" color-interpolation-filters="sRGB">
<feFlood flood-opacity="0" result="BackgroundImageFix"/>
<feBlend mode="normal" in="SourceGraphic" in2="BackgroundImageFix" result="shape"/>
<feGaussianBlur stdDeviation="30" result="effect1_foregroundBlur_2001_1407"/>
</filter>
<filter id="filter2_f_2001_1407" x="-109.677" y="-235.61" width="484.43" height="555.452" filterUnits="userSpaceOnUse" color-interpolation-filters="sRGB">
<feFlood flood-opacity="0" result="BackgroundImageFix"/>
<feBlend mode="normal" in="SourceGraphic" in2="BackgroundImageFix" result="shape"/>
<feGaussianBlur stdDeviation="30" result="effect1_foregroundBlur_2001_1407"/>
</filter>
<linearGradient id="paint0_linear_2001_1407" x1="-26.3308" y1="-106.016" x2="-17.6448" y2="260.946" gradientUnits="userSpaceOnUse">
<stop stop-color="#99E1D9"/>
<stop offset="1" stop-color="#3B736D"/>
</linearGradient>
<linearGradient id="paint1_linear_2001_1407" x1="249.675" y1="283.75" x2="350.409" y2="-134.15" gradientUnits="userSpaceOnUse">
<stop stop-color="#99E1D9"/>
<stop offset="1" stop-color="#3B736D"/>
</linearGradient>
<clipPath id="clip0_2001_1407">
<rect width="262" height="320" fill="white"/>
</clipPath>
</defs>
</svg>
