<svg width="262" height="309" viewBox="0 0 262 309" fill="none" xmlns="http://www.w3.org/2000/svg">
<g opacity="0.6" filter="url(#filter0_f_188_691)">
<ellipse cx="233.879" cy="71.4708" rx="177.425" ry="276.878" transform="rotate(90 233.879 71.4708)" fill="url(#paint0_linear_188_691)"/>
</g>
<g filter="url(#filter1_f_188_691)">
<path d="M232.742 116.562C224.148 122.647 214.866 125.784 204.469 138.133C194.113 150.204 182.6 171.763 167.839 179.185C152.842 186.287 134.916 179.015 107.811 172.338C80.7058 165.661 44.7407 159.343 14.4292 138.251C-16.1177 116.838 -41.0111 80.6504 -17.4692 64.0454C5.83733 47.1204 77.8569 49.8203 111.091 32.9826C144.326 16.1449 138.776 -20.2304 151.205 -55.2951C163.676 -90.6376 194.084 -124.392 216.705 -118.112C239.326 -111.832 254.437 -65.4762 264.339 -31.5666C274.24 2.34309 279.21 23.8488 277.214 42.5907C274.941 61.2904 265.938 77.5463 257.526 89.9124C249.114 102.278 241.293 110.755 232.742 116.562Z" fill="#0C43C4"/>
</g>
<g style="mix-blend-mode:color-dodge" opacity="0.9" filter="url(#filter2_f_188_691)">
<path d="M23.6054 106.144C17.5289 95.5375 15.2046 85.0025 1.69826 70.8333C-11.4721 56.7826 -36.1604 38.9792 -42.858 21.573C-49.1214 4.00682 -37.1568 -12.7649 -24.3955 -39.283C-11.6341 -65.8012 2.16155 -101.669 33.2493 -127.671C64.7713 -153.833 113.585 -170.13 130.153 -141.092C147.154 -112.215 131.81 -37.7229 147.047 1.50023C162.285 40.7233 208.104 44.6779 249.308 67.0583C290.847 89.5572 327.434 130.363 315.91 152.305C304.387 174.246 244.655 177.601 201.153 178.852C157.651 180.103 130.28 179.527 107.482 172.419C84.7821 165.032 66.221 151.272 52.362 139.172C38.503 127.071 29.3461 116.631 23.6054 106.144Z" fill="url(#paint1_linear_188_691)"/>
</g>
<defs>
<filter id="filter0_f_188_691" x="-103" y="-165.954" width="673.757" height="474.85" filterUnits="userSpaceOnUse" color-interpolation-filters="sRGB">
<feFlood flood-opacity="0" result="BackgroundImageFix"/>
<feBlend mode="normal" in="SourceGraphic" in2="BackgroundImageFix" result="shape"/>
<feGaussianBlur stdDeviation="30" result="effect1_foregroundBlur_188_691"/>
</filter>
<filter id="filter1_f_188_691" x="-86.7925" y="-178.87" width="424.442" height="420.973" filterUnits="userSpaceOnUse" color-interpolation-filters="sRGB">
<feFlood flood-opacity="0" result="BackgroundImageFix"/>
<feBlend mode="normal" in="SourceGraphic" in2="BackgroundImageFix" result="shape"/>
<feGaussianBlur stdDeviation="30" result="effect1_foregroundBlur_188_691"/>
</filter>
<filter id="filter2_f_188_691" x="-104.574" y="-216.505" width="482.635" height="455.879" filterUnits="userSpaceOnUse" color-interpolation-filters="sRGB">
<feFlood flood-opacity="0" result="BackgroundImageFix"/>
<feBlend mode="normal" in="SourceGraphic" in2="BackgroundImageFix" result="shape"/>
<feGaussianBlur stdDeviation="30" result="effect1_foregroundBlur_188_691"/>
</filter>
<linearGradient id="paint0_linear_188_691" x1="56.4536" y1="331.68" x2="423.416" y2="322.995" gradientUnits="userSpaceOnUse">
<stop stop-color="#99E1D9"/>
<stop offset="1" stop-color="#3B736D"/>
</linearGradient>
<linearGradient id="paint1_linear_188_691" x1="386.89" y1="-48.1896" x2="1.87086" y2="-164.39" gradientUnits="userSpaceOnUse">
<stop stop-color="#99E1D9"/>
<stop offset="1" stop-color="#3B736D"/>
</linearGradient>
</defs>
</svg>
