<svg width="262" height="320" viewBox="0 0 262 320" fill="none" xmlns="http://www.w3.org/2000/svg">
<g opacity="0.6" filter="url(#filter0_f_188_679)">
<ellipse cx="233.879" cy="71.4093" rx="177.425" ry="276.878" transform="rotate(90 233.879 71.4093)" fill="url(#paint0_linear_188_679)"/>
</g>
<g filter="url(#filter1_f_188_679)">
<path d="M283.964 -190.014C300.491 -190.338 288.501 -131.748 309.565 -93.2275C330.954 -54.3833 384.751 -35.6086 377.297 -21.042C369.519 -6.47542 300.167 3.88303 261.602 12.623C223.362 21.3629 215.908 29.1318 207.158 69.9182C198.408 110.705 188.361 184.509 175.074 189.688C161.787 194.867 145.908 130.774 103.13 109.733C60.352 88.3692 -9 109.734 -9 95.8143C-8.67593 81.8952 60.6761 32.6925 77.852 -6.47542C95.352 -45.6433 60.676 -75.1002 54.8427 -98.7304C49.0094 -122.684 72.0187 -141.135 97.2965 -135.956C122.898 -130.453 150.445 -101.32 186.417 -116.21C222.713 -131.101 267.436 -189.691 283.964 -190.014Z" fill="#0C43C4"/>
</g>
<g style="mix-blend-mode:color-dodge" opacity="0.9" filter="url(#filter2_f_188_679)">
<path d="M-46.2733 -126.404C-41.8014 -143.591 15.3025 -114.151 61.2647 -124.733C107.656 -135.556 142.717 -185.73 155.613 -173.785C168.415 -161.505 158.959 -86.7723 156.782 -44.3485C154.699 -2.2599 160.565 7.70773 200.2 28.6181C239.835 49.5285 313.238 81.3816 314.73 96.6287C316.222 111.876 245.322 109.658 211.122 147.778C176.587 185.804 178.512 263.738 164.118 259.69C149.817 255.306 119.103 169.277 83.5927 140.123C48.1765 110.635 7.62907 137.928 -18.5047 137.089C-44.9732 136.155 -57.3628 106.994 -44.6553 82.3591C-31.5189 57.4832 6.62027 37.4686 1.68291 -4.06269C-3.16021 -45.9291 -50.7451 -109.218 -46.2733 -126.404Z" fill="url(#paint1_linear_188_679)"/>
</g>
<defs>
<filter id="filter0_f_188_679" x="-103" y="-166.016" width="673.757" height="474.85" filterUnits="userSpaceOnUse" color-interpolation-filters="sRGB">
<feFlood flood-opacity="0" result="BackgroundImageFix"/>
<feBlend mode="normal" in="SourceGraphic" in2="BackgroundImageFix" result="shape"/>
<feGaussianBlur stdDeviation="30" result="effect1_foregroundBlur_188_679"/>
</filter>
<filter id="filter1_f_188_679" x="-69" y="-250.016" width="507" height="500" filterUnits="userSpaceOnUse" color-interpolation-filters="sRGB">
<feFlood flood-opacity="0" result="BackgroundImageFix"/>
<feBlend mode="normal" in="SourceGraphic" in2="BackgroundImageFix" result="shape"/>
<feGaussianBlur stdDeviation="30" result="effect1_foregroundBlur_188_679"/>
</filter>
<filter id="filter2_f_188_679" x="-109.677" y="-235.61" width="484.43" height="555.452" filterUnits="userSpaceOnUse" color-interpolation-filters="sRGB">
<feFlood flood-opacity="0" result="BackgroundImageFix"/>
<feBlend mode="normal" in="SourceGraphic" in2="BackgroundImageFix" result="shape"/>
<feGaussianBlur stdDeviation="30" result="effect1_foregroundBlur_188_679"/>
</filter>
<linearGradient id="paint0_linear_188_679" x1="56.4536" y1="331.619" x2="423.416" y2="322.933" gradientUnits="userSpaceOnUse">
<stop stop-color="#99E1D9"/>
<stop offset="1" stop-color="#3B736D"/>
</linearGradient>
<linearGradient id="paint1_linear_188_679" x1="249.675" y1="283.75" x2="350.409" y2="-134.15" gradientUnits="userSpaceOnUse">
<stop stop-color="#99E1D9"/>
<stop offset="1" stop-color="#3B736D"/>
</linearGradient>
</defs>
</svg>
