<svg width="262" height="358" viewBox="0 0 262 358" fill="none" xmlns="http://www.w3.org/2000/svg">
<g opacity="0.6" filter="url(#filter0_f_188_697)">
<ellipse cx="233.878" cy="71.4249" rx="177.425" ry="276.878" transform="rotate(90 233.878 71.4249)" fill="url(#paint0_linear_188_697)"/>
</g>
<g filter="url(#filter1_f_188_697)">
<path d="M357.78 10.8711C380.114 43.8617 392.003 93.6588 374.811 121.67C357.619 150.096 311.185 156.528 277.605 159.225C243.864 162.13 222.816 161.092 203.696 158.81C184.736 156.32 167.705 152.17 155.655 140.344C143.765 128.309 137.017 108.39 108.738 87.6417C80.2994 66.6854 30.3303 44.8991 28.0809 24.5653C25.8315 4.2315 71.141 -14.4424 97.4913 -43.9057C124.002 -73.1615 131.232 -113.207 146.496 -112.999C161.599 -112.584 184.576 -72.1241 206.588 -55.7325C228.6 -38.926 249.326 -46.603 276.159 -42.2458C302.83 -38.096 335.607 -21.912 357.78 10.8711Z" fill="#0C43C4"/>
</g>
<g style="mix-blend-mode:color-dodge" opacity="0.9" filter="url(#filter2_f_188_697)">
<path d="M269.971 -21.9557C299.289 -9.43457 329.359 8.70831 326.853 33.2395C324.097 58.0262 288.765 88.9458 267.716 109.9C246.667 131.109 239.902 142.608 235.892 167.906C231.883 192.948 230.63 232.044 211.836 260.664C193.043 289.284 156.708 307.938 136.161 292.35C115.613 276.507 111.103 226.678 81.2834 196.27C51.4642 166.117 -3.66381 155.384 -15.4412 132.898C-27.2185 110.155 4.3548 75.658 24.4013 37.5836C44.4479 -0.490898 52.7171 -42.1428 77.2741 -56.9638C101.581 -71.7847 142.175 -60.0302 177.006 -50.5754C211.586 -41.1207 240.403 -34.4768 269.971 -21.9557Z" fill="url(#paint1_linear_188_697)"/>
</g>
<defs>
<filter id="filter0_f_188_697" x="-103" y="-166" width="673.757" height="474.85" filterUnits="userSpaceOnUse" color-interpolation-filters="sRGB">
<feFlood flood-opacity="0" result="BackgroundImageFix"/>
<feBlend mode="normal" in="SourceGraphic" in2="BackgroundImageFix" result="shape"/>
<feGaussianBlur stdDeviation="30" result="effect1_foregroundBlur_188_697"/>
</filter>
<filter id="filter1_f_188_697" x="-31.9998" y="-173" width="475" height="394" filterUnits="userSpaceOnUse" color-interpolation-filters="sRGB">
<feFlood flood-opacity="0" result="BackgroundImageFix"/>
<feBlend mode="normal" in="SourceGraphic" in2="BackgroundImageFix" result="shape"/>
<feGaussianBlur stdDeviation="30" result="effect1_foregroundBlur_188_697"/>
</filter>
<filter id="filter2_f_188_697" x="-78" y="-124" width="465" height="482" filterUnits="userSpaceOnUse" color-interpolation-filters="sRGB">
<feFlood flood-opacity="0" result="BackgroundImageFix"/>
<feBlend mode="normal" in="SourceGraphic" in2="BackgroundImageFix" result="shape"/>
<feGaussianBlur stdDeviation="30" result="effect1_foregroundBlur_188_697"/>
</filter>
<linearGradient id="paint0_linear_188_697" x1="56.4534" y1="331.634" x2="423.416" y2="322.949" gradientUnits="userSpaceOnUse">
<stop stop-color="#99E1D9"/>
<stop offset="1" stop-color="#3B736D"/>
</linearGradient>
<linearGradient id="paint1_linear_188_697" x1="-18" y1="287.103" x2="338.534" y2="274.552" gradientUnits="userSpaceOnUse">
<stop stop-color="#99E1D9"/>
<stop offset="1" stop-color="#3B736D"/>
</linearGradient>
</defs>
</svg>
