<svg width="262" height="380" viewBox="0 0 262 380" fill="none" xmlns="http://www.w3.org/2000/svg">
<rect width="262" height="380" fill="#171F24"/>
<g clip-path="url(#clip0_2001_1405)">
<rect width="262" height="309" fill="#171F24"/>
<g opacity="0.6" filter="url(#filter0_f_2001_1405)">
<path d="M-42.9991 71.4709C-42.9991 169.46 80.9633 248.896 233.879 248.896C386.794 248.896 510.757 169.46 510.757 71.4709C510.757 -26.5182 386.794 -105.954 233.879 -105.954C80.9633 -105.954 -42.9991 -26.5182 -42.9991 71.4709Z" fill="url(#paint0_linear_2001_1405)"/>
</g>
<g filter="url(#filter1_f_2001_1405)">
<path d="M232.742 116.562C224.148 122.647 214.866 125.784 204.469 138.133C194.113 150.204 182.6 171.763 167.839 179.185C152.842 186.287 134.916 179.015 107.811 172.338C80.7059 165.661 44.7408 159.343 14.4293 138.251C-16.1176 116.838 -41.011 80.6508 -17.4691 64.0458C5.83747 47.1208 77.8571 49.8207 111.091 32.983C144.326 16.1453 138.776 -20.23 151.205 -55.2947C163.676 -90.6372 194.084 -124.392 216.705 -118.112C239.326 -111.832 254.437 -65.4758 264.339 -31.5662C274.24 2.34349 279.21 23.8492 277.214 42.5911C274.941 61.2908 265.938 77.5467 257.526 89.9128C249.114 102.278 241.293 110.755 232.742 116.562Z" fill="#0C43C4"/>
</g>
<g style="mix-blend-mode:color-dodge" opacity="0.9" filter="url(#filter2_f_2001_1405)">
<path d="M23.6053 106.144C17.5288 95.5371 15.2045 85.0022 1.6982 70.833C-11.4722 56.7823 -36.1605 38.9789 -42.8581 21.5727C-49.1215 4.00648 -37.1569 -12.7652 -24.3956 -39.2833C-11.6342 -65.8015 2.16149 -101.669 33.2492 -127.671C64.7712 -153.833 113.585 -170.13 130.153 -141.092C147.154 -112.215 131.81 -37.7232 147.047 1.49989C162.285 40.723 208.104 44.6776 249.308 67.058C290.847 89.5569 327.434 130.363 315.91 152.305C304.387 174.246 244.655 177.601 201.153 178.852C157.651 180.103 130.28 179.527 107.482 172.419C84.782 165.032 66.2209 151.272 52.3619 139.172C38.5029 127.071 29.346 116.631 23.6053 106.144Z" fill="url(#paint1_linear_2001_1405)"/>
</g>
</g>
<defs>
<filter id="filter0_f_2001_1405" x="-102.999" y="-165.954" width="673.756" height="474.85" filterUnits="userSpaceOnUse" color-interpolation-filters="sRGB">
<feFlood flood-opacity="0" result="BackgroundImageFix"/>
<feBlend mode="normal" in="SourceGraphic" in2="BackgroundImageFix" result="shape"/>
<feGaussianBlur stdDeviation="30" result="effect1_foregroundBlur_2001_1405"/>
</filter>
<filter id="filter1_f_2001_1405" x="-86.7925" y="-178.87" width="424.442" height="420.973" filterUnits="userSpaceOnUse" color-interpolation-filters="sRGB">
<feFlood flood-opacity="0" result="BackgroundImageFix"/>
<feBlend mode="normal" in="SourceGraphic" in2="BackgroundImageFix" result="shape"/>
<feGaussianBlur stdDeviation="30" result="effect1_foregroundBlur_2001_1405"/>
</filter>
<filter id="filter2_f_2001_1405" x="-104.574" y="-216.505" width="482.635" height="455.879" filterUnits="userSpaceOnUse" color-interpolation-filters="sRGB">
<feFlood flood-opacity="0" result="BackgroundImageFix"/>
<feBlend mode="normal" in="SourceGraphic" in2="BackgroundImageFix" result="shape"/>
<feGaussianBlur stdDeviation="30" result="effect1_foregroundBlur_2001_1405"/>
</filter>
<linearGradient id="paint0_linear_2001_1405" x1="-26.3304" y1="-105.955" x2="-17.6454" y2="261.008" gradientUnits="userSpaceOnUse">
<stop stop-color="#99E1D9"/>
<stop offset="1" stop-color="#3B736D"/>
</linearGradient>
<linearGradient id="paint1_linear_2001_1405" x1="386.89" y1="-48.1899" x2="1.87081" y2="-164.39" gradientUnits="userSpaceOnUse">
<stop stop-color="#99E1D9"/>
<stop offset="1" stop-color="#3B736D"/>
</linearGradient>
<clipPath id="clip0_2001_1405">
<rect width="262" height="309" fill="white"/>
</clipPath>
</defs>
</svg>
