<svg width="360" height="250" viewBox="0 0 360 250" fill="none" xmlns="http://www.w3.org/2000/svg">
<g clip-path="url(#clip0_2049_1616)">
<g opacity="0.4">
<g opacity="0.6" filter="url(#filter0_f_2049_1616)">
<path d="M95.1989 226.633C116.784 220.282 151.791 229.086 165.053 244.646C178.144 260.23 169.319 282.596 186.1 300.303C202.881 318.009 245.097 331.082 249.958 339.249C254.938 347.526 222.275 350.813 202.46 356.777C182.526 362.631 175.613 371.136 161.423 371.449C147.18 371.897 125.897 364.371 108.623 358.159C91.1768 351.972 78.0301 347.182 50.5052 344.002C22.9802 340.822 -18.7515 339.226 -32.1672 331.43C-45.636 323.769 -30.9606 309.933 -11.5786 303.018C7.80341 296.102 31.655 295.889 43.7941 292.579C55.9331 289.268 56.5313 282.835 60.7932 268.756C65.0551 254.676 73.561 233.119 95.1989 226.633Z" fill="url(#paint0_linear_2049_1616)"/>
</g>
<g filter="url(#filter1_f_2049_1616)">
<path d="M6.60151 346.971C-20.163 343.414 -40.6202 325.721 -33.6859 311.388C-26.569 297.098 8.12197 286.213 14.5163 269.313C20.9106 252.414 -0.809178 229.545 4.6924 222.753C10.2204 215.852 43.1259 225.181 67.856 228.362C92.5598 231.653 108.906 228.753 121.861 233.502C135.025 238.185 144.852 250.298 152.703 260.195C160.736 270.136 166.636 277.706 187.217 289.282C207.798 300.857 242.876 316.394 245.404 325.934C248.14 335.409 218.509 338.933 193.02 336.496C167.531 334.059 146.13 325.881 131.392 323.718C116.654 321.555 108.395 325.362 87.7038 332.666C67.0121 339.969 33.5751 350.461 6.60151 346.971Z" fill="#0C43C4"/>
</g>
<g style="mix-blend-mode:color-dodge" opacity="0.9" filter="url(#filter2_f_2049_1616)">
<path d="M185.646 373.156C175.228 386.574 137.909 389.762 110.702 379.086C83.6047 368.328 66.7298 343.624 34.4228 332.041C2.11588 320.459 -45.5133 321.916 -58.1203 315.608C-70.9387 309.233 -48.4136 295.076 -38.9927 282.629C-29.3603 270.249 -32.942 259.661 -21.9644 254.595C-11.0885 249.38 13.9237 249.555 34.3361 249.798C54.8583 249.958 70.4594 250.203 95.8019 244.059C121.144 237.914 156.118 225.462 175.148 228.539C194.075 231.467 197.168 249.842 189.109 263.069C181.051 276.295 162.264 284.506 156.126 291.798C149.988 299.089 156.388 305.544 168.042 320.662C179.697 335.779 195.962 359.59 185.646 373.156Z" fill="url(#paint1_linear_2049_1616)"/>
</g>
</g>
<g filter="url(#filter3_f_2049_1616)">
<path d="M337.572 259.561C301.615 259.561 243.028 240.672 242.023 252.005C240.765 263.338 297.341 304.641 322.988 331.337C348.384 358.033 343.104 370.122 340.841 386.995C338.578 404.121 339.583 426.284 349.893 451.972C360.202 477.66 379.815 506.875 393.896 497.053C407.725 487.482 416.274 438.624 437.396 419.232C458.517 399.84 492.211 409.662 495.731 402.358C499 395.054 471.844 370.625 461.031 352.492C449.968 334.611 454.997 322.774 457.763 304.893C460.528 287.264 460.78 263.338 450.722 248.227C440.413 233.117 420.046 227.072 403.199 233.62C386.352 240.168 373.528 259.309 337.572 259.561Z" fill="#F8333C"/>
</g>
</g>
<defs>
<filter id="filter0_f_2049_1616" x="-137.383" y="124.552" width="487.852" height="346.917" filterUnits="userSpaceOnUse" color-interpolation-filters="sRGB">
<feFlood flood-opacity="0" result="BackgroundImageFix"/>
<feBlend mode="normal" in="SourceGraphic" in2="BackgroundImageFix" result="shape"/>
<feGaussianBlur stdDeviation="50" result="effect1_foregroundBlur_2049_1616"/>
</filter>
<filter id="filter1_f_2049_1616" x="-135.049" y="120.269" width="480.629" height="327.394" filterUnits="userSpaceOnUse" color-interpolation-filters="sRGB">
<feFlood flood-opacity="0" result="BackgroundImageFix"/>
<feBlend mode="normal" in="SourceGraphic" in2="BackgroundImageFix" result="shape"/>
<feGaussianBlur stdDeviation="50" result="effect1_foregroundBlur_2049_1616"/>
</filter>
<filter id="filter2_f_2049_1616" x="-161.969" y="128.058" width="455.246" height="357.419" filterUnits="userSpaceOnUse" color-interpolation-filters="sRGB">
<feFlood flood-opacity="0" result="BackgroundImageFix"/>
<feBlend mode="normal" in="SourceGraphic" in2="BackgroundImageFix" result="shape"/>
<feGaussianBlur stdDeviation="50" result="effect1_foregroundBlur_2049_1616"/>
</filter>
<filter id="filter3_f_2049_1616" x="142.002" y="131.001" width="454" height="468" filterUnits="userSpaceOnUse" color-interpolation-filters="sRGB">
<feFlood flood-opacity="0" result="BackgroundImageFix"/>
<feBlend mode="normal" in="SourceGraphic" in2="BackgroundImageFix" result="shape"/>
<feGaussianBlur stdDeviation="50" result="effect1_foregroundBlur_2049_1616"/>
</filter>
<linearGradient id="paint0_linear_2049_1616" x1="27.1962" y1="386.811" x2="156.869" y2="235.87" gradientUnits="userSpaceOnUse">
<stop stop-color="#99E1D9"/>
<stop offset="1" stop-color="#3B736D"/>
</linearGradient>
<linearGradient id="paint1_linear_2049_1616" x1="68.6183" y1="194.62" x2="22.0791" y2="354.431" gradientUnits="userSpaceOnUse">
<stop stop-color="#99E1D9"/>
<stop offset="1" stop-color="#3B736D"/>
</linearGradient>
<clipPath id="clip0_2049_1616">
<rect width="360" height="250" fill="white"/>
</clipPath>
</defs>
</svg>
