<svg width="360" height="111" viewBox="0 0 360 111" fill="none" xmlns="http://www.w3.org/2000/svg">
<g clip-path="url(#clip0_604_1355)">
<g opacity="0.4">
<g opacity="0.6" filter="url(#filter0_f_604_1355)">
<path d="M65.1968 106.632C86.7815 100.281 121.789 109.085 135.051 124.645C148.142 140.23 139.317 162.595 156.098 180.302C172.88 198.008 215.095 211.081 219.956 219.248C224.936 227.525 192.273 230.812 172.458 236.776C152.524 242.63 145.611 251.135 131.421 251.448C117.178 251.896 95.8946 244.371 78.6205 238.158C61.1746 231.971 48.028 227.181 20.503 224.001C-7.02194 220.821 -48.7536 219.225 -62.1693 211.429C-75.6382 203.768 -60.9627 189.932 -41.5807 183.017C-22.1987 176.101 1.65289 175.888 13.7919 172.578C25.931 169.267 26.5292 162.834 30.7911 148.755C35.053 134.675 43.5589 113.118 65.1968 106.632Z" fill="url(#paint0_linear_604_1355)"/>
</g>
<g filter="url(#filter1_f_604_1355)">
<path d="M-23.4015 226.97C-50.1661 223.413 -70.6232 205.72 -63.6889 191.387C-56.572 177.098 -21.8811 166.212 -15.4868 149.312C-9.09252 132.413 -30.8122 109.544 -25.3106 102.752C-19.7826 95.8508 13.1229 105.18 37.853 108.361C62.5567 111.652 78.9026 108.752 91.858 113.501C105.023 118.184 114.85 130.297 122.7 140.194C130.733 150.135 136.633 157.705 157.214 169.281C177.795 180.856 212.873 196.393 215.401 205.933C218.137 215.408 188.506 218.932 163.017 216.495C137.528 214.058 116.127 205.88 101.389 203.717C86.651 201.554 78.3925 205.361 57.7008 212.665C37.0091 219.968 3.57195 230.46 -23.4015 226.97Z" fill="#0C43C4"/>
</g>
<g style="mix-blend-mode:color-dodge" opacity="0.9" filter="url(#filter2_f_604_1355)">
<path d="M155.644 253.155C145.226 266.573 107.907 269.761 80.6997 259.085C53.6025 248.327 36.7276 223.623 4.42066 212.04C-27.8863 200.458 -75.5155 201.915 -88.1224 195.607C-100.941 189.232 -78.4158 175.075 -68.9949 162.628C-59.3625 150.248 -62.9442 139.66 -51.9666 134.594C-41.0907 129.379 -16.0784 129.554 4.33393 129.797C24.8562 129.957 40.4573 130.202 65.7997 124.058C91.1422 117.913 126.116 105.461 145.146 108.538C164.073 111.466 167.166 129.841 159.107 143.068C151.049 156.294 132.262 164.505 126.124 171.797C119.986 179.088 126.386 185.543 138.041 200.661C149.695 215.778 165.96 239.589 155.644 253.155Z" fill="url(#paint1_linear_604_1355)"/>
</g>
</g>
<g filter="url(#filter3_f_604_1355)">
<path d="M307.57 139.558C271.613 139.558 213.026 120.669 212.021 132.002C210.763 143.335 267.339 184.638 292.986 211.334C318.382 238.03 313.102 250.119 310.839 266.992C308.576 284.118 309.581 306.281 319.891 331.969C330.2 357.657 349.813 386.872 363.894 377.05C377.723 367.479 386.272 318.621 407.394 299.229C428.515 279.837 462.209 289.659 465.729 282.355C468.998 275.052 441.842 250.622 431.029 232.489C419.966 214.608 424.995 202.771 427.761 184.89C430.527 167.261 430.778 143.335 420.72 128.225C410.411 113.114 390.044 107.069 373.197 113.617C356.35 120.165 343.526 139.306 307.57 139.558Z" fill="#F8333C"/>
</g>
</g>
<defs>
<filter id="filter0_f_604_1355" x="-167.385" y="4.55078" width="487.851" height="346.916" filterUnits="userSpaceOnUse" color-interpolation-filters="sRGB">
<feFlood flood-opacity="0" result="BackgroundImageFix"/>
<feBlend mode="normal" in="SourceGraphic" in2="BackgroundImageFix" result="shape"/>
<feGaussianBlur stdDeviation="50" result="effect1_foregroundBlur_604_1355"/>
</filter>
<filter id="filter1_f_604_1355" x="-165.052" y="0.26709" width="480.629" height="327.394" filterUnits="userSpaceOnUse" color-interpolation-filters="sRGB">
<feFlood flood-opacity="0" result="BackgroundImageFix"/>
<feBlend mode="normal" in="SourceGraphic" in2="BackgroundImageFix" result="shape"/>
<feGaussianBlur stdDeviation="50" result="effect1_foregroundBlur_604_1355"/>
</filter>
<filter id="filter2_f_604_1355" x="-191.971" y="8.05664" width="455.247" height="357.419" filterUnits="userSpaceOnUse" color-interpolation-filters="sRGB">
<feFlood flood-opacity="0" result="BackgroundImageFix"/>
<feBlend mode="normal" in="SourceGraphic" in2="BackgroundImageFix" result="shape"/>
<feGaussianBlur stdDeviation="50" result="effect1_foregroundBlur_604_1355"/>
</filter>
<filter id="filter3_f_604_1355" x="112" y="10.9976" width="454" height="468" filterUnits="userSpaceOnUse" color-interpolation-filters="sRGB">
<feFlood flood-opacity="0" result="BackgroundImageFix"/>
<feBlend mode="normal" in="SourceGraphic" in2="BackgroundImageFix" result="shape"/>
<feGaussianBlur stdDeviation="50" result="effect1_foregroundBlur_604_1355"/>
</filter>
<linearGradient id="paint0_linear_604_1355" x1="-2.80594" y1="266.81" x2="126.868" y2="115.869" gradientUnits="userSpaceOnUse">
<stop stop-color="#99E1D9"/>
<stop offset="1" stop-color="#3B736D"/>
</linearGradient>
<linearGradient id="paint1_linear_604_1355" x1="38.6161" y1="74.6185" x2="-7.92306" y2="234.43" gradientUnits="userSpaceOnUse">
<stop stop-color="#99E1D9"/>
<stop offset="1" stop-color="#3B736D"/>
</linearGradient>
<clipPath id="clip0_604_1355">
<rect width="360" height="111" fill="white"/>
</clipPath>
</defs>
</svg>
